<?xml version="1.0" standalone="no"?>
<!DOCTYPE svg PUBLIC "-//W3C//DTD SVG 20010904//EN"
 "http://www.w3.org/TR/2001/REC-SVG-20010904/DTD/svg10.dtd">
<svg version="1.0" xmlns="http://www.w3.org/2000/svg"
 width="260.000000pt" height="280.000000pt" viewBox="0 0 260.000000 280.000000"
 preserveAspectRatio="xMidYMid meet">
<metadata>
Created by potrace 1.10, written by Peter Selinger 2001-2011
</metadata>
<g transform="translate(0.000000,280.000000) scale(0.100000,-0.100000)"
fill="#000000" stroke="none">
<path d="M240 2515 c0 -23 132 -325 142 -325 6 0 37 91 42 124 0 5 -10 15 -24
22 -21 11 -22 14 -7 20 17 6 17 8 1 25 -10 11 -12 19 -6 19 6 0 17 -10 23 -22
7 -13 11 -23 10 -23 -1 0 1 -8 5 -18 6 -16 9 -16 28 -4 11 7 42 19 69 27 26 7
49 16 52 20 4 6 -104 60 -120 60 -3 0 -24 8 -48 19 -109 48 -167 68 -167 56z
m97 -42 c57 -26 57 -26 28 -32 -16 -3 -30 -12 -31 -18 -1 -7 -2 -25 -3 -40
l-1 -28 -21 25 c-14 18 -19 35 -15 63 2 20 0 37 -5 37 -5 0 -9 -8 -10 -17 0
-15 -2 -15 -9 2 -19 44 -12 45 67 8z m138 -60 c11 -7 14 -13 7 -13 -8 0 -20
-7 -29 -15 -8 -9 -18 -14 -20 -11 -3 3 2 12 11 21 19 20 20 26 4 24 -25 -3
-36 1 -41 16 -5 12 -2 12 21 3 15 -7 36 -18 47 -25z m-75 7 c0 -5 -12 -10 -26
-10 l-26 0 23 -20 c21 -17 22 -21 9 -30 -12 -7 -16 -4 -19 13 -4 21 -4 21 -10
-3 -4 -14 -15 -26 -24 -26 -13 -2 -13 -1 -2 3 8 2 15 15 15 28 0 39 11 55 36
55 13 0 24 -4 24 -10z m138 -28 c8 -5 -7 -14 -41 -25 -73 -23 -79 -21 -32 8
43 27 53 29 73 17z m-188 -82 c0 -11 -2 -20 -4 -20 -2 0 -6 9 -9 20 -3 11 -1
20 4 20 5 0 9 -9 9 -20z m58 5 c5 -4 -22 -95 -29 -95 -9 0 -19 39 -19 78 0 30
2 33 23 26 12 -3 23 -8 25 -9z"/>
<path d="M307 2433 c-3 -16 -1 -32 4 -37 5 -6 9 2 9 21 0 25 5 33 23 36 20 4
19 4 -4 6 -22 1 -28 -4 -32 -26z"/>
<path d="M2265 2496 c-114 -43 -255 -107 -255 -116 0 -4 25 -13 55 -20 30 -7
55 -16 55 -20 0 -4 -416 -424 -465 -468 -1 -2 -32 17 -68 41 -93 64 -164 88
-273 94 -136 8 -247 -24 -345 -100 l-47 -35 -46 47 c-26 26 -43 51 -39 56 5 4
3 5 -3 2 -6 -3 -91 75 -189 173 -151 152 -181 178 -194 168 -9 -7 -17 -13 -18
-13 -6 -3 448 -450 459 -454 7 -2 -8 19 -35 46 -61 63 -53 73 12 14 l49 -45
-37 -42 c-49 -56 -87 -127 -106 -199 -17 -68 -19 -199 -4 -265 12 -54 61 -152
100 -201 27 -35 28 -37 10 -53 -9 -9 -21 -13 -24 -9 -4 3 -7 0 -7 -8 0 -18
-51 -69 -69 -69 -7 0 -10 -4 -7 -8 3 -5 -35 -48 -84 -97 -77 -77 -91 -87 -105
-75 -12 10 -21 10 -38 2 -12 -6 -29 -13 -37 -16 -8 -3 2 -4 22 -1 26 4 46 1
63 -11 24 -15 24 -17 8 -29 -10 -8 -14 -17 -10 -22 5 -4 13 0 18 9 9 16 49 14
49 -3 0 -5 5 -9 11 -9 19 0 3 24 -19 30 -19 4 -1 25 127 154 l149 148 44 -29
c199 -137 442 -137 621 1 47 36 50 37 68 20 10 -9 16 -21 13 -26 -3 -4 -2 -7
3 -6 13 5 69 -44 56 -49 -17 -6 -57 -43 -52 -48 3 -2 18 7 33 20 16 14 33 22
38 19 6 -4 5 -10 -3 -16 -11 -7 -10 -8 3 -6 10 2 51 -31 102 -81 48 -46 89
-82 92 -78 3 3 -4 15 -16 27 -12 12 -19 24 -16 27 6 7 31 -17 38 -37 3 -10 6
-11 12 -2 4 7 -28 46 -88 104 -94 89 -109 112 -83 121 6 2 8 8 4 13 -5 5 -13
1 -19 -10 -9 -16 -15 -13 -62 33 l-52 51 -35 -30 c-20 -16 -40 -26 -44 -22 -5
4 -5 1 -1 -5 4 -8 2 -13 -6 -14 -29 -3 -33 -4 -36 -14 -4 -15 -69 -46 -127
-61 -76 -21 -211 -18 -288 6 -183 57 -321 221 -349 418 -10 71 -10 95 4 161
17 85 56 172 97 222 l27 32 32 -32 c18 -18 32 -37 32 -43 0 -6 2 -9 5 -6 3 3
21 -9 39 -27 l34 -31 -24 -70 c-38 -112 -28 -235 28 -335 l21 -37 -34 -30
c-45 -40 -51 -31 -9 13 19 19 30 35 24 35 -12 0 -134 -122 -134 -135 0 -5 15
6 33 23 18 18 36 30 40 26 3 -3 -7 -17 -24 -31 -16 -14 -29 -30 -29 -36 0 -6
15 3 33 21 26 25 36 29 45 20 8 -8 12 -9 12 -1 0 6 -5 13 -10 15 -6 2 4 18 23
36 l33 32 53 -51 c29 -28 83 -65 119 -82 62 -30 75 -32 172 -32 100 0 109 2
175 35 39 19 74 35 80 35 17 0 83 106 105 168 30 86 36 204 16 290 -19 79 -44
133 -96 203 l-38 51 191 191 c106 106 197 192 202 192 5 0 -78 -88 -185 -195
-107 -107 -192 -197 -188 -200 3 -3 27 17 54 45 28 29 55 48 63 45 8 -3 11 0
8 9 -4 9 56 75 171 187 97 95 171 174 164 177 -7 2 -12 8 -12 13 0 6 4 8 9 5
9 -6 21 15 28 48 3 15 1 16 -11 7 -11 -9 -17 -8 -29 4 -9 8 -20 15 -26 15 -6
0 -11 4 -11 9 0 12 30 8 38 -5 4 -6 21 -10 39 -9 30 1 31 0 16 -17 -9 -10 -11
-18 -6 -18 6 0 17 7 24 16 12 15 14 14 19 -7 5 -18 12 -24 31 -22 17 1 18 0 5
-4 -12 -3 -15 -7 -7 -12 8 -5 7 -12 -4 -27 -14 -18 -14 -18 -15 7 0 40 -19 51
-50 29 l-26 -19 20 -65 c11 -36 24 -66 27 -66 8 0 70 136 115 248 19 49 27 82
21 81 -7 0 -39 -11 -72 -23z m50 -27 c-15 -32 -16 -33 -12 -6 3 21 1 25 -6 18
-6 -6 -11 -28 -11 -49 1 -34 1 -34 -3 -4 -4 27 -8 32 -30 32 -15 0 -23 3 -19
7 8 8 89 41 94 38 1 -1 -5 -17 -13 -36z m-52 -26 c11 -7 8 -83 -4 -83 -7 0
-10 15 -7 40 3 38 2 40 -24 40 -16 0 -28 5 -28 10 0 9 42 5 63 -7z m-93 -12
c-7 -13 -16 -17 -31 -14 -20 6 -20 7 7 19 16 7 30 13 32 13 1 1 -2 -8 -8 -18z
m67 -38 c0 -27 -1 -30 -4 -10 -3 21 -10 27 -29 27 -13 0 -24 5 -24 10 0 6 13
10 28 10 25 0 28 -3 29 -37z m-121 -18 c43 -30 39 -31 -33 -8 -42 13 -50 19
-36 24 27 11 29 11 69 -16z m101 -134 l-14 -32 -12 42 c-7 22 -15 47 -17 54
-4 8 3 15 18 17 31 4 43 -37 25 -81z m-1737 56 c0 -8 11 -20 25 -27 14 -7 23
-15 22 -17 -2 -2 62 -69 143 -148 81 -80 144 -147 141 -149 -8 -5 -343 325
-349 343 -2 6 1 11 7 11 6 0 11 -6 11 -13z m1623 -27 c-15 -16 -31 -26 -36
-23 -6 3 -3 11 6 18 9 7 13 16 9 20 -4 5 -2 5 4 2 7 -4 15 0 18 9 3 8 10 12
16 9 6 -4 -1 -18 -17 -35z m-662 -298 c81 -29 121 -51 113 -64 -5 -7 -2 -9 7
-6 8 3 30 -8 49 -24 l35 -29 -60 28 c-54 25 -71 28 -165 28 -98 0 -110 -2
-173 -32 -42 -20 -88 -53 -124 -88 l-56 -56 -29 27 c-15 16 -26 35 -23 42 3 9
0 12 -9 9 -7 -3 -27 8 -42 25 l-29 30 30 24 c47 39 142 85 209 100 77 17 193
11 267 -14z m125 -103 c29 -11 54 -24 54 -27 0 -4 -73 -80 -162 -169 l-163
-162 -108 106 -108 106 56 54 c118 115 278 149 431 92z m-452 -198 l178 -179
170 166 c93 92 175 169 181 170 7 2 -70 -78 -169 -178 l-181 -181 -103 105
c-57 58 -108 106 -114 106 -6 0 34 -45 89 -100 l100 -101 -100 -94 c-54 -52
-100 -95 -101 -95 -7 0 -35 90 -44 142 -9 51 -8 78 4 137 9 41 22 84 31 97 14
22 21 54 9 42 -6 -7 -144 121 -144 134 0 20 27 -4 194 -171z m624 46 c40 -80
51 -134 52 -232 0 -124 -37 -233 -103 -303 l-31 -32 -166 165 -166 165 170
170 171 169 21 -20 c12 -11 36 -48 52 -82z m-458 -254 c0 -3 -44 -48 -97 -99
-54 -51 -95 -95 -93 -98 3 -2 50 38 104 91 l99 95 158 -158 c87 -87 161 -156
163 -153 3 3 -66 77 -154 164 -88 87 -157 161 -155 164 3 3 80 -69 171 -159
l165 -165 -50 -23 c-162 -74 -351 -36 -471 95 l-51 56 98 99 c90 90 113 109
113 91z m488 -446 c0 -5 18 -22 38 -38 42 -33 104 -95 104 -104 0 -9 -28 -5
-32 5 -5 15 -210 220 -220 220 -5 0 -6 5 -3 10 6 10 110 -76 113 -93z m-958
-24 c-63 -65 -116 -119 -117 -122 -2 -2 -6 -1 -10 2 -7 8 217 237 232 237 5 0
-42 -53 -105 -117z m-168 -175 c-6 -6 -15 -7 -22 -3 -8 5 -6 11 7 20 20 15 32
0 15 -17z"/>
<path d="M1260 1950 c-13 -8 -12 -10 3 -10 9 0 17 5 17 10 0 12 -1 12 -20 0z"/>
<path d="M1300 1950 c0 -5 4 -10 9 -10 6 0 13 5 16 10 3 6 -1 10 -9 10 -9 0
-16 -4 -16 -10z"/>
<path d="M1348 1953 c7 -3 16 -2 19 1 4 3 -2 6 -13 5 -11 0 -14 -3 -6 -6z"/>
<path d="M1385 1950 c3 -5 10 -10 16 -10 5 0 9 5 9 10 0 6 -7 10 -16 10 -8 0
-12 -4 -9 -10z"/>
<path d="M1220 1940 c-13 -8 -12 -10 3 -10 9 0 17 5 17 10 0 12 -1 12 -20 0z"/>
<path d="M1438 1943 c7 -3 16 -2 19 1 4 3 -2 6 -13 5 -11 0 -14 -3 -6 -6z"/>
<path d="M1478 1933 c7 -3 16 -2 19 1 4 3 -2 6 -13 5 -11 0 -14 -3 -6 -6z"/>
<path d="M1170 1920 c0 -5 4 -10 9 -10 6 0 13 5 16 10 3 6 -1 10 -9 10 -9 0
-16 -4 -16 -10z"/>
<path d="M1515 1920 c3 -5 11 -10 16 -10 6 0 7 5 4 10 -3 6 -11 10 -16 10 -6
0 -7 -4 -4 -10z"/>
<path d="M1140 1910 c-8 -5 -12 -11 -9 -14 2 -3 11 -1 19 4 8 5 12 11 9 14 -2
3 -11 1 -19 -4z"/>
<path d="M1100 1885 c-8 -9 -8 -15 -2 -15 12 0 26 19 19 26 -2 2 -10 -2 -17
-11z"/>
<path d="M1067 1863 c-4 -3 -7 -11 -7 -17 0 -6 5 -5 12 2 6 6 9 14 7 17 -3 3
-9 2 -12 -2z"/>
<path d="M1025 1830 c-3 -5 -2 -10 4 -10 5 0 13 5 16 10 3 6 2 10 -4 10 -5 0
-13 -4 -16 -10z"/>
<path d="M1275 1589 c-3 -4 2 -6 10 -5 21 3 28 13 10 13 -9 0 -18 -4 -20 -8z"/>
<path d="M1286 1368 c3 -4 11 -5 19 -1 21 7 19 12 -4 10 -11 0 -18 -5 -15 -9z"/>
<path d="M1140 1246 c0 -2 8 -10 18 -17 15 -13 16 -12 3 4 -13 16 -21 21 -21
13z"/>
<path d="M1264 2451 c-12 -21 -29 -33 -51 -37 -38 -7 -41 -14 -12 -40 16 -14
20 -28 17 -56 -4 -41 3 -45 42 -24 21 12 29 12 52 0 38 -20 41 -18 35 20 -4
24 -1 39 9 47 24 20 16 27 -29 24 -43 -2 -43 -1 -39 28 4 24 6 27 14 13 5 -9
7 -19 5 -24 -3 -4 15 -7 39 -7 24 0 44 3 44 7 0 5 -10 8 -23 8 -26 0 -47 14
-70 48 l-15 24 -18 -31z m22 -8 c-2 -10 -8 -33 -11 -52 -6 -29 -5 -33 10 -27
38 14 70 19 60 8 -5 -6 -19 -12 -30 -14 -11 -1 -28 -15 -37 -30 -22 -34 -51
-38 -46 -6 2 12 10 24 18 26 13 5 13 3 1 -12 -8 -9 -11 -19 -8 -22 3 -3 10 4
16 15 10 18 7 22 -24 35 -19 8 -35 19 -35 24 0 14 47 21 60 8 8 -8 9 -7 5 6
-4 9 -2 26 5 37 13 26 23 27 16 4z m47 -113 c3 -11 1 -22 -3 -25 -14 -9 -40 6
-40 23 0 13 4 12 23 -4 12 -10 16 -12 10 -4 -15 16 -17 30 -4 30 5 0 11 -9 14
-20z"/>
<path d="M1230 2380 c20 -13 33 -13 25 0 -3 6 -14 10 -23 10 -15 0 -15 -2 -2
-10z"/>
<path d="M1249 2243 c-13 -16 -12 -17 4 -4 9 7 17 15 17 17 0 8 -8 3 -21 -13z"/>
<path d="M1180 2170 c0 -5 5 -10 10 -10 6 0 10 5 10 10 0 6 -4 10 -10 10 -5 0
-10 -4 -10 -10z"/>
<path d="M1345 2170 c3 -5 8 -10 11 -10 2 0 4 5 4 10 0 6 -5 10 -11 10 -5 0
-7 -4 -4 -10z"/>
<path d="M1385 2170 c-3 -5 -1 -10 4 -10 6 0 11 5 11 10 0 6 -2 10 -4 10 -3 0
-8 -4 -11 -10z"/>
<path d="M1420 2160 c0 -5 5 -10 10 -10 6 0 10 5 10 10 0 6 -4 10 -10 10 -5 0
-10 -4 -10 -10z"/>
<path d="M1245 2150 c-3 -5 -1 -10 4 -10 6 0 11 5 11 10 0 6 -2 10 -4 10 -3 0
-8 -4 -11 -10z"/>
<path d="M1275 2150 c-3 -5 -1 -10 4 -10 6 0 11 5 11 10 0 6 -2 10 -4 10 -3 0
-8 -4 -11 -10z"/>
<path d="M1305 2150 c-3 -5 -1 -10 4 -10 6 0 11 5 11 10 0 6 -2 10 -4 10 -3 0
-8 -4 -11 -10z"/>
<path d="M1460 2150 c0 -5 5 -10 10 -10 6 0 10 5 10 10 0 6 -4 10 -10 10 -5 0
-10 -4 -10 -10z"/>
<path d="M1160 2140 c0 -5 5 -10 11 -10 5 0 7 5 4 10 -3 6 -8 10 -11 10 -2 0
-4 -4 -4 -10z"/>
<path d="M1390 2140 c0 -5 5 -10 11 -10 5 0 7 5 4 10 -3 6 -8 10 -11 10 -2 0
-4 -4 -4 -10z"/>
<path d="M1500 2140 c0 -5 5 -10 11 -10 5 0 7 5 4 10 -3 6 -8 10 -11 10 -2 0
-4 -4 -4 -10z"/>
<path d="M1030 2129 c0 -5 5 -7 10 -4 6 3 10 8 10 11 0 2 -4 4 -10 4 -5 0 -10
-5 -10 -11z"/>
<path d="M1130 2129 c0 -5 5 -7 10 -4 6 3 10 8 10 11 0 2 -4 4 -10 4 -5 0 -10
-5 -10 -11z"/>
<path d="M995 2120 c-3 -5 -1 -10 4 -10 6 0 11 5 11 10 0 6 -2 10 -4 10 -3 0
-8 -4 -11 -10z"/>
<path d="M1075 2120 c-3 -5 -1 -10 4 -10 6 0 11 5 11 10 0 6 -2 10 -4 10 -3 0
-8 -4 -11 -10z"/>
<path d="M1470 2120 c0 -5 5 -10 10 -10 6 0 10 5 10 10 0 6 -4 10 -10 10 -5 0
-10 -4 -10 -10z"/>
<path d="M1500 2110 c0 -5 5 -10 10 -10 6 0 10 5 10 10 0 6 -4 10 -10 10 -5 0
-10 -4 -10 -10z"/>
<path d="M1562 2100 c-7 -11 -10 -20 -6 -20 7 0 34 27 34 34 0 13 -16 5 -28
-14z"/>
<path d="M1020 2100 c0 -5 5 -10 11 -10 5 0 7 5 4 10 -3 6 -8 10 -11 10 -2 0
-4 -4 -4 -10z"/>
<path d="M920 2084 c0 -10 31 -36 37 -31 3 3 -2 13 -10 22 -16 15 -27 19 -27
9z"/>
<path d="M1230 2070 c0 -5 5 -10 10 -10 6 0 10 5 10 10 0 6 -4 10 -10 10 -5 0
-10 -4 -10 -10z"/>
<path d="M1300 2070 c0 -5 5 -10 10 -10 6 0 10 5 10 10 0 6 -4 10 -10 10 -5 0
-10 -4 -10 -10z"/>
<path d="M1330 2070 c0 -5 5 -10 10 -10 6 0 10 5 10 10 0 6 -4 10 -10 10 -5 0
-10 -4 -10 -10z"/>
<path d="M1596 2066 c10 -8 21 -12 24 -10 5 6 -21 24 -34 24 -6 0 -1 -6 10
-14z"/>
<path d="M1640 2070 c0 -5 5 -10 10 -10 6 0 10 5 10 10 0 6 -4 10 -10 10 -5 0
-10 -4 -10 -10z"/>
<path d="M1769 2063 c-13 -16 -12 -17 4 -4 9 7 17 15 17 17 0 8 -8 3 -21 -13z"/>
<path d="M890 2060 c0 -5 5 -10 10 -10 6 0 10 5 10 10 0 6 -4 10 -10 10 -5 0
-10 -4 -10 -10z"/>
<path d="M1400 2060 c0 -5 5 -10 11 -10 5 0 7 5 4 10 -3 6 -8 10 -11 10 -2 0
-4 -4 -4 -10z"/>
<path d="M1130 2050 c0 -5 5 -10 10 -10 6 0 10 5 10 10 0 6 -4 10 -10 10 -5 0
-10 -4 -10 -10z"/>
<path d="M1430 2050 c0 -5 5 -10 10 -10 6 0 10 5 10 10 0 6 -4 10 -10 10 -5 0
-10 -4 -10 -10z"/>
<path d="M1670 2049 c0 -6 -9 -8 -22 -3 -21 6 -21 6 -5 -10 15 -16 19 -16 32
-2 17 17 19 26 5 26 -5 0 -10 -5 -10 -11z"/>
<path d="M1460 2040 c0 -5 5 -10 10 -10 6 0 10 5 10 10 0 6 -4 10 -10 10 -5 0
-10 -4 -10 -10z"/>
<path d="M886 2024 c-11 -7 -17 -17 -13 -20 3 -4 14 1 23 10 21 22 15 28 -10
10z"/>
<path d="M1495 2030 c-3 -5 -1 -10 4 -10 6 0 11 5 11 10 0 6 -2 10 -4 10 -3 0
-8 -4 -11 -10z"/>
<path d="M1585 1980 c3 -5 8 -10 11 -10 2 0 4 5 4 10 0 6 -5 10 -11 10 -5 0
-7 -4 -4 -10z"/>
<path d="M950 1969 c0 -5 5 -7 10 -4 6 3 10 8 10 11 0 2 -4 4 -10 4 -5 0 -10
-5 -10 -11z"/>
<path d="M1610 1960 c0 -5 5 -10 10 -10 6 0 10 5 10 10 0 6 -4 10 -10 10 -5 0
-10 -4 -10 -10z"/>
<path d="M920 1950 c0 -5 5 -10 10 -10 6 0 10 5 10 10 0 6 -4 10 -10 10 -5 0
-10 -4 -10 -10z"/>
<path d="M1640 1940 c0 -5 5 -10 10 -10 6 0 10 5 10 10 0 6 -4 10 -10 10 -5 0
-10 -4 -10 -10z"/>
<path d="M1791 1903 c32 -41 36 -42 36 -12 0 21 -3 26 -9 17 -8 -10 -11 -10
-15 0 -2 6 -9 12 -15 12 -6 0 -5 -8 3 -17z"/>
<path d="M720 1889 c0 -5 5 -7 10 -4 6 3 10 8 10 11 0 2 -4 4 -10 4 -5 0 -10
-5 -10 -11z"/>
<path d="M1840 1880 c0 -5 5 -10 10 -10 6 0 10 5 10 10 0 6 -4 10 -10 10 -5 0
-10 -4 -10 -10z"/>
<path d="M825 1860 c-3 -5 -1 -10 4 -10 6 0 11 5 11 10 0 6 -2 10 -4 10 -3 0
-8 -4 -11 -10z"/>
<path d="M1735 1850 c-3 -5 -1 -10 4 -10 6 0 11 5 11 10 0 6 -2 10 -4 10 -3 0
-8 -4 -11 -10z"/>
<path d="M1842 1830 c7 -10 14 -18 15 -16 6 6 -9 36 -18 36 -5 0 -4 -9 3 -20z"/>
<path d="M675 1830 c-3 -5 -1 -10 4 -10 6 0 11 5 11 10 0 6 -2 10 -4 10 -3 0
-8 -4 -11 -10z"/>
<path d="M800 1830 c0 -5 5 -10 10 -10 6 0 10 5 10 10 0 6 -4 10 -10 10 -5 0
-10 -4 -10 -10z"/>
<path d="M1750 1820 c0 -5 5 -10 10 -10 6 0 10 5 10 10 0 6 -4 10 -10 10 -5 0
-10 -4 -10 -10z"/>
<path d="M1885 1810 c3 -5 8 -10 11 -10 2 0 4 5 4 10 0 6 -5 10 -11 10 -5 0
-7 -4 -4 -10z"/>
<path d="M1770 1790 c0 -5 5 -10 10 -10 6 0 10 5 10 10 0 6 -4 10 -10 10 -5 0
-10 -4 -10 -10z"/>
<path d="M1869 1787 c6 -8 8 -17 4 -20 -3 -4 -1 -7 5 -7 14 0 14 2 6 24 -3 9
-11 16 -16 16 -7 0 -6 -5 1 -13z"/>
<path d="M1900 1780 c0 -5 5 -10 11 -10 5 0 7 5 4 10 -3 6 -8 10 -11 10 -2 0
-4 -4 -4 -10z"/>
<path d="M640 1764 c0 -7 27 -34 34 -34 13 0 5 16 -14 28 -11 7 -20 10 -20 6z"/>
<path d="M1790 1760 c0 -5 5 -10 10 -10 6 0 10 5 10 10 0 6 -4 10 -10 10 -5 0
-10 -4 -10 -10z"/>
<path d="M945 1729 c-11 -17 1 -21 15 -4 8 9 8 15 2 15 -6 0 -14 -5 -17 -11z"/>
<path d="M1805 1730 c3 -5 8 -10 11 -10 2 0 4 5 4 10 0 6 -5 10 -11 10 -5 0
-7 -4 -4 -10z"/>
<path d="M625 1720 c-3 -5 -1 -10 4 -10 6 0 11 5 11 10 0 6 -2 10 -4 10 -3 0
-8 -4 -11 -10z"/>
<path d="M650 1710 c0 -5 5 -10 10 -10 6 0 10 5 10 10 0 6 -4 10 -10 10 -5 0
-10 -4 -10 -10z"/>
<path d="M1930 1700 c0 -5 5 -10 10 -10 6 0 10 5 10 10 0 6 -4 10 -10 10 -5 0
-10 -4 -10 -10z"/>
<path d="M925 1690 c-3 -5 -1 -10 4 -10 6 0 11 5 11 10 0 6 -2 10 -4 10 -3 0
-8 -4 -11 -10z"/>
<path d="M610 1680 c0 -5 5 -10 10 -10 6 0 10 5 10 10 0 6 -4 10 -10 10 -5 0
-10 -4 -10 -10z"/>
<path d="M725 1680 c3 -5 8 -10 11 -10 2 0 4 5 4 10 0 6 -5 10 -11 10 -5 0 -7
-4 -4 -10z"/>
<path d="M1830 1670 c0 -5 5 -10 11 -10 5 0 7 5 4 10 -3 6 -8 10 -11 10 -2 0
-4 -4 -4 -10z"/>
<path d="M635 1660 c-3 -5 -1 -10 4 -10 6 0 11 5 11 10 0 6 -2 10 -4 10 -3 0
-8 -4 -11 -10z"/>
<path d="M1910 1660 c0 -5 5 -10 10 -10 6 0 10 5 10 10 0 6 -4 10 -10 10 -5 0
-10 -4 -10 -10z"/>
<path d="M715 1650 c3 -5 8 -10 11 -10 2 0 4 5 4 10 0 6 -5 10 -11 10 -5 0 -7
-4 -4 -10z"/>
<path d="M910 1645 c0 -8 2 -15 4 -15 2 0 6 7 10 15 3 8 1 15 -4 15 -6 0 -10
-7 -10 -15z"/>
<path d="M600 1639 c0 -5 5 -7 10 -4 6 3 10 8 10 11 0 2 -4 4 -10 4 -5 0 -10
-5 -10 -11z"/>
<path d="M1840 1640 c0 -5 5 -10 11 -10 5 0 7 5 4 10 -3 6 -8 10 -11 10 -2 0
-4 -4 -4 -10z"/>
<path d="M1920 1630 c0 -5 5 -10 10 -10 6 0 10 5 10 10 0 6 -4 10 -10 10 -5 0
-10 -4 -10 -10z"/>
<path d="M896 1611 c-4 -7 -5 -15 -2 -18 9 -9 19 4 14 18 -4 11 -6 11 -12 0z"/>
<path d="M620 1600 c0 -5 5 -10 10 -10 6 0 10 5 10 10 0 6 -4 10 -10 10 -5 0
-10 -4 -10 -10z"/>
<path d="M700 1590 c0 -5 5 -10 11 -10 5 0 7 5 4 10 -3 6 -8 10 -11 10 -2 0
-4 -4 -4 -10z"/>
<path d="M886 1565 c-3 -8 -1 -15 4 -15 6 0 10 7 10 15 0 8 -2 15 -4 15 -2 0
-6 -7 -10 -15z"/>
<path d="M1850 1570 c0 -5 5 -10 10 -10 6 0 10 5 10 10 0 6 -4 10 -10 10 -5 0
-10 -4 -10 -10z"/>
<path d="M690 1550 c0 -5 5 -10 10 -10 6 0 10 5 10 10 0 6 -4 10 -10 10 -5 0
-10 -4 -10 -10z"/>
<path d="M1960 1550 c0 -5 5 -10 10 -10 6 0 10 5 10 10 0 6 -4 10 -10 10 -5 0
-10 -4 -10 -10z"/>
<path d="M880 1525 c0 -8 5 -15 10 -15 6 0 10 7 10 15 0 8 -4 15 -10 15 -5 0
-10 -7 -10 -15z"/>
<path d="M690 1520 c0 -5 5 -10 10 -10 6 0 10 5 10 10 0 6 -4 10 -10 10 -5 0
-10 -4 -10 -10z"/>
<path d="M1965 1510 c-3 -5 -1 -10 4 -10 6 0 11 5 11 10 0 6 -2 10 -4 10 -3 0
-8 -4 -11 -10z"/>
<path d="M880 1475 c0 -8 5 -15 10 -15 6 0 10 7 10 15 0 8 -4 15 -10 15 -5 0
-10 -7 -10 -15z"/>
<path d="M1965 1470 c-3 -5 -1 -10 4 -10 6 0 11 5 11 10 0 6 -2 10 -4 10 -3 0
-8 -4 -11 -10z"/>
<path d="M690 1450 c0 -5 5 -10 10 -10 6 0 10 5 10 10 0 6 -4 10 -10 10 -5 0
-10 -4 -10 -10z"/>
<path d="M880 1435 c0 -8 5 -15 10 -15 6 0 10 7 10 15 0 8 -4 15 -10 15 -5 0
-10 -7 -10 -15z"/>
<path d="M615 1430 c-3 -5 -1 -10 4 -10 6 0 11 5 11 10 0 6 -2 10 -4 10 -3 0
-8 -4 -11 -10z"/>
<path d="M1960 1430 c0 -5 5 -10 10 -10 6 0 10 5 10 10 0 6 -4 10 -10 10 -5 0
-10 -4 -10 -10z"/>
<path d="M695 1420 c3 -5 8 -10 11 -10 2 0 4 5 4 10 0 6 -5 10 -11 10 -5 0 -7
-4 -4 -10z"/>
<path d="M890 1395 c0 -8 4 -15 10 -15 5 0 7 7 4 15 -4 8 -8 15 -10 15 -2 0
-4 -7 -4 -15z"/>
<path d="M1855 1400 c3 -5 8 -10 11 -10 2 0 4 5 4 10 0 6 -5 10 -11 10 -5 0
-7 -4 -4 -10z"/>
<path d="M1930 1400 c0 -5 5 -10 10 -10 6 0 10 5 10 10 0 6 -4 10 -10 10 -5 0
-10 -4 -10 -10z"/>
<path d="M595 1370 c-3 -5 -1 -10 4 -10 6 0 11 5 11 10 0 6 -2 10 -4 10 -3 0
-8 -4 -11 -10z"/>
<path d="M620 1370 c0 -5 5 -10 10 -10 6 0 10 5 10 10 0 6 -4 10 -10 10 -5 0
-10 -4 -10 -10z"/>
<path d="M900 1351 c0 -5 5 -13 10 -16 6 -3 10 -2 10 4 0 5 -4 13 -10 16 -5 3
-10 2 -10 -4z"/>
<path d="M1950 1350 c0 -5 5 -10 10 -10 6 0 10 5 10 10 0 6 -4 10 -10 10 -5 0
-10 -4 -10 -10z"/>
<path d="M1840 1340 c0 -5 5 -10 10 -10 6 0 10 5 10 10 0 6 -4 10 -10 10 -5 0
-10 -4 -10 -10z"/>
<path d="M600 1330 c0 -5 5 -10 10 -10 6 0 10 5 10 10 0 6 -4 10 -10 10 -5 0
-10 -4 -10 -10z"/>
<path d="M715 1320 c-3 -5 -1 -10 4 -10 6 0 11 5 11 10 0 6 -2 10 -4 10 -3 0
-8 -4 -11 -10z"/>
<path d="M916 1305 c4 -8 10 -15 15 -15 4 0 6 7 3 15 -4 8 -10 15 -15 15 -4 0
-6 -7 -3 -15z"/>
<path d="M1940 1310 c0 -5 5 -10 10 -10 6 0 10 5 10 10 0 6 -4 10 -10 10 -5 0
-10 -4 -10 -10z"/>
<path d="M610 1290 c0 -5 5 -10 10 -10 6 0 10 5 10 10 0 6 -4 10 -10 10 -5 0
-10 -4 -10 -10z"/>
<path d="M936 1265 c4 -8 8 -15 10 -15 2 0 4 7 4 15 0 8 -4 15 -10 15 -5 0 -7
-7 -4 -15z"/>
<path d="M1820 1269 c0 -5 5 -7 10 -4 6 3 10 8 10 11 0 2 -4 4 -10 4 -5 0 -10
-5 -10 -11z"/>
<path d="M1930 1270 c0 -5 5 -10 10 -10 6 0 10 5 10 10 0 6 -4 10 -10 10 -5 0
-10 -4 -10 -10z"/>
<path d="M650 1260 c0 -5 5 -10 10 -10 6 0 10 5 10 10 0 6 -4 10 -10 10 -5 0
-10 -4 -10 -10z"/>
<path d="M653 1226 c-16 -19 -4 -29 13 -11 8 7 14 16 14 19 0 10 -15 6 -27 -8z"/>
<path d="M723 1225 c0 -8 4 -12 9 -9 5 3 6 10 3 15 -9 13 -12 11 -12 -6z"/>
<path d="M955 1230 c3 -5 11 -10 16 -10 6 0 7 5 4 10 -3 6 -11 10 -16 10 -6 0
-7 -4 -4 -10z"/>
<path d="M1790 1209 c0 -5 5 -7 10 -4 6 3 10 8 10 11 0 2 -4 4 -10 4 -5 0 -10
-5 -10 -11z"/>
<path d="M1900 1200 c0 -5 5 -10 10 -10 6 0 10 5 10 10 0 6 -4 10 -10 10 -5 0
-10 -4 -10 -10z"/>
<path d="M1775 1180 c3 -5 8 -10 11 -10 2 0 4 5 4 10 0 6 -5 10 -11 10 -5 0
-7 -4 -4 -10z"/>
<path d="M1856 1174 c-8 -21 -8 -24 5 -24 5 0 7 5 4 10 -9 14 8 13 23 -2 7 -7
12 -9 12 -4 0 8 -26 36 -33 36 -3 0 -8 -7 -11 -16z"/>
<path d="M805 1140 c3 -5 8 -10 11 -10 2 0 4 5 4 10 0 6 -5 10 -11 10 -5 0 -7
-4 -4 -10z"/>
<path d="M1040 1142 c0 -4 14 -18 30 -30 17 -13 30 -19 30 -14 0 4 -13 18 -30
30 -16 13 -30 19 -30 14z"/>
<path d="M1835 1130 c3 -5 8 -10 11 -10 2 0 4 5 4 10 0 6 -5 10 -11 10 -5 0
-7 -4 -4 -10z"/>
<path d="M1865 1130 c-3 -5 -1 -10 4 -10 6 0 11 5 11 10 0 6 -2 10 -4 10 -3 0
-8 -4 -11 -10z"/>
<path d="M720 1080 c0 -5 5 -10 11 -10 5 0 7 5 4 10 -3 6 -8 10 -11 10 -2 0
-4 -4 -4 -10z"/>
<path d="M750 1079 c0 -5 5 -7 10 -4 6 3 10 8 10 11 0 2 -4 4 -10 4 -5 0 -10
-5 -10 -11z"/>
<path d="M1115 1080 c3 -5 11 -10 16 -10 6 0 7 5 4 10 -3 6 -11 10 -16 10 -6
0 -7 -4 -4 -10z"/>
<path d="M770 1066 c0 -4 7 -14 15 -22 8 -9 15 -11 15 -6 0 5 -7 15 -15 22 -8
7 -15 9 -15 6z"/>
<path d="M1155 1060 c3 -5 11 -10 16 -10 6 0 7 5 4 10 -3 6 -11 10 -16 10 -6
0 -7 -4 -4 -10z"/>
<path d="M1820 1059 c0 -5 5 -7 10 -4 6 3 10 8 10 11 0 2 -4 4 -10 4 -5 0 -10
-5 -10 -11z"/>
<path d="M1190 1050 c0 -6 7 -10 15 -10 8 0 15 2 15 4 0 2 -7 6 -15 10 -8 3
-15 1 -15 -4z"/>
<path d="M1500 1050 c-13 -8 -12 -10 3 -10 9 0 17 5 17 10 0 12 -1 12 -20 0z"/>
<path d="M1230 1036 c0 -2 7 -6 15 -10 8 -3 15 -1 15 4 0 6 -7 10 -15 10 -8 0
-15 -2 -15 -4z"/>
<path d="M1275 1030 c-3 -5 1 -10 10 -10 9 0 13 5 10 10 -3 6 -8 10 -10 10 -2
0 -7 -4 -10 -10z"/>
<path d="M1410 1030 c-13 -8 -12 -10 3 -10 9 0 17 5 17 10 0 12 -1 12 -20 0z"/>
<path d="M1458 1033 c7 -3 16 -2 19 1 4 3 -2 6 -13 5 -11 0 -14 -3 -6 -6z"/>
<path d="M1640 1030 c0 -5 5 -10 10 -10 6 0 10 5 10 10 0 6 -4 10 -10 10 -5 0
-10 -4 -10 -10z"/>
<path d="M1795 1030 c3 -5 8 -10 11 -10 2 0 4 5 4 10 0 6 -5 10 -11 10 -5 0
-7 -4 -4 -10z"/>
<path d="M920 1020 c0 -5 5 -10 10 -10 6 0 10 5 10 10 0 6 -4 10 -10 10 -5 0
-10 -4 -10 -10z"/>
<path d="M1320 1020 c0 -5 4 -10 9 -10 6 0 13 5 16 10 3 6 -1 10 -9 10 -9 0
-16 -4 -16 -10z"/>
<path d="M1360 1020 c0 -5 4 -10 9 -10 6 0 13 5 16 10 3 6 -1 10 -9 10 -9 0
-16 -4 -16 -10z"/>
<path d="M950 1000 c0 -5 5 -10 10 -10 6 0 10 5 10 10 0 6 -4 10 -10 10 -5 0
-10 -4 -10 -10z"/>
<path d="M850 984 c0 -10 31 -36 37 -31 3 3 -2 13 -10 22 -16 15 -27 19 -27 9z"/>
<path d="M980 979 c0 -5 5 -7 10 -4 6 3 10 8 10 11 0 2 -4 4 -10 4 -5 0 -10
-5 -10 -11z"/>
<path d="M1560 980 c0 -5 5 -10 11 -10 5 0 7 5 4 10 -3 6 -8 10 -11 10 -2 0
-4 -4 -4 -10z"/>
<path d="M1010 970 c0 -5 5 -10 11 -10 5 0 7 5 4 10 -3 6 -8 10 -11 10 -2 0
-4 -4 -4 -10z"/>
<path d="M830 960 c0 -5 5 -10 11 -10 5 0 7 5 4 10 -3 6 -8 10 -11 10 -2 0 -4
-4 -4 -10z"/>
<path d="M1530 959 c0 -5 5 -7 10 -4 6 3 10 8 10 11 0 2 -4 4 -10 4 -5 0 -10
-5 -10 -11z"/>
<path d="M1040 949 c0 -5 5 -7 10 -4 6 3 10 8 10 11 0 2 -4 4 -10 4 -5 0 -10
-5 -10 -11z"/>
<path d="M1710 949 c0 -5 5 -7 10 -4 6 3 10 8 10 11 0 2 -4 4 -10 4 -5 0 -10
-5 -10 -11z"/>
<path d="M1070 940 c0 -5 5 -10 10 -10 6 0 10 5 10 10 0 6 -4 10 -10 10 -5 0
-10 -4 -10 -10z"/>
<path d="M1630 930 c-13 -11 -19 -20 -13 -20 5 0 20 9 33 20 13 11 19 20 13
20 -5 0 -20 -9 -33 -20z"/>
<path d="M920 932 c0 -4 9 -13 20 -20 11 -7 20 -9 20 -4 0 4 -9 13 -20 20 -11
7 -20 9 -20 4z"/>
<path d="M1100 930 c0 -5 5 -10 10 -10 6 0 10 5 10 10 0 6 -4 10 -10 10 -5 0
-10 -4 -10 -10z"/>
<path d="M1130 920 c0 -5 5 -10 10 -10 6 0 10 5 10 10 0 6 -4 10 -10 10 -5 0
-10 -4 -10 -10z"/>
<path d="M1405 920 c-3 -5 -1 -10 4 -10 6 0 11 5 11 10 0 6 -2 10 -4 10 -3 0
-8 -4 -11 -10z"/>
<path d="M890 910 c0 -5 5 -10 10 -10 6 0 10 5 10 10 0 6 -4 10 -10 10 -5 0
-10 -4 -10 -10z"/>
<path d="M1200 910 c0 -5 5 -10 10 -10 6 0 10 5 10 10 0 6 -4 10 -10 10 -5 0
-10 -4 -10 -10z"/>
<path d="M970 900 c0 -5 5 -10 10 -10 6 0 10 5 10 10 0 6 -4 10 -10 10 -5 0
-10 -4 -10 -10z"/>
<path d="M1270 899 c0 -5 5 -7 10 -4 6 3 10 8 10 11 0 2 -4 4 -10 4 -5 0 -10
-5 -10 -11z"/>
<path d="M1300 899 c0 -5 5 -7 10 -4 6 3 10 8 10 11 0 2 -4 4 -10 4 -5 0 -10
-5 -10 -11z"/>
<path d="M1580 900 c0 -5 5 -10 10 -10 6 0 10 5 10 10 0 6 -4 10 -10 10 -5 0
-10 -4 -10 -10z"/>
<path d="M1645 900 c3 -5 8 -10 11 -10 2 0 4 5 4 10 0 6 -5 10 -11 10 -5 0 -7
-4 -4 -10z"/>
<path d="M925 890 c3 -5 8 -10 11 -10 2 0 4 5 4 10 0 6 -5 10 -11 10 -5 0 -7
-4 -4 -10z"/>
<path d="M1715 890 c-3 -6 1 -7 9 -4 18 7 21 14 7 14 -6 0 -13 -4 -16 -10z"/>
<path d="M960 870 c0 -5 5 -10 10 -10 6 0 10 5 10 10 0 6 -4 10 -10 10 -5 0
-10 -4 -10 -10z"/>
<path d="M1105 850 c-3 -5 -1 -10 4 -10 6 0 11 5 11 10 0 6 -2 10 -4 10 -3 0
-8 -4 -11 -10z"/>
<path d="M1540 849 c0 -5 5 -7 10 -4 6 3 10 8 10 11 0 2 -4 4 -10 4 -5 0 -10
-5 -10 -11z"/>
<path d="M1030 840 c0 -5 5 -10 10 -10 6 0 10 5 10 10 0 6 -4 10 -10 10 -5 0
-10 -4 -10 -10z"/>
<path d="M1130 840 c0 -5 5 -10 10 -10 6 0 10 5 10 10 0 6 -4 10 -10 10 -5 0
-10 -4 -10 -10z"/>
<path d="M1420 840 c0 -5 5 -10 10 -10 6 0 10 5 10 10 0 6 -4 10 -10 10 -5 0
-10 -4 -10 -10z"/>
<path d="M1970 820 c-18 -16 -38 -30 -45 -30 -7 0 -15 -7 -19 -15 -7 -19 -5
-19 30 0 28 14 51 4 37 -18 -3 -5 -9 -3 -14 4 -7 12 -11 11 -24 -1 -14 -14
-14 -18 0 -35 16 -20 16 -19 10 3 -4 13 -2 22 4 22 6 0 11 -6 11 -12 0 -9 4
-8 10 2 9 13 10 13 10 0 0 -12 2 -12 9 -2 6 10 10 10 21 -3 11 -13 11 -21 0
-43 -8 -16 -14 -22 -17 -14 -3 7 1 20 8 30 11 14 11 15 0 5 -7 -6 -19 -9 -27
-6 -9 3 -8 -7 5 -41 21 -57 30 -66 29 -29 -1 30 20 79 29 69 3 -3 0 -19 -6
-37 -6 -18 -11 -41 -11 -51 0 -22 48 -70 61 -62 5 3 9 1 9 -5 0 -5 23 -32 50
-59 28 -27 50 -54 50 -59 0 -5 14 -19 30 -32 34 -25 56 -20 40 9 -16 30 -12
32 20 8 16 -12 32 -30 36 -40 3 -10 9 -18 14 -18 13 0 1 32 -17 47 -8 6 -10
14 -4 17 5 3 23 -10 40 -31 17 -20 32 -35 34 -32 11 12 -28 72 -58 90 -30 18
-33 23 -21 35 22 21 29 18 55 -25 23 -37 77 -79 88 -68 2 3 -7 11 -20 19 -21
10 -77 78 -77 92 0 13 31 12 42 -2 11 -13 11 -14 -1 -8 -8 5 -12 5 -9 0 20
-44 33 -64 40 -64 5 0 2 13 -6 29 -9 16 -12 31 -9 34 3 4 0 14 -8 23 -13 16
-12 16 9 5 13 -7 26 -10 29 -7 4 3 -8 11 -25 17 -17 6 -30 14 -29 19 3 13
-181 200 -198 200 -9 0 -12 6 -9 15 5 12 -2 14 -35 11 -59 -5 -60 -12 -2 -26
48 -11 90 -40 60 -40 -11 0 -11 -2 1 -10 9 -5 17 -5 20 1 4 5 17 -3 31 -17 14
-17 18 -25 9 -22 -136 43 -163 55 -171 76 -5 12 -16 22 -26 22 -14 0 -13 3 6
16 14 10 33 14 52 10 16 -3 29 -2 29 3 0 12 -29 23 -41 15 -6 -3 -22 -3 -37 1
-25 7 -25 8 -7 15 19 8 19 9 -2 9 -12 1 -25 6 -28 11 -11 17 -32 11 -65 -20z
m70 6 c0 -2 -9 -6 -20 -9 -11 -3 -20 -1 -20 4 0 5 9 9 20 9 11 0 20 -2 20 -4z
m105 -176 c88 -88 153 -160 145 -160 -15 0 -320 298 -320 312 0 20 26 -3 175
-152z m-75 140 c0 -5 -9 -10 -19 -10 -11 0 -23 5 -26 10 -4 6 5 10 19 10 14 0
26 -4 26 -10z m9 -154 c0 -15 -4 -11 -14 14 -18 48 -18 26 0 -34 8 -27 13 -51
11 -53 -2 -2 -13 8 -25 23 -20 25 -21 44 -4 94 4 12 7 12 19 -4 8 -11 14 -29
13 -40z m109 39 c12 -3 22 -10 22 -15 0 -5 -7 -6 -17 -3 -11 4 -14 3 -9 -5 4
-7 19 -9 36 -6 31 7 81 -18 116 -57 18 -21 18 -22 1 -16 -10 4 -36 7 -57 7
-30 0 -46 7 -74 35 -20 19 -36 39 -36 45 0 5 -6 10 -14 10 -8 0 -18 5 -22 11
-4 7 0 9 12 6 11 -3 29 -8 42 -12z m19 -176 c6 -43 18 -51 26 -17 6 22 7 22
37 -7 16 -16 37 -30 47 -31 9 -2 23 -11 32 -20 15 -17 15 -17 -11 -1 -17 11
-29 13 -33 7 -9 -14 -23 -3 -45 33 l-19 31 3 -47 c1 -25 -2 -43 -7 -40 -5 3
-7 13 -4 23 3 12 -1 17 -11 16 -19 -3 -52 53 -52 88 0 14 -5 28 -12 32 -8 5
-9 -3 -5 -29 4 -28 2 -35 -8 -31 -21 8 -47 54 -41 70 3 8 1 12 -4 9 -5 -3 -9
9 -8 30 l1 36 55 -57 c41 -43 56 -66 59 -95z m135 58 c10 -2 21 -6 24 -10 9
-8 -15 -37 -30 -37 -6 0 -4 5 4 10 13 8 13 10 -2 10 -9 0 -20 -5 -23 -10 -4
-6 -11 -7 -17 -4 -6 4 -5 10 3 15 12 7 11 9 -1 9 -8 0 -24 8 -35 16 -19 15
-18 16 20 10 22 -3 48 -8 57 -9z"/>
<path d="M2223 613 c9 -2 25 -2 35 0 9 3 1 5 -18 5 -19 0 -27 -2 -17 -5z"/>
<path d="M2280 606 c0 -2 7 -7 16 -10 8 -3 12 -2 9 4 -6 10 -25 14 -25 6z"/>
<path d="M2248 593 c7 -3 16 -2 19 1 4 3 -2 6 -13 5 -11 0 -14 -3 -6 -6z"/>
<path d="M2106 612 c-3 -5 1 -9 9 -9 8 0 12 4 9 9 -3 4 -7 8 -9 8 -2 0 -6 -4
-9 -8z"/>
<path d="M2120 575 c0 -8 2 -15 4 -15 2 0 6 7 10 15 3 8 1 15 -4 15 -6 0 -10
-7 -10 -15z"/>
<path d="M2181 524 c0 -11 3 -14 6 -6 3 7 2 16 -1 19 -3 4 -6 -2 -5 -13z"/>
<path d="M1070 830 c0 -5 5 -10 11 -10 5 0 7 5 4 10 -3 6 -8 10 -11 10 -2 0
-4 -4 -4 -10z"/>
<path d="M1190 830 c0 -5 5 -10 10 -10 6 0 10 5 10 10 0 6 -4 10 -10 10 -5 0
-10 -4 -10 -10z"/>
<path d="M1220 830 c0 -5 5 -10 11 -10 5 0 7 5 4 10 -3 6 -8 10 -11 10 -2 0
-4 -4 -4 -10z"/>
<path d="M1335 830 c-3 -5 -1 -10 4 -10 6 0 11 5 11 10 0 6 -2 10 -4 10 -3 0
-8 -4 -11 -10z"/>
<path d="M1360 830 c0 -5 5 -10 10 -10 6 0 10 5 10 10 0 6 -4 10 -10 10 -5 0
-10 -4 -10 -10z"/>
<path d="M1110 820 c0 -5 5 -10 11 -10 5 0 7 5 4 10 -3 6 -8 10 -11 10 -2 0
-4 -4 -4 -10z"/>
<path d="M1460 820 c0 -5 5 -10 10 -10 6 0 10 5 10 10 0 6 -4 10 -10 10 -5 0
-10 -4 -10 -10z"/>
<path d="M536 813 c-3 -4 -25 -7 -48 -7 -23 -1 -43 -6 -45 -12 -3 -10 61 -5
92 7 6 2 11 0 13 -6 2 -5 -7 -13 -20 -17 -20 -5 -21 -6 -3 -8 20 -1 20 -1 0
-10 -13 -5 -25 -3 -35 5 -19 16 -86 13 -82 -3 1 -7 -4 -12 -12 -12 -8 0 -34
-21 -58 -46 -24 -26 -64 -67 -91 -93 -26 -25 -47 -51 -47 -57 0 -6 -14 -17
-30 -24 -17 -7 -29 -15 -26 -17 2 -3 14 1 26 7 16 9 25 9 33 1 23 -23 33 -4
14 26 -6 9 -1 13 15 13 13 0 43 2 68 5 44 6 44 5 20 -9 -14 -9 -33 -15 -42
-16 -10 0 -18 -5 -18 -11 0 -5 -4 -7 -10 -4 -6 3 -10 2 -10 -4 0 -21 -60 -98
-86 -110 -15 -6 -24 -14 -21 -17 12 -12 69 29 92 66 28 45 31 46 51 25 13 -12
11 -16 -16 -30 -28 -15 -69 -80 -57 -92 8 -7 47 54 39 62 -4 5 -1 5 7 0 9 -5
12 -4 7 3 -3 6 -2 14 4 17 6 4 9 1 8 -7 -2 -8 4 -12 16 -10 11 2 15 -1 11 -7
-3 -6 -12 -11 -20 -11 -7 0 -16 -7 -19 -16 -14 -37 -3 -34 35 10 42 48 60 55
39 16 -8 -15 -8 -26 -2 -32 13 -13 168 146 175 181 3 14 9 35 13 45 5 13 4 17
-4 12 -6 -4 -17 -24 -23 -46 -7 -22 -23 -49 -35 -61 l-24 -22 0 46 c0 25 4 48
8 51 5 3 7 -14 6 -37 -2 -29 0 -36 5 -22 5 11 6 26 3 33 -2 7 2 20 9 29 12 14
12 16 0 9 -9 -6 -12 -5 -9 5 3 8 11 14 19 14 23 1 39 15 39 35 0 10 5 22 10
25 7 4 9 -3 5 -22 -5 -21 -4 -24 4 -13 6 8 11 23 11 33 0 9 5 17 10 17 14 0
32 -50 27 -72 -9 -31 1 -19 21 25 18 39 28 106 14 93 -3 -3 -11 -1 -18 5 -10
8 -32 -8 -93 -68 -43 -43 -106 -105 -140 -137 -33 -33 -64 -57 -68 -53 -4 4
62 76 145 160 84 84 150 156 146 160 -9 9 -39 9 -48 0z m-56 -63 c-13 -8 -12
-10 4 -10 15 0 16 -3 7 -14 -11 -13 -53 -29 -161 -61 l-25 -8 25 26 c14 14 27
22 30 19 3 -4 25 -2 50 5 l45 13 -45 -5 c-44 -6 -44 -5 -22 11 24 17 66 32 92
33 13 1 13 0 0 -9z m120 -20 c0 -5 0 -12 0 -15 0 -3 -3 -4 -7 -2 -5 1 -7 6 -5
10 1 5 -2 5 -8 2 -8 -5 -6 -13 5 -25 9 -10 12 -21 7 -24 -12 -7 -36 39 -28 53
9 14 36 14 36 1z m-150 -50 c-8 -5 -23 -10 -32 -10 -9 0 -20 -5 -24 -12 -4 -7
-3 -8 4 -4 24 15 11 -11 -20 -41 -26 -25 -43 -32 -84 -35 -47 -3 -50 -2 -40
15 18 29 74 60 101 55 13 -3 22 -2 20 2 -9 15 32 36 75 39 13 1 13 0 0 -9z
m-30 -145 c0 -19 -4 -35 -10 -35 -5 0 -10 -9 -10 -20 0 -11 -4 -20 -9 -20 -5
0 -11 -9 -14 -21 -3 -12 -10 -18 -15 -15 -6 3 -12 3 -15 -1 -2 -5 -2 -3 -1 4
1 6 -1 24 -6 40 -5 15 -9 20 -9 11 -1 -10 -5 -18 -11 -18 -6 0 -9 -3 -8 -7 3
-9 -5 -13 -23 -13 -16 0 39 54 58 56 11 2 13 -4 9 -19 -3 -12 -2 -28 3 -35 5
-8 8 1 9 24 3 85 52 150 52 69z"/>
<path d="M323 613 c9 -2 23 -2 30 0 6 3 -1 5 -18 5 -16 0 -22 -2 -12 -5z"/>
<path d="M275 600 c-3 -5 -2 -10 4 -10 5 0 13 5 16 10 3 6 2 10 -4 10 -5 0
-13 -4 -16 -10z"/>
<path d="M318 593 c7 -3 16 -2 19 1 4 3 -2 6 -13 5 -11 0 -14 -3 -6 -6z"/>
<path d="M1150 810 c0 -5 5 -10 11 -10 5 0 7 5 4 10 -3 6 -8 10 -11 10 -2 0
-4 -4 -4 -10z"/>
<path d="M1385 810 c-3 -5 -1 -10 4 -10 6 0 11 5 11 10 0 6 -2 10 -4 10 -3 0
-8 -4 -11 -10z"/>
<path d="M1425 810 c3 -5 8 -10 11 -10 2 0 4 5 4 10 0 6 -5 10 -11 10 -5 0 -7
-4 -4 -10z"/>
<path d="M1305 800 c-3 -5 -1 -10 4 -10 6 0 11 5 11 10 0 6 -2 10 -4 10 -3 0
-8 -4 -11 -10z"/>
<path d="M630 755 c7 -8 10 -22 6 -30 -3 -8 -1 -15 3 -15 5 0 12 7 15 16 7 17
-9 44 -26 44 -6 0 -5 -7 2 -15z"/>
<path d="M1340 740 c-9 -6 -10 -10 -3 -10 6 0 15 5 18 10 8 12 4 12 -15 0z"/>
<path d="M686 728 c3 -5 10 -6 15 -3 13 9 11 12 -6 12 -8 0 -12 -4 -9 -9z"/>
<path d="M2148 713 c6 -2 18 -2 25 0 6 3 1 5 -13 5 -14 0 -19 -2 -12 -5z"/>
<path d="M548 665 c-4 -4 -5 -21 -2 -39 5 -25 3 -28 -6 -16 -10 13 -11 13 -7
-2 3 -9 -1 -22 -9 -28 -8 -7 -14 -17 -14 -22 0 -5 12 2 26 15 20 19 25 31 22
61 -2 21 -6 35 -10 31z"/>
<path d="M2360 636 c0 -2 8 -10 18 -17 15 -13 16 -12 3 4 -13 16 -21 21 -21
13z"/>
<path d="M616 611 c-4 -5 -2 -12 3 -15 5 -4 12 -2 15 3 4 5 2 12 -3 15 -5 4
-12 2 -15 -3z"/>
<path d="M181 507 c-6 -8 -8 -17 -4 -20 3 -4 0 -13 -7 -21 -6 -9 -10 -20 -8
-26 1 -5 15 5 30 24 22 28 25 36 14 45 -10 8 -16 8 -25 -2z m23 -5 c3 -5 -1
-9 -9 -9 -8 0 -12 4 -9 9 3 4 7 8 9 8 2 0 6 -4 9 -8z"/>
<path d="M363 355 c0 -8 4 -12 9 -9 5 3 6 10 3 15 -9 13 -12 11 -12 -6z"/>
<path d="M226 342 c-3 -5 1 -9 9 -9 8 0 12 4 9 9 -3 4 -7 8 -9 8 -2 0 -6 -4
-9 -8z"/>
<path d="M1410 140 c-9 -6 -10 -10 -3 -10 6 0 15 5 18 10 8 12 4 12 -15 0z"/>
<path d="M490 136 c0 -2 8 -10 18 -17 15 -13 16 -12 3 4 -13 16 -21 21 -21 13z"/>
<path d="M603 95 c0 -27 2 -38 4 -22 5 34 23 36 23 2 0 -14 5 -25 10 -25 6 0
10 6 10 14 0 25 -12 46 -25 46 -8 0 -16 8 -18 18 -3 9 -5 -5 -4 -33z"/>
<path d="M1099 93 c2 -27 6 -41 9 -33 2 8 12 24 21 35 15 18 15 19 -1 6 -16
-12 -18 -11 -18 13 0 14 -3 26 -8 26 -4 0 -5 -21 -3 -47z"/>
<path d="M721 123 c-1 -7 -8 -13 -16 -13 -9 0 -15 -9 -15 -25 0 -14 -4 -25
-10 -25 -5 0 -10 11 -10 25 0 14 -4 25 -8 25 -5 0 -7 -14 -4 -30 3 -24 9 -30
28 -30 21 0 24 4 20 25 -3 14 0 25 5 25 5 0 9 -11 9 -25 0 -17 5 -25 18 -24
10 0 12 3 5 6 -18 7 -16 43 2 43 9 0 15 -9 15 -25 0 -17 5 -25 18 -24 10 0 12
3 5 6 -15 5 -17 40 -4 45 5 2 3 9 -5 16 -8 7 -14 8 -14 2 0 -14 -27 -13 -33 3
-4 10 -6 10 -6 0z"/>
<path d="M948 118 c-9 -25 5 -68 21 -67 10 0 11 2 4 6 -15 5 -17 40 -4 45 5 2
3 8 -4 15 -10 9 -15 9 -17 1z"/>
<path d="M1493 123 c-7 -3 -13 -9 -13 -14 0 -6 5 -7 10 -4 6 3 10 -5 10 -19 0
-13 -6 -27 -12 -29 -7 -3 1 -6 17 -6 17 0 25 3 18 7 -6 4 -13 21 -15 38 -2 19
-8 29 -15 27z"/>
<path d="M1545 120 c-4 -6 -4 -14 -1 -17 3 -4 6 -1 6 5 0 7 5 12 11 12 6 0 9
-6 6 -14 -3 -7 -1 -18 5 -24 15 -15 -10 -26 -28 -11 -12 10 -13 9 -8 -5 7 -18
39 -22 49 -6 5 8 11 7 21 -1 24 -20 46 -3 42 33 -4 42 -38 51 -56 16 -10 -20
-11 -20 -9 -3 2 21 -27 33 -38 15z m90 -30 c0 -13 -6 -25 -12 -27 -9 -3 -13 6
-13 27 0 21 4 30 13 28 6 -3 12 -15 12 -28z"/>
<path d="M1660 105 c0 -14 5 -25 11 -25 8 0 8 -5 -1 -15 -8 -10 -9 -15 -1 -15
16 0 44 48 37 65 -3 8 -15 15 -26 15 -15 0 -20 -7 -20 -25z m32 0 c0 -5 -5
-11 -11 -13 -6 -2 -11 4 -11 13 0 9 5 15 11 13 6 -2 11 -8 11 -13z"/>
<path d="M1727 123 c-11 -11 -8 -43 4 -43 8 0 8 -5 -1 -15 -8 -10 -9 -15 -1
-15 16 0 44 48 37 65 -6 15 -28 20 -39 8z m25 -18 c0 -5 -5 -11 -11 -13 -6 -2
-11 4 -11 13 0 9 5 15 11 13 6 -2 11 -8 11 -13z"/>
<path d="M1788 105 c-23 -30 -22 -35 1 -35 11 0 22 -6 24 -12 4 -10 6 -10 6 0
1 6 12 12 26 12 14 0 25 -6 25 -12 0 -9 3 -9 9 1 8 12 12 12 25 2 26 -22 48
-6 44 31 -4 41 -36 46 -55 8 l-13 -25 0 28 c0 15 -2 27 -5 27 -3 0 -17 -12
-30 -27 l-24 -28 -1 28 c0 33 -9 34 -32 2z m147 -15 c0 -13 -6 -25 -12 -27 -9
-3 -13 6 -13 27 0 21 4 30 13 28 6 -3 12 -15 12 -28z m-129 -7 c-10 -10 -19 5
-10 18 6 11 8 11 12 0 2 -7 1 -15 -2 -18z m60 0 c-10 -10 -19 5 -10 18 6 11 8
11 12 0 2 -7 1 -15 -2 -18z"/>
<path d="M1960 104 c0 -13 5 -24 11 -24 8 0 7 -6 -2 -17 -12 -14 -12 -16 1
-12 8 3 22 19 30 37 10 21 22 32 37 32 l22 0 -20 -35 c-12 -19 -17 -35 -12
-35 8 0 43 62 43 75 0 2 -25 4 -55 4 -51 -1 -55 -3 -55 -25z m32 1 c0 -5 -5
-11 -11 -13 -6 -2 -11 4 -11 13 0 9 5 15 11 13 6 -2 11 -8 11 -13z"/>
<path d="M545 100 c-3 -6 1 -13 9 -16 21 -8 20 -21 -1 -27 -14 -4 -12 -5 5 -6
23 -1 31 22 11 35 -8 4 -7 9 2 15 11 7 10 9 -3 9 -9 0 -20 -5 -23 -10z"/>
<path d="M796 95 c-8 -23 4 -45 25 -45 10 0 19 4 19 10 0 5 -7 7 -15 4 -8 -4
-15 -1 -15 5 0 6 7 11 15 11 8 0 15 7 15 15 0 8 -9 15 -19 15 -10 0 -21 -7
-25 -15z"/>
<path d="M861 77 c2 -31 2 -31 6 -4 5 33 14 34 39 5 17 -19 17 -21 2 -15 -10
4 -18 2 -18 -3 0 -12 37 -13 44 -1 3 5 -1 14 -10 21 -11 10 -12 15 -3 21 7 4
-4 7 -25 7 -34 0 -36 -2 -35 -31z"/>
<path d="M986 95 c-14 -36 24 -61 52 -33 9 9 12 9 12 0 0 -7 9 -12 20 -12 11
0 20 4 20 10 0 5 -7 7 -15 4 -10 -4 -15 0 -15 14 0 11 8 23 18 25 13 4 11 5
-5 6 -13 0 -23 -4 -23 -11 0 -9 -3 -9 -12 0 -17 17 -45 15 -52 -3z m39 -15 c0
-7 -6 -15 -12 -17 -8 -3 -13 4 -13 17 0 13 5 20 13 18 6 -3 12 -11 12 -18z"/>
<path d="M1186 95 c-8 -23 4 -45 25 -45 10 0 19 4 19 10 0 5 -7 7 -15 4 -11
-4 -15 0 -15 16 0 16 4 20 15 16 8 -3 15 -1 15 4 0 16 -37 11 -44 -5z"/>
<path d="M1237 96 c-10 -26 4 -47 27 -44 15 2 21 10 21 28 0 29 -38 41 -48 16z
m38 -16 c0 -7 -6 -15 -12 -17 -8 -3 -13 4 -13 17 0 13 5 20 13 18 6 -3 12 -11
12 -18z"/>
<path d="M1301 77 c2 -30 2 -31 6 -4 2 15 8 27 13 27 5 0 11 -12 13 -27 l4
-28 2 28 c1 34 21 36 21 2 0 -14 5 -25 10 -25 12 0 13 30 2 46 -4 6 -22 11
-39 12 -31 1 -33 -1 -32 -31z"/>
<path d="M1410 90 c0 -5 5 -10 10 -10 6 0 10 5 10 10 0 6 -4 10 -10 10 -5 0
-10 -4 -10 -10z"/>
<path d="M1120 69 c0 -11 25 -22 39 -17 6 1 -1 8 -14 15 -14 6 -25 7 -25 2z"/>
</g>
</svg>
