<?xml version="1.0" standalone="no"?>
<!DOCTYPE svg PUBLIC "-//W3C//DTD SVG 20010904//EN"
 "http://www.w3.org/TR/2001/REC-SVG-20010904/DTD/svg10.dtd">
<svg version="1.0" xmlns="http://www.w3.org/2000/svg"
 width="106.000000pt" height="140.000000pt" viewBox="0 0 106.000000 140.000000"
 preserveAspectRatio="xMidYMid meet">
<metadata>
Created by potrace 1.10, written by Peter Selinger 2001-2011
</metadata>
<g transform="translate(0.000000,140.000000) scale(0.100000,-0.100000)"
fill="#000000" stroke="none">
<path d="M770 1350 c-9 -6 -10 -10 -3 -10 6 0 15 5 18 10 8 12 4 12 -15 0z"/>
<path d="M490 1344 c-8 -1 -55 -8 -105 -15 -163 -22 -264 -73 -283 -143 -5
-17 -7 -70 -4 -117 2 -48 -1 -119 -8 -160 -17 -98 -19 -113 -20 -259 -2 -173
9 -387 22 -433 13 -44 67 -87 109 -87 14 0 39 -4 55 -9 16 -6 63 -12 104 -15
41 -2 88 -9 103 -15 22 -9 33 -8 50 4 12 8 40 15 62 15 22 0 67 7 98 15 32 8
73 15 91 15 38 0 83 30 72 48 -4 7 -12 12 -17 12 -6 0 -7 -4 -4 -10 3 -5 -3
-10 -15 -10 -12 0 -19 -4 -16 -9 7 -10 -20 -9 -30 2 -13 13 -23 7 -17 -10 4
-10 2 -14 -4 -10 -6 4 -25 2 -44 -4 -34 -10 -176 -31 -214 -32 -11 0 -38 3
-60 6 -22 3 -46 6 -52 6 -7 1 -13 8 -13 17 0 8 -5 12 -10 9 -6 -4 -8 -11 -5
-16 10 -15 -52 -10 -68 6 -8 8 -17 11 -21 8 -3 -3 -12 -1 -20 6 -11 9 -15 9
-18 0 -6 -17 -48 -1 -48 18 0 9 -6 13 -15 9 -9 -3 -15 0 -15 9 0 8 -4 15 -9
15 -5 0 -11 9 -14 20 -6 23 3 26 21 8 7 -7 12 -10 13 -8 0 3 2 13 4 23 2 11
-3 17 -15 17 -10 0 -22 5 -25 10 -3 5 1 10 9 10 9 0 16 5 16 10 0 6 -7 10 -15
10 -11 0 -14 9 -11 33 2 17 -1 35 -8 39 -7 5 -3 8 9 8 17 0 17 2 5 10 -9 5
-16 27 -17 52 -5 99 -3 336 3 378 4 25 7 51 7 58 0 6 4 12 9 12 4 0 7 8 6 18
-3 40 3 62 17 62 8 0 15 7 15 16 0 12 3 14 13 6 9 -8 17 -8 27 0 13 8 12 9 -2
5 -9 -3 -18 -1 -20 5 -3 8 -10 8 -24 0 -16 -8 -20 -7 -21 6 0 9 -3 48 -6 86
-9 107 13 136 128 176 67 23 224 50 290 50 50 0 93 -18 134 -56 14 -13 32 -22
39 -19 6 2 12 -2 12 -9 0 -14 39 -50 103 -96 32 -23 35 -28 30 -64 -2 -22 -6
-43 -9 -47 -2 -4 1 -9 7 -11 6 -2 11 -23 11 -46 0 -23 4 -42 9 -42 6 0 9 6 6
13 -2 6 0 20 5 30 6 12 5 17 -4 17 -8 1 -7 5 5 14 16 13 16 14 0 27 -15 12
-16 12 -9 -6 5 -14 4 -17 -4 -9 -6 6 -8 19 -4 28 5 14 9 15 15 5 11 -19 19 -7
13 18 -4 15 -11 20 -22 15 -15 -5 -15 -3 -4 11 8 9 11 21 7 27 -3 5 1 10 10
10 9 0 13 4 10 10 -3 5 -2 18 4 27 11 20 9 22 26 -32 2 -9 -2 -15 -10 -15 -8
0 -15 -5 -15 -10 0 -6 5 -9 11 -8 15 4 21 -162 6 -179 -7 -9 -5 -13 7 -13 11
0 16 -9 16 -30 0 -20 -5 -30 -15 -30 -8 0 -15 -4 -15 -9 0 -5 8 -8 18 -7 14 1
17 -8 19 -53 1 -30 4 -65 7 -77 4 -16 1 -24 -11 -27 -17 -4 -17 -5 0 -6 21 -1
23 -21 2 -21 -8 0 -15 -4 -15 -10 0 -5 8 -10 17 -10 15 0 14 -2 -3 -19 -10
-10 -22 -17 -26 -15 -4 3 -10 -1 -13 -7 -5 -7 2 -10 20 -7 25 3 27 0 30 -37 1
-22 -2 -46 -7 -52 -7 -9 -7 -13 1 -13 6 0 11 -9 11 -20 0 -11 -4 -20 -8 -20
-4 0 -6 -16 -4 -35 3 -22 -1 -43 -10 -53 -8 -9 -20 -29 -28 -44 -15 -32 -23
-34 -39 -14 -8 10 -9 16 -1 21 5 3 10 1 10 -4 0 -6 5 -11 10 -11 18 0 11 29
-10 40 -16 8 -20 8 -20 -3 0 -8 -23 -45 -51 -82 -27 -37 -49 -69 -47 -70 7 -6
48 15 48 25 0 5 7 10 15 10 9 0 12 6 8 15 -3 10 -1 15 7 13 7 -2 15 3 17 10 3
6 0 12 -7 12 -6 0 -8 4 -5 10 4 6 13 5 25 -2 14 -9 16 -16 9 -30 -6 -10 -14
-16 -20 -13 -5 4 -9 0 -9 -9 0 -8 -5 -16 -12 -18 -6 -2 -8 -10 -4 -16 9 -15
26 -15 26 0 0 6 8 21 18 32 10 12 36 50 58 86 l39 65 -2 175 c-2 97 -8 227
-13 290 -6 63 -15 166 -20 228 -5 62 -12 117 -15 121 -2 5 -33 19 -67 32 -35
12 -91 42 -126 66 -35 24 -75 44 -90 45 -49 3 -137 4 -152 2z m200 -49 c19
-23 8 -25 -14 -4 -11 11 -15 19 -9 19 6 0 16 -7 23 -15z m55 -25 c3 -6 -1 -7
-9 -4 -18 7 -21 14 -7 14 6 0 13 -4 16 -10z m32 -36 c3 -8 11 -13 19 -10 8 3
12 -2 11 -16 -1 -19 -3 -18 -23 5 -12 14 -25 23 -28 20 -3 -4 -6 -1 -6 5 0 17
20 15 27 -4z m73 -34 c0 -5 -4 -10 -9 -10 -6 0 -13 5 -16 10 -3 6 1 10 9 10 9
0 16 -4 16 -10z m15 -26 c-9 -9 -19 -13 -23 -10 -3 4 0 11 8 16 24 15 33 11
15 -6z"/>
<path d="M187 1217 c-3 -8 1 -14 8 -14 7 0 11 6 8 14 -3 7 -6 13 -8 13 -2 0
-5 -6 -8 -13z"/>
<path d="M633 1217 c0 -7 9 -13 19 -13 10 0 18 1 18 3 0 1 -8 7 -18 12 -13 7
-19 6 -19 -2z"/>
<path d="M364 1089 c-3 -6 -4 -59 0 -118 8 -125 13 -230 22 -403 6 -123 6
-126 30 -131 14 -2 26 -2 28 2 3 5 -2 73 -19 279 -3 39 -2 72 2 72 4 -1 32
-23 62 -50 30 -28 60 -50 68 -50 24 0 27 30 4 46 -11 8 -36 29 -54 45 -17 17
-47 42 -64 56 -31 24 -33 29 -33 92 0 39 -5 72 -12 79 -7 7 -8 12 -4 12 5 0 3
6 -3 13 -8 10 -7 14 3 14 8 0 13 -8 11 -19 -2 -10 5 -22 16 -29 11 -6 28 -18
38 -27 59 -57 101 -92 111 -92 5 0 10 10 10 23 0 16 -28 47 -99 110 -55 48
-102 87 -105 87 -2 0 -8 -5 -12 -11z m65 -263 c9 -11 9 -16 -1 -22 -7 -4 -10
-4 -6 1 4 4 3 14 -3 22 -6 7 -9 13 -6 13 2 0 10 -6 16 -14z"/>
<path d="M900 1080 c0 -5 5 -10 11 -10 5 0 7 5 4 10 -3 6 -8 10 -11 10 -2 0
-4 -4 -4 -10z"/>
<path d="M135 1050 c-3 -5 -1 -10 4 -10 6 0 11 5 11 10 0 6 -2 10 -4 10 -3 0
-8 -4 -11 -10z"/>
<path d="M215 1020 c-3 -5 -1 -10 4 -10 6 0 11 5 11 10 0 6 -2 10 -4 10 -3 0
-8 -4 -11 -10z"/>
<path d="M200 960 c-18 -12 -2 -12 25 0 13 6 15 9 5 9 -8 0 -22 -4 -30 -9z"/>
<path d="M890 960 c0 -5 7 -10 15 -10 8 0 15 5 15 10 0 6 -7 10 -15 10 -8 0
-15 -4 -15 -10z"/>
<path d="M258 953 c7 -3 16 -2 19 1 4 3 -2 6 -13 5 -11 0 -14 -3 -6 -6z"/>
<path d="M130 930 c0 -5 5 -10 10 -10 6 0 10 5 10 10 0 6 -4 10 -10 10 -5 0
-10 -4 -10 -10z"/>
<path d="M215 930 c3 -5 8 -10 11 -10 2 0 4 5 4 10 0 6 -5 10 -11 10 -5 0 -7
-4 -4 -10z"/>
<path d="M883 926 c3 -8 1 -17 -6 -20 -7 -2 -4 -5 6 -5 11 -1 17 6 17 19 0 11
-5 20 -11 20 -6 0 -9 -6 -6 -14z"/>
<path d="M150 900 c0 -5 5 -10 10 -10 6 0 10 5 10 10 0 6 -4 10 -10 10 -5 0
-10 -4 -10 -10z"/>
<path d="M290 889 c0 -5 5 -7 10 -4 6 3 10 8 10 11 0 2 -4 4 -10 4 -5 0 -10
-5 -10 -11z"/>
<path d="M900 883 c-13 -15 -12 -16 4 -10 10 4 20 7 22 7 2 0 4 5 4 10 0 15
-13 12 -30 -7z"/>
<path d="M865 860 c-8 -13 -1 -24 14 -19 6 3 7 10 2 18 -6 10 -10 10 -16 1z"/>
<path d="M915 820 c3 -5 8 -10 11 -10 2 0 4 5 4 10 0 6 -5 10 -11 10 -5 0 -7
-4 -4 -10z"/>
<path d="M886 813 c-12 -13 -5 -23 15 -23 11 0 17 -4 14 -10 -3 -5 -15 -10
-26 -10 -10 0 -19 -4 -19 -10 0 -17 39 -11 49 8 7 14 5 22 -9 34 -10 9 -21 14
-24 11z"/>
<path d="M1010 790 c-8 -5 -12 -12 -9 -15 4 -3 12 1 19 10 14 17 11 19 -10 5z"/>
<path d="M607 736 c-4 -10 -3 -15 3 -11 6 3 10 1 10 -6 0 -7 3 -10 6 -6 3 3 2
13 -4 22 -8 16 -9 16 -15 1z"/>
<path d="M885 730 c-3 -5 4 -14 16 -20 27 -15 30 -10 8 12 -10 10 -21 13 -24
8z"/>
<path d="M586 685 c-11 -8 -15 -15 -9 -15 6 0 16 7 23 15 16 19 11 19 -14 0z"/>
<path d="M888 675 c-7 -7 14 -55 24 -55 9 0 1 41 -10 52 -5 5 -11 6 -14 3z"/>
<path d="M535 661 c-3 -5 -2 -12 3 -15 5 -3 9 1 9 9 0 17 -3 19 -12 6z"/>
<path d="M490 656 c0 -2 7 -7 16 -10 8 -3 12 -2 9 4 -6 10 -25 14 -25 6z"/>
<path d="M578 653 c7 -3 16 -2 19 1 4 3 -2 6 -13 5 -11 0 -14 -3 -6 -6z"/>
<path d="M875 620 c3 -5 8 -10 11 -10 2 0 4 5 4 10 0 6 -5 10 -11 10 -5 0 -7
-4 -4 -10z"/>
<path d="M880 590 c0 -9 5 -21 12 -28 15 -15 48 -16 48 -2 0 6 -9 10 -20 10
-10 0 -24 8 -29 18 -9 14 -10 14 -11 2z"/>
<path d="M880 541 c0 -10 25 -21 48 -21 12 1 10 5 -8 15 -29 17 -40 18 -40 6z"/>
<path d="M880 511 c0 -5 6 -11 13 -14 9 -3 8 -8 -3 -22 -8 -10 -10 -16 -3 -12
6 4 13 2 15 -5 3 -8 9 -8 24 0 18 11 18 11 -5 12 -24 0 -24 0 -5 15 17 13 17
14 2 15 -10 0 -18 5 -18 10 0 6 -4 10 -10 10 -5 0 -10 -4 -10 -9z"/>
<path d="M896 429 c3 -6 0 -15 -7 -20 -8 -5 -9 -9 -4 -9 19 0 38 18 31 29 -4
6 -12 11 -17 11 -6 0 -7 -5 -3 -11z"/>
<path d="M890 375 c0 -8 4 -15 9 -15 5 0 11 7 15 15 3 9 0 15 -9 15 -8 0 -15
-7 -15 -15z"/>
<path d="M990 338 c-12 -22 -12 -22 6 -6 10 10 15 20 12 24 -4 3 -12 -5 -18
-18z"/>
<path d="M140 210 c0 -5 7 -10 15 -10 8 0 15 -4 15 -9 0 -5 7 -11 15 -14 12
-5 12 -2 3 18 -11 24 -48 35 -48 15z"/>
<path d="M915 200 c-3 -5 -1 -10 4 -10 6 0 11 5 11 10 0 6 -2 10 -4 10 -3 0
-8 -4 -11 -10z"/>
<path d="M280 150 c0 -5 5 -10 10 -10 6 0 10 5 10 10 0 6 -4 10 -10 10 -5 0
-10 -4 -10 -10z"/>
<path d="M430 145 c-7 -9 -8 -15 -2 -15 5 0 12 7 16 15 3 8 4 15 2 15 -2 0 -9
-7 -16 -15z"/>
</g>
</svg>
