<?xml version="1.0" standalone="no"?>
<!DOCTYPE svg PUBLIC "-//W3C//DTD SVG 20010904//EN"
 "http://www.w3.org/TR/2001/REC-SVG-20010904/DTD/svg10.dtd">
<svg version="1.0" xmlns="http://www.w3.org/2000/svg"
 width="112.000000pt" height="152.000000pt" viewBox="0 0 112.000000 152.000000"
 preserveAspectRatio="xMidYMid meet">
<metadata>
Created by potrace 1.10, written by Peter Selinger 2001-2011
</metadata>
<g transform="translate(0.000000,152.000000) scale(0.100000,-0.100000)"
fill="#000000" stroke="none">
<path d="M685 1434 c-16 -2 -54 -7 -82 -10 -29 -3 -53 -9 -53 -14 0 -8 142 -4
170 6 8 3 54 -3 103 -12 97 -19 105 -26 112 -95 2 -23 7 -54 10 -70 7 -32 -10
-63 -29 -52 -6 3 -5 0 3 -8 10 -11 15 -11 18 -1 8 21 23 13 21 -10 -1 -13 5
-45 14 -73 27 -85 40 -248 29 -360 -6 -55 -13 -131 -17 -170 -4 -45 -12 -74
-22 -82 -14 -12 -14 -13 0 -13 13 0 15 -17 16 -108 l0 -108 -51 -45 c-29 -25
-66 -55 -83 -66 -47 -34 -102 -41 -350 -48 -173 -5 -182 -4 -187 14 -2 10 -15
25 -28 31 -13 7 -21 9 -17 5 4 -5 3 -14 -3 -21 -9 -11 -15 -11 -32 1 -24 17
-31 45 -11 45 19 0 18 16 -1 24 -10 4 -19 -2 -24 -16 -16 -43 -25 6 -24 120 1
62 -2 110 -6 108 -19 -12 -19 -218 0 -253 6 -11 34 -34 63 -50 49 -27 57 -28
176 -27 389 1 449 17 565 145 l37 41 -7 131 c-6 102 -4 149 8 207 30 143 24
364 -13 505 -10 39 -21 97 -25 130 -8 72 -25 146 -37 161 -5 7 -30 15 -56 20
-26 4 -54 9 -62 11 -33 7 -97 11 -125 7z m-395 -1320 c0 -8 -4 -12 -10 -9 -5
3 -10 10 -10 16 0 5 5 9 10 9 6 0 10 -7 10 -16z"/>
<path d="M950 1435 c0 -2 6 -8 13 -14 10 -8 14 -7 14 2 0 8 -6 14 -14 14 -7 0
-13 -1 -13 -2z"/>
<path d="M373 1408 c-4 -7 -12 -22 -18 -32 -5 -10 -26 -27 -45 -37 -19 -11
-31 -20 -27 -20 4 -1 12 -2 19 -3 6 0 13 -7 16 -15 3 -10 0 -12 -12 -8 -14 6
-16 3 -11 -13 7 -22 -5 -26 -22 -9 -7 7 -12 6 -16 -5 -4 -11 1 -18 20 -22 21
-6 30 -1 52 27 14 18 26 37 26 42 0 4 7 12 15 17 8 5 15 22 15 37 0 28 1 28
73 31 39 2 72 7 72 12 0 15 -147 12 -157 -2z"/>
<path d="M590 1380 c0 -5 5 -10 10 -10 6 0 10 5 10 10 0 6 -4 10 -10 10 -5 0
-10 -4 -10 -10z"/>
<path d="M688 1383 c7 -3 16 -2 19 1 4 3 -2 6 -13 5 -11 0 -14 -3 -6 -6z"/>
<path d="M745 1380 c4 -6 11 -8 16 -5 14 9 11 15 -7 15 -8 0 -12 -5 -9 -10z"/>
<path d="M807 1373 c-4 -3 -7 -11 -7 -17 0 -6 5 -5 12 2 6 6 9 14 7 17 -3 3
-9 2 -12 -2z"/>
<path d="M506 1363 c-3 -3 -6 -16 -5 -27 0 -15 2 -17 6 -6 3 8 10 18 16 21 6
4 6 9 -1 12 -5 4 -12 4 -16 0z"/>
<path d="M620 1362 c0 -13 29 -48 30 -35 0 6 -5 15 -10 18 -6 4 -8 11 -5 16 4
5 1 9 -4 9 -6 0 -11 -4 -11 -8z"/>
<path d="M576 1334 c-10 -26 -6 -30 9 -10 15 19 15 19 15 1 0 -15 3 -16 12 -7
10 10 10 15 -2 22 -21 13 -27 12 -34 -6z"/>
<path d="M1090 1340 c0 -5 5 -10 10 -10 6 0 10 5 10 10 0 6 -4 10 -10 10 -5 0
-10 -4 -10 -10z"/>
<path d="M400 1330 c0 -5 5 -10 10 -10 6 0 10 5 10 10 0 6 -4 10 -10 10 -5 0
-10 -4 -10 -10z"/>
<path d="M456 1331 c-3 -5 1 -11 9 -15 8 -3 15 -1 15 4 0 13 -18 22 -24 11z"/>
<path d="M537 1333 c-4 -3 -7 -11 -7 -17 0 -6 5 -5 12 2 6 6 9 14 7 17 -3 3
-9 2 -12 -2z"/>
<path d="M705 1330 c5 -8 1 -18 -10 -27 -11 -7 -13 -13 -7 -13 7 0 15 -1 19
-2 11 -5 13 41 1 48 -7 5 -8 3 -3 -6z"/>
<path d="M233 1309 c-12 -4 -26 -16 -32 -26 -9 -17 -13 -113 -9 -208 1 -22 -1
-59 -5 -82 -5 -28 -4 -43 3 -43 5 0 10 6 11 13 0 6 2 23 4 37 7 48 8 128 1
138 -6 9 27 55 38 52 4 -1 12 1 19 3 7 3 5 6 -5 6 -9 1 -19 9 -21 19 -4 13 -5
11 -6 -5 -2 -36 -21 -27 -21 10 0 35 14 59 44 74 24 13 7 23 -21 12z"/>
<path d="M742 1308 c-7 -7 -12 -15 -12 -18 0 -8 44 -5 60 5 9 5 15 4 18 -3 5
-15 32 -16 32 -2 0 6 -7 10 -15 10 -8 0 -15 5 -15 10 0 7 -7 7 -21 -1 -16 -8
-23 -8 -28 0 -5 8 -11 7 -19 -1z"/>
<path d="M630 1294 c15 -17 30 -18 30 -1 0 7 -9 13 -21 14 -17 2 -18 -1 -9
-13z"/>
<path d="M863 1268 c-1 -31 8 -35 27 -13 10 12 10 15 -3 15 -8 0 -17 6 -20 13
-2 6 -4 0 -4 -15z"/>
<path d="M910 1241 c0 -7 -4 -9 -10 -6 -6 3 -7 -1 -4 -9 3 -9 10 -16 16 -16 5
0 6 5 3 10 -3 6 -2 10 4 10 5 0 12 -6 14 -12 4 -8 6 -9 6 -2 1 6 -6 17 -14 24
-11 9 -15 9 -15 1z"/>
<path d="M250 1220 c0 -5 7 -7 15 -4 8 4 15 8 15 10 0 2 -7 4 -15 4 -8 0 -15
-4 -15 -10z"/>
<path d="M600 1110 c-9 -6 -10 -10 -3 -10 6 0 15 5 18 10 8 12 4 12 -15 0z"/>
<path d="M549 989 c-1 -46 -3 -93 -4 -104 -2 -11 -9 -95 -16 -187 -7 -93 -17
-168 -22 -168 -5 0 -39 29 -76 65 -71 68 -85 75 -95 49 -12 -30 -5 -40 86
-126 70 -67 99 -88 120 -88 35 0 33 -17 54 345 4 61 8 124 9 140 1 17 6 30 12
30 5 0 40 -27 77 -60 37 -33 71 -61 76 -63 4 -2 10 10 13 25 5 25 -6 39 -86
120 -54 54 -103 95 -119 99 l-28 6 -1 -83z m76 21 c8 -12 -3 -34 -24 -47 -16
-10 -18 -8 -17 26 0 31 4 37 18 33 10 -2 21 -8 23 -12z m76 -75 c5 4 6 -1 3
-9 -5 -13 -12 -9 -38 17 -17 17 -30 35 -28 40 2 4 15 -6 29 -23 13 -17 29 -28
34 -25z m27 -50 c-3 -3 -9 2 -12 12 -6 14 -5 15 5 6 7 -7 10 -15 7 -18z m-171
-197 c-3 -8 -6 -5 -6 6 -1 11 2 17 5 13 3 -3 4 -12 1 -19z m10 -40 c-3 -8 -6
-5 -6 6 -1 11 2 17 5 13 3 -3 4 -12 1 -19z m-10 -75 c-3 -10 -5 -4 -5 12 0 17
2 24 5 18 2 -7 2 -21 0 -30z m-93 -42 c-3 -3 -10 2 -15 12 -6 9 -15 14 -21 11
-7 -5 -8 -2 -4 5 6 9 13 8 27 -5 11 -9 17 -20 13 -23z m86 9 c0 -5 -5 -10 -11
-10 -5 0 -7 5 -4 10 3 6 8 10 11 10 2 0 4 -4 4 -10z m-70 -34 c-7 -7 -13 -7
-20 0 -6 6 -3 10 10 10 13 0 16 -4 10 -10z m50 2 c0 6 6 12 13 12 7 0 13 -9
13 -20 0 -14 -5 -19 -15 -15 -11 4 -12 3 -1 -10 17 -21 -2 -19 -27 3 -15 12
-17 20 -9 28 8 8 13 8 18 0 6 -8 8 -7 8 2z"/>
<path d="M590 979 c0 -5 5 -7 10 -4 6 3 10 8 10 11 0 2 -4 4 -10 4 -5 0 -10
-5 -10 -11z"/>
<path d="M716 1031 c-4 -5 -2 -12 3 -15 5 -4 12 -2 15 3 4 5 2 12 -3 15 -5 4
-12 2 -15 -3z"/>
<path d="M220 1020 c0 -5 5 -10 10 -10 6 0 10 5 10 10 0 6 -4 10 -10 10 -5 0
-10 -4 -10 -10z"/>
<path d="M230 992 c0 -5 7 -9 15 -9 8 0 12 4 9 9 -3 4 -9 8 -15 8 -5 0 -9 -4
-9 -8z"/>
<path d="M226 952 c-3 -5 1 -9 9 -9 8 0 12 4 9 9 -3 4 -7 8 -9 8 -2 0 -6 -4
-9 -8z"/>
<path d="M766 938 c3 -5 10 -5 16 -2 6 4 14 1 18 -6 5 -9 9 -8 13 2 3 10 -3
14 -23 14 -16 0 -27 -3 -24 -8z"/>
<path d="M166 898 c-13 -63 -19 -478 -8 -478 8 0 11 63 12 198 0 108 5 217 10
242 12 58 12 70 1 70 -5 0 -12 -15 -15 -32z"/>
<path d="M226 902 c-3 -6 -1 -14 5 -17 15 -10 25 3 12 16 -7 7 -13 7 -17 1z"/>
<path d="M330 889 c0 -5 9 -9 20 -9 11 0 20 2 20 4 0 2 -9 6 -20 9 -11 3 -20
1 -20 -4z"/>
<path d="M220 781 c0 -6 5 -13 10 -16 6 -3 10 1 10 9 0 9 -4 16 -10 16 -5 0
-10 -4 -10 -9z"/>
<path d="M360 710 c-9 -6 -10 -10 -3 -10 6 0 15 5 18 10 8 12 4 12 -15 0z"/>
<path d="M206 422 c-2 -4 -1 -14 3 -21 6 -10 10 -9 14 3 6 16 -8 32 -17 18z"/>
<path d="M425 421 c-3 -5 -2 -12 3 -15 5 -3 9 1 9 9 0 17 -3 19 -12 6z"/>
<path d="M479 413 c-13 -16 -12 -17 4 -4 16 13 21 21 13 21 -2 0 -10 -8 -17
-17z"/>
<path d="M915 370 c3 -5 8 -10 11 -10 2 0 4 5 4 10 0 6 -5 10 -11 10 -5 0 -7
-4 -4 -10z"/>
<path d="M205 360 c4 -6 11 -8 16 -5 14 9 11 15 -7 15 -8 0 -12 -5 -9 -10z"/>
<path d="M103 325 c0 -8 4 -12 9 -9 5 3 6 10 3 15 -9 13 -12 11 -12 -6z"/>
<path d="M200 330 c0 -5 5 -10 10 -10 6 0 10 5 10 10 0 6 -4 10 -10 10 -5 0
-10 -4 -10 -10z"/>
<path d="M916 322 c-3 -5 1 -9 9 -9 8 0 12 4 9 9 -3 4 -7 8 -9 8 -2 0 -6 -4
-9 -8z"/>
<path d="M245 211 c-3 -5 -2 -12 3 -15 5 -3 9 1 9 9 0 17 -3 19 -12 6z"/>
<path d="M415 129 c-4 -6 -5 -12 -2 -15 2 -3 7 2 10 11 7 17 1 20 -8 4z"/>
</g>
</svg>
