<?xml version="1.0" standalone="no"?>
<!DOCTYPE svg PUBLIC "-//W3C//DTD SVG 20010904//EN"
 "http://www.w3.org/TR/2001/REC-SVG-20010904/DTD/svg10.dtd">
<svg version="1.0" xmlns="http://www.w3.org/2000/svg"
 width="120.000000pt" height="152.000000pt" viewBox="0 0 120.000000 152.000000"
 preserveAspectRatio="xMidYMid meet">
<metadata>
Created by potrace 1.10, written by Peter Selinger 2001-2011
</metadata>
<g transform="translate(0.000000,152.000000) scale(0.100000,-0.100000)"
fill="#000000" stroke="none">
<path d="M384 1429 c-16 -11 -45 -27 -64 -35 -38 -16 -113 -84 -139 -126 -14
-22 -15 -41 -9 -125 4 -54 12 -210 17 -348 10 -245 6 -332 -19 -401 -14 -40 3
-85 57 -149 56 -68 100 -85 216 -85 52 0 108 5 123 10 15 6 82 11 149 12 l122
1 44 42 c113 107 129 129 129 173 0 23 10 61 22 86 l21 44 -23 64 c-23 62 -24
85 -16 243 3 47 -6 178 -18 263 -15 107 -16 130 -6 156 8 22 7 34 -7 57 -10
16 -21 29 -26 29 -16 0 -97 41 -97 49 0 5 -15 15 -32 22 -18 7 -39 19 -46 26
-10 10 -58 13 -192 12 -158 -1 -181 -3 -206 -20z m61 -8 c0 -3 10 -19 21 -34
22 -27 44 -36 44 -17 0 6 -7 10 -15 10 -9 0 -12 6 -9 15 5 13 9 13 22 3 13
-11 15 -10 9 6 -6 16 -5 17 8 6 8 -7 15 -18 15 -25 0 -7 7 -15 15 -19 17 -6
21 9 5 19 -5 3 -10 14 -10 23 0 13 2 13 16 -4 15 -19 16 -19 9 1 -3 11 -3 16
1 12 4 -4 13 -2 21 4 9 8 13 8 13 1 0 -6 -4 -14 -10 -17 -5 -3 -10 -11 -10
-17 0 -6 9 -3 21 8 17 16 22 16 29 4 6 -8 10 -21 10 -27 0 -7 10 -13 21 -13
18 0 21 5 17 30 -3 17 -1 30 4 30 4 0 8 -5 8 -11 0 -5 5 -7 11 -3 6 3 24 -3
40 -15 37 -27 38 -14 2 16 -21 17 -24 22 -11 23 9 0 23 -7 32 -15 8 -8 19 -15
25 -15 14 0 14 -2 -2 -32 -7 -14 -18 -23 -25 -20 -6 2 -12 -1 -12 -7 0 -6 6
-11 14 -11 7 0 16 -10 19 -22 5 -17 9 -19 20 -10 8 7 17 9 20 5 4 -3 7 -1 7 6
0 7 -6 11 -14 8 -8 -3 -20 1 -26 9 -10 11 -9 14 4 14 10 0 15 4 12 9 -8 12 3
41 15 41 5 0 6 -13 3 -30 -6 -26 -3 -30 14 -30 12 0 24 5 28 11 4 8 -1 9 -17
4 -19 -6 -21 -5 -13 5 13 14 58 4 49 -11 -4 -5 7 -9 24 -9 19 0 35 -8 45 -22
16 -23 12 -43 -6 -32 -7 5 -9 0 -5 -15 5 -19 3 -20 -10 -10 -12 11 -14 10 -11
-7 2 -13 -2 -19 -14 -18 -10 1 -18 -4 -18 -12 0 -7 6 -11 13 -8 9 3 13 -3 12
-18 -3 -32 5 -48 22 -48 8 0 11 5 8 10 -3 6 -1 10 5 10 7 0 10 -6 7 -14 -3 -7
-1 -18 5 -24 6 -6 7 -15 4 -21 -11 -17 -26 -13 -20 4 4 8 2 15 -4 15 -10 0
-22 -56 -14 -65 3 -3 14 2 24 12 16 14 18 14 18 1 0 -9 -7 -18 -15 -22 -8 -3
-15 -10 -15 -17 0 -6 7 -9 15 -5 13 4 12 1 -2 -20 -14 -22 -14 -27 -2 -36 11
-7 11 -11 2 -15 -18 -7 -16 -26 2 -19 21 8 19 -24 -2 -40 -16 -12 -15 -13 11
-14 31 0 31 -9 -1 -15 -10 -2 -20 -4 -22 -4 -2 -1 7 -9 19 -19 22 -18 21 -50
-1 -36 -5 3 -7 10 -4 15 4 5 0 9 -8 9 -11 0 -14 -13 -12 -52 1 -29 -2 -55 -6
-58 -5 -3 3 -19 16 -35 16 -18 23 -35 19 -47 -3 -10 -1 -18 5 -18 6 0 11 6 12
13 0 6 5 1 10 -12 5 -13 7 -26 4 -29 -3 -3 -5 0 -5 6 0 6 -7 9 -15 6 -8 -4
-15 -1 -15 5 0 6 -4 11 -10 11 -19 0 -10 -17 18 -30 15 -7 30 -13 33 -12 4 1
10 -10 13 -24 5 -19 2 -30 -10 -39 -10 -7 -15 -19 -11 -28 3 -9 -1 -18 -9 -21
-9 -3 -12 -11 -8 -17 15 -24 9 -81 -8 -90 -14 -7 -18 -6 -18 7 0 10 -5 14 -15
10 -8 -3 -15 -1 -15 4 0 6 -5 10 -11 10 -6 0 -8 -9 -4 -21 4 -12 3 -19 -1 -16
-5 3 -15 -1 -22 -9 -11 -12 -8 -17 20 -29 27 -12 29 -14 11 -15 -13 0 -23 -6
-24 -12 0 -7 -5 -2 -11 12 l-10 25 -9 -30 c-5 -16 -7 -38 -5 -48 2 -10 -2 -17
-10 -17 -8 0 -14 -7 -14 -15 0 -13 -18 -16 -112 -15 -62 1 -129 -3 -148 -9
-44 -14 -203 -14 -252 -1 -41 12 -128 103 -140 148 -4 15 -3 43 3 62 24 85 28
149 19 373 -6 128 -12 257 -15 287 -10 125 -8 187 7 208 32 47 110 105 139
105 23 0 26 3 18 14 -9 10 -8 13 5 13 9 0 16 -4 16 -10 0 -5 4 -10 10 -10 5 0
7 7 3 16 -5 13 -2 15 15 9 18 -5 22 -2 22 16 0 12 3 19 8 15 4 -4 7 -11 7 -15z
m225 -6 c0 -8 -4 -15 -10 -15 -5 0 -10 7 -10 15 0 8 5 15 10 15 6 0 10 -7 10
-15z m300 -232 c0 -7 -4 -13 -10 -13 -5 0 -6 8 -3 18 6 15 5 15 -10 3 -19 -15
-23 -1 -5 17 13 13 28 -1 28 -25z m23 -203 c3 -11 1 -20 -4 -20 -5 0 -9 9 -9
20 0 11 2 20 4 20 2 0 6 -9 9 -20z m-3 -195 c-7 -8 -10 -25 -6 -40 4 -14 2
-25 -4 -25 -11 0 -11 1 -15 40 -2 24 9 40 29 40 5 0 3 -7 -4 -15z m-20 -75 c0
-5 -4 -10 -10 -10 -5 0 -10 5 -10 10 0 6 5 10 10 10 6 0 10 -4 10 -10z m-70
-450 c0 -5 -7 -10 -15 -10 -8 0 -15 5 -15 10 0 6 7 10 15 10 8 0 15 -4 15 -10z"/>
<path d="M616 1375 c-3 -8 -1 -15 4 -15 6 0 10 7 10 15 0 8 -2 15 -4 15 -2 0
-6 -7 -10 -15z"/>
<path d="M705 1381 c-10 -17 12 -21 25 -6 10 12 10 15 -3 15 -9 0 -18 -4 -22
-9z"/>
<path d="M580 1355 c0 -8 2 -15 4 -15 2 0 6 7 10 15 3 8 1 15 -4 15 -6 0 -10
-7 -10 -15z"/>
<path d="M530 1356 c0 -2 8 -10 18 -17 15 -13 16 -12 3 4 -13 16 -21 21 -21
13z"/>
<path d="M670 1340 c0 -5 5 -10 10 -10 6 0 10 5 10 10 0 6 -4 10 -10 10 -5 0
-10 -4 -10 -10z"/>
<path d="M720 1340 c0 -5 5 -10 10 -10 6 0 10 5 10 10 0 6 -4 10 -10 10 -5 0
-10 -4 -10 -10z"/>
<path d="M515 1319 c-4 -6 -5 -12 -2 -15 2 -3 7 2 10 11 7 17 1 20 -8 4z"/>
<path d="M883 1309 c2 -10 7 -22 12 -26 4 -5 5 -3 1 4 -3 6 1 16 10 21 14 8
14 10 -5 15 -16 4 -20 1 -18 -14z"/>
<path d="M535 1300 c-3 -6 1 -7 9 -4 18 7 21 14 7 14 -6 0 -13 -4 -16 -10z"/>
<path d="M686 1298 c3 -5 10 -6 15 -3 13 9 11 12 -6 12 -8 0 -12 -4 -9 -9z"/>
<path d="M737 1299 c7 -7 15 -10 18 -7 3 3 -2 9 -12 12 -14 6 -15 5 -6 -5z"/>
<path d="M820 1275 c0 -13 4 -14 20 -5 11 6 20 13 20 15 0 3 -9 5 -20 5 -11 0
-20 -7 -20 -15z"/>
<path d="M750 1260 c0 -5 7 -10 15 -10 8 0 15 5 15 10 0 6 -7 10 -15 10 -8 0
-15 -4 -15 -10z"/>
<path d="M790 1230 c0 -5 5 -10 11 -10 5 0 7 5 4 10 -3 6 -8 10 -11 10 -2 0
-4 -4 -4 -10z"/>
<path d="M700 1210 c0 -5 5 -10 10 -10 6 0 10 5 10 10 0 6 -4 10 -10 10 -5 0
-10 -4 -10 -10z"/>
<path d="M810 1200 c0 -5 5 -10 10 -10 6 0 10 5 10 10 0 6 -4 10 -10 10 -5 0
-10 -4 -10 -10z"/>
<path d="M842 1160 c0 -14 2 -19 5 -12 2 6 2 18 0 25 -3 6 -5 1 -5 -13z"/>
<path d="M826 1127 c3 -10 9 -15 12 -12 3 3 0 11 -7 18 -10 9 -11 8 -5 -6z"/>
<path d="M700 1109 c0 -5 5 -7 10 -4 6 3 10 8 10 11 0 2 -4 4 -10 4 -5 0 -10
-5 -10 -11z"/>
<path d="M465 1101 c-3 -5 -2 -12 3 -15 5 -3 9 1 9 9 0 17 -3 19 -12 6z"/>
<path d="M875 1099 c-4 -6 -5 -12 -2 -15 2 -3 7 2 10 11 7 17 1 20 -8 4z"/>
<path d="M404 1072 c-20 -12 -29 -94 -23 -197 4 -55 10 -170 13 -255 4 -85 10
-161 12 -168 3 -10 18 -3 52 22 26 20 68 49 94 66 l48 30 52 -47 c29 -25 56
-52 60 -59 9 -15 48 -7 48 10 0 11 -32 43 -118 121 l-33 29 -75 -38 c-41 -21
-77 -36 -81 -33 -6 7 -25 429 -19 435 2 2 37 -15 78 -38 44 -25 77 -38 84 -33
6 4 30 22 52 39 65 49 112 93 112 103 0 18 -20 22 -35 7 -24 -24 -131 -86
-149 -86 -9 0 -47 23 -86 50 -39 28 -71 50 -73 50 -1 0 -7 -4 -13 -8z m17 -31
c-10 -6 -6 -11 15 -19 l29 -10 -31 1 c-29 2 -33 8 -25 35 1 1 7 2 14 2 9 0 8
-3 -2 -9z m39 -533 c0 -6 -7 -5 -15 2 -8 7 -15 17 -15 22 0 6 7 5 15 -2 8 -7
15 -17 15 -22z m-25 -8 c3 -5 1 -10 -4 -10 -6 0 -11 5 -11 10 0 6 2 10 4 10 3
0 8 -4 11 -10z"/>
<path d="M890 1066 c0 -2 7 -7 16 -10 8 -3 12 -2 9 4 -6 10 -25 14 -25 6z"/>
<path d="M865 1040 c4 -6 11 -8 16 -5 14 9 11 15 -7 15 -8 0 -12 -5 -9 -10z"/>
<path d="M769 983 c-13 -16 -12 -17 4 -4 9 7 17 15 17 17 0 8 -8 3 -21 -13z"/>
<path d="M903 805 c0 -8 4 -12 9 -9 5 3 6 10 3 15 -9 13 -12 11 -12 -6z"/>
<path d="M885 770 c6 -30 16 -40 12 -12 -2 12 -6 24 -10 28 -3 4 -4 -4 -2 -16z"/>
<path d="M893 686 c10 -14 9 -28 -2 -21 -11 6 -6 -34 5 -44 4 -3 4 2 1 11 -7
20 9 35 16 16 4 -8 6 -9 6 -2 1 7 -7 20 -16 31 -10 10 -15 14 -10 9z"/>
<path d="M960 556 c0 -17 38 -41 48 -31 9 9 -13 40 -32 43 -9 2 -16 -3 -16
-12z m40 -16 c0 -5 -7 -7 -15 -4 -8 4 -12 10 -9 15 6 11 24 2 24 -11z"/>
<path d="M585 511 c-3 -5 -2 -12 3 -15 5 -3 9 1 9 9 0 17 -3 19 -12 6z"/>
<path d="M958 493 c7 -3 16 -2 19 1 4 3 -2 6 -13 5 -11 0 -14 -3 -6 -6z"/>
<path d="M650 461 c0 -5 7 -12 16 -15 14 -5 15 -4 4 9 -14 17 -20 19 -20 6z"/>
<path d="M758 423 c7 -3 16 -2 19 1 4 3 -2 6 -13 5 -11 0 -14 -3 -6 -6z"/>
<path d="M915 410 c-4 -6 3 -10 14 -10 25 0 27 6 6 13 -8 4 -17 2 -20 -3z"/>
<path d="M292 316 c7 -8 15 -12 17 -11 5 6 -10 25 -20 25 -5 0 -4 -6 3 -14z"/>
<path d="M280 270 c0 -5 7 -10 16 -10 8 0 12 5 9 10 -3 6 -10 10 -16 10 -5 0
-9 -4 -9 -10z"/>
<path d="M350 240 c-9 -6 -10 -10 -3 -10 6 0 15 5 18 10 8 12 4 12 -15 0z"/>
<path d="M696 237 c3 -10 9 -15 12 -12 3 3 0 11 -7 18 -10 9 -11 8 -5 -6z"/>
<path d="M508 223 c7 -3 16 -2 19 1 4 3 -2 6 -13 5 -11 0 -14 -3 -6 -6z"/>
<path d="M166 1353 c-6 -14 -5 -15 5 -6 7 7 10 15 7 18 -3 3 -9 -2 -12 -12z"/>
<path d="M176 1332 l-19 -27 24 22 c12 12 21 24 18 27 -2 2 -13 -8 -23 -22z"/>
<path d="M1030 1311 c0 -7 -5 -9 -12 -5 -7 5 -8 3 -3 -5 5 -9 10 -10 18 -2 6
6 8 14 4 18 -4 3 -7 1 -7 -6z"/>
<path d="M1020 1211 c0 -6 4 -13 10 -16 6 -3 7 1 4 9 -7 18 -14 21 -14 7z"/>
<path d="M895 190 c-3 -6 1 -7 9 -4 18 7 21 14 7 14 -6 0 -13 -4 -16 -10z"/>
</g>
</svg>
