<?xml version="1.0" standalone="no"?>
<!DOCTYPE svg PUBLIC "-//W3C//DTD SVG 20010904//EN"
 "http://www.w3.org/TR/2001/REC-SVG-20010904/DTD/svg10.dtd">
<svg version="1.0" xmlns="http://www.w3.org/2000/svg"
 width="108.000000pt" height="145.000000pt" viewBox="0 0 108.000000 145.000000"
 preserveAspectRatio="xMidYMid meet">
<metadata>
Created by potrace 1.10, written by Peter Selinger 2001-2011
</metadata>
<g transform="translate(0.000000,145.000000) scale(0.100000,-0.100000)"
fill="#000000" stroke="none">
<path d="M380 1419 c-19 -3 -48 -11 -63 -18 -16 -6 -42 -11 -59 -11 -45 0
-156 -76 -175 -120 -47 -110 -51 -161 -35 -500 6 -124 13 -277 15 -340 4 -110
6 -117 40 -175 44 -75 59 -89 122 -108 76 -23 106 -28 290 -42 l170 -13 64 34
c74 39 211 154 228 193 6 14 10 37 8 51 -2 14 -8 56 -14 93 -5 38 -9 159 -9
270 1 111 -2 225 -5 252 -3 28 -9 84 -13 125 -9 99 -32 142 -98 185 -44 28
-66 35 -120 38 -52 4 -72 10 -96 31 -46 38 -181 68 -250 55z m245 -72 c27 -18
63 -47 78 -64 25 -28 36 -33 74 -33 40 0 44 2 38 21 -6 19 -5 20 15 9 17 -9
19 -14 10 -20 -9 -5 -10 -19 -6 -44 5 -25 11 -34 19 -29 7 4 7 0 -2 -10 -8
-11 -9 -17 -3 -17 7 0 9 -7 5 -17 -4 -11 -3 -14 6 -9 8 5 11 3 10 -5 -2 -8 5
-31 15 -52 15 -30 21 -35 32 -26 11 9 14 7 14 -10 0 -11 -6 -21 -12 -21 -10 0
-9 -3 1 -9 7 -5 11 -13 7 -19 -3 -6 -2 -12 4 -14 15 -5 16 -151 1 -156 -9 -3
-9 -7 0 -18 9 -11 8 -14 -5 -14 -9 0 -16 -7 -16 -16 0 -9 6 -14 13 -11 8 3 13
-3 13 -14 0 -13 -5 -17 -16 -14 -13 4 -17 -4 -19 -40 -2 -38 1 -45 17 -45 15
0 19 -7 18 -30 -1 -36 -13 -39 -22 -5 -8 31 -22 24 -21 -11 0 -18 2 -22 8 -13
7 11 9 10 9 -3 0 -10 7 -18 15 -18 18 0 20 -26 3 -33 -8 -3 -6 -6 5 -6 9 -1
17 -4 17 -7 0 -4 -8 -13 -17 -20 -17 -12 -17 -14 2 -49 19 -36 21 -42 25 -80
5 -40 0 -54 -15 -49 -8 4 -15 2 -15 -4 0 -6 6 -12 12 -14 7 -3 -4 -15 -24 -29
-21 -13 -38 -31 -38 -39 -1 -12 -3 -11 -11 3 -11 18 -39 24 -39 7 0 -5 7 -10
15 -10 8 0 15 -4 15 -10 0 -15 -40 -12 -41 3 0 6 -4 3 -8 -8 -4 -11 -19 -22
-32 -25 -14 -3 -30 -18 -39 -37 -8 -18 -22 -33 -32 -33 -9 0 -19 -6 -21 -12
-3 -8 -6 -6 -6 5 -1 17 -22 23 -35 9 -10 -10 -56 -10 -56 0 0 4 -4 8 -10 8 -5
0 -9 -4 -7 -9 1 -5 -2 -8 -8 -8 -5 1 -9 8 -7 14 3 15 -9 16 -61 4 -30 -7 -40
-6 -44 5 -3 8 -11 14 -19 14 -7 0 -11 -6 -8 -14 5 -12 -3 -14 -38 -11 -24 2
-45 4 -48 5 -3 1 -8 2 -12 1 -4 0 -19 4 -32 9 -17 6 -24 14 -20 25 8 19 0 19
-20 -1 -29 -29 -74 2 -136 91 l-31 45 -9 232 c-15 377 -17 488 -10 493 6 4 13
65 14 132 1 17 4 29 7 27 4 -2 10 4 14 13 3 10 1 19 -4 21 -6 2 -11 8 -11 14
0 5 6 8 13 5 7 -2 16 10 22 27 6 20 22 37 43 48 18 9 41 23 51 32 10 9 31 16
47 16 16 1 53 9 82 19 48 17 60 17 139 4 66 -10 100 -22 138 -46z m175 -62 c0
-2 -7 -6 -16 -9 -8 -3 -12 -2 -9 4 5 9 -16 15 -38 11 -5 -1 -6 3 -3 8 6 9 66
-4 66 -14z m74 -49 c-3 -8 -1 -17 5 -21 14 -8 14 -25 1 -25 -5 0 -10 6 -10 14
0 8 -6 17 -12 19 -10 4 -9 8 2 16 19 14 20 14 14 -3z m16 -66 c0 -5 -5 -10
-11 -10 -5 0 -7 5 -4 10 3 6 8 10 11 10 2 0 4 -4 4 -10z m30 0 c0 -5 -4 -10
-10 -10 -5 0 -10 5 -10 10 0 6 5 10 10 10 6 0 10 -4 10 -10z m0 -30 c0 -5 -5
-10 -11 -10 -5 0 -7 5 -4 10 3 6 8 10 11 10 2 0 4 -4 4 -10z m7 -45 c-8 -19
-23 -19 -31 1 -3 8 -2 12 3 9 5 -3 13 0 16 6 10 15 19 3 12 -16z m8 -410 c0
-14 -3 -25 -6 -25 -10 0 -20 31 -13 41 10 17 19 9 19 -16z m7 -207 c-7 -7 -12
-8 -12 -2 0 14 12 26 19 19 2 -3 -1 -11 -7 -17z m-272 -358 c0 -5 -5 -10 -11
-10 -5 0 -7 5 -4 10 3 6 8 10 11 10 2 0 4 -4 4 -10z"/>
<path d="M280 1339 c0 -5 5 -7 10 -4 6 3 10 8 10 11 0 2 -4 4 -10 4 -5 0 -10
-5 -10 -11z"/>
<path d="M175 1310 c3 -5 11 -10 16 -10 6 0 7 5 4 10 -3 6 -11 10 -16 10 -6 0
-7 -4 -4 -10z"/>
<path d="M163 1281 c1 -15 4 -17 14 -9 7 5 10 14 7 19 -10 16 -23 9 -21 -10z"/>
<path d="M152 1211 c-11 -6 -9 -9 6 -13 15 -4 19 -2 15 8 -6 16 -4 16 -21 5z"/>
<path d="M556 1158 c3 -5 10 -6 15 -3 13 9 11 12 -6 12 -8 0 -12 -4 -9 -9z"/>
<path d="M386 1024 c-85 -115 -100 -144 -71 -144 8 0 15 -3 15 -7 0 -5 32 -42
70 -83 39 -41 70 -79 70 -83 0 -11 -70 -97 -129 -159 -34 -37 -42 -51 -33 -60
8 -8 15 -8 26 1 8 7 20 10 25 7 5 -4 40 32 76 79 37 47 68 85 70 85 1 0 31
-37 65 -82 35 -46 72 -93 83 -105 19 -22 21 -22 66 4 2 1 -16 26 -41 55 -24
29 -65 81 -91 114 l-46 61 46 54 c25 30 53 65 61 79 9 14 24 34 34 45 17 20
16 23 -77 120 -52 54 -97 107 -101 117 -11 35 -33 17 -118 -98z m88 67 c3 -4
-4 -17 -17 -27 -22 -19 -22 -19 -4 2 9 11 14 24 10 27 -3 4 -4 7 0 7 3 0 8 -4
11 -9z m49 -63 c13 -18 43 -53 66 -78 39 -43 49 -65 33 -72 -4 -1 -23 -23 -42
-48 -53 -71 -69 -83 -84 -71 -8 6 -39 45 -71 86 l-57 75 43 56 c24 31 48 63
54 70 15 22 31 17 58 -18z m-174 -122 c9 -11 9 -16 -1 -22 -7 -4 -10 -4 -6 1
4 4 3 14 -3 22 -6 7 -9 13 -6 13 2 0 10 -6 16 -14z m157 -211 c-3 -8 -11 -15
-18 -15 -10 0 -10 2 -1 8 8 5 9 13 3 22 -15 24 -11 33 6 15 9 -8 13 -22 10
-30z m148 -163 c3 -5 -1 -9 -9 -9 -8 0 -12 4 -9 9 3 4 7 8 9 8 2 0 6 -4 9 -8z"/>
<path d="M510 985 c0 -5 5 -17 10 -25 5 -8 10 -10 10 -5 0 6 -5 17 -10 25 -5
8 -10 11 -10 5z"/>
<path d="M823 1105 c0 -8 4 -12 9 -9 5 3 6 10 3 15 -9 13 -12 11 -12 -6z"/>
<path d="M140 1060 c0 -5 5 -10 10 -10 6 0 10 5 10 10 0 6 -4 10 -10 10 -5 0
-10 -4 -10 -10z"/>
<path d="M710 936 c0 -2 8 -10 18 -17 15 -13 16 -12 3 4 -13 16 -21 21 -21 13z"/>
<path d="M720 601 c0 -6 4 -13 10 -16 6 -3 7 1 4 9 -7 18 -14 21 -14 7z"/>
<path d="M680 596 c0 -2 7 -9 15 -16 13 -11 14 -10 9 4 -5 14 -24 23 -24 12z"/>
<path d="M890 560 c0 -5 5 -10 10 -10 6 0 10 5 10 10 0 6 -4 10 -10 10 -5 0
-10 -4 -10 -10z"/>
<path d="M890 530 c0 -5 5 -10 10 -10 6 0 10 5 10 10 0 6 -4 10 -10 10 -5 0
-10 -4 -10 -10z"/>
<path d="M825 519 c-4 -6 -4 -13 -1 -17 10 -9 46 -10 40 0 -4 5 -13 7 -21 4
-11 -4 -13 -2 -9 9 6 17 0 20 -9 4z"/>
<path d="M885 499 c-10 -15 3 -25 16 -12 7 7 7 13 1 17 -6 3 -14 1 -17 -5z"/>
<path d="M326 462 c-3 -5 1 -9 9 -9 8 0 12 4 9 9 -3 4 -7 8 -9 8 -2 0 -6 -4
-9 -8z"/>
<path d="M396 462 c-3 -5 1 -9 9 -9 8 0 12 4 9 9 -3 4 -7 8 -9 8 -2 0 -6 -4
-9 -8z"/>
<path d="M880 451 c0 -5 5 -13 10 -16 6 -3 10 -2 10 4 0 5 -4 13 -10 16 -5 3
-10 2 -10 -4z"/>
<path d="M910 439 c0 -8 7 -24 15 -35 14 -18 14 -18 10 5 -5 29 -25 53 -25 30z"/>
<path d="M825 431 c-3 -5 -2 -12 3 -15 5 -3 9 1 9 9 0 17 -3 19 -12 6z"/>
<path d="M886 411 c-3 -5 2 -12 11 -15 15 -6 15 -8 3 -16 -11 -7 -8 -11 13
-19 38 -15 59 -12 27 2 -14 7 -25 18 -26 25 -2 27 -4 32 -13 32 -6 0 -12 -4
-15 -9z"/>
<path d="M856 382 c-3 -5 1 -9 9 -9 8 0 12 4 9 9 -3 4 -7 8 -9 8 -2 0 -6 -4
-9 -8z"/>
<path d="M140 270 c0 -5 5 -10 11 -10 5 0 7 5 4 10 -3 6 -8 10 -11 10 -2 0 -4
-4 -4 -10z"/>
<path d="M195 220 c-3 -5 1 -10 10 -10 9 0 13 5 10 10 -3 6 -8 10 -10 10 -2 0
-7 -4 -10 -10z"/>
<path d="M280 210 c0 -5 5 -10 10 -10 6 0 10 5 10 10 0 6 -4 10 -10 10 -5 0
-10 -4 -10 -10z"/>
<path d="M230 194 c0 -8 5 -12 10 -9 6 3 10 10 10 16 0 5 -4 9 -10 9 -5 0 -10
-7 -10 -16z"/>
<path d="M596 193 c-6 -14 -5 -15 5 -6 7 7 10 15 7 18 -3 3 -9 -2 -12 -12z"/>
<path d="M334 189 c-3 -6 -1 -16 6 -22 10 -9 11 -9 6 1 -4 7 -1 12 8 12 9 0
16 -8 16 -17 0 -13 3 -14 12 -5 9 9 8 15 -8 27 -23 17 -31 18 -40 4z"/>
<path d="M490 180 c-18 -12 -2 -12 25 0 13 6 15 9 5 9 -8 0 -22 -4 -30 -9z"/>
<path d="M950 1326 c0 -2 7 -7 16 -10 8 -3 12 -2 9 4 -6 10 -25 14 -25 6z"/>
<path d="M958 1257 c-3 -19 -2 -25 4 -19 6 6 8 18 6 28 -3 14 -5 12 -10 -9z"/>
<path d="M31 1247 c-8 -10 -7 -14 2 -14 8 0 14 6 14 14 0 7 -1 13 -2 13 -2 0
-8 -6 -14 -13z"/>
<path d="M1035 439 c-4 -6 -5 -12 -2 -15 2 -3 7 2 10 11 7 17 1 20 -8 4z"/>
<path d="M52 224 c-7 -8 -8 -14 -3 -14 10 0 25 19 20 25 -2 1 -10 -3 -17 -11z"/>
<path d="M935 231 c-3 -5 -2 -12 3 -15 5 -3 9 1 9 9 0 17 -3 19 -12 6z"/>
<path d="M963 225 c0 -8 4 -12 9 -9 5 3 6 10 3 15 -9 13 -12 11 -12 -6z"/>
<path d="M883 145 c0 -8 4 -12 9 -9 5 3 6 10 3 15 -9 13 -12 11 -12 -6z"/>
<path d="M496 68 c7 -10 24 -10 24 0 0 5 -7 9 -15 9 -8 0 -12 -4 -9 -9z"/>
</g>
</svg>
