<?xml version="1.0" standalone="no"?>
<!DOCTYPE svg PUBLIC "-//W3C//DTD SVG 20010904//EN"
 "http://www.w3.org/TR/2001/REC-SVG-20010904/DTD/svg10.dtd">
<svg version="1.0" xmlns="http://www.w3.org/2000/svg"
 width="112.000000pt" height="143.000000pt" viewBox="0 0 112.000000 143.000000"
 preserveAspectRatio="xMidYMid meet">
<metadata>
Created by potrace 1.10, written by Peter Selinger 2001-2011
</metadata>
<g transform="translate(0.000000,143.000000) scale(0.100000,-0.100000)"
fill="#000000" stroke="none">
<path d="M266 1395 c-11 -8 -15 -15 -9 -15 6 0 16 7 23 15 16 19 11 19 -14 0z"/>
<path d="M824 1398 c-3 -4 5 -5 17 -3 30 6 36 14 9 12 -12 -1 -24 -5 -26 -9z"/>
<path d="M321 1376 c-11 -13 -81 -50 -144 -75 -15 -6 -33 -23 -39 -38 -7 -16
-17 -35 -24 -43 -7 -8 -16 -43 -20 -77 -6 -56 -4 -63 12 -70 11 -3 22 -11 26
-17 4 -6 8 -8 10 -6 2 3 13 19 26 37 12 18 22 35 22 38 0 3 -17 13 -37 22 -29
13 -34 18 -19 21 10 2 22 -1 26 -8 9 -14 20 10 20 42 0 14 5 18 16 14 10 -4
14 -1 12 6 -3 7 -14 14 -26 16 -22 3 -33 42 -12 42 6 0 10 -4 10 -10 0 -5 20
6 45 24 61 47 84 53 104 28 10 -12 33 -22 59 -25 36 -4 42 -3 42 14 0 20 -15
26 -25 9 -9 -15 -25 -12 -25 4 0 8 -8 17 -17 21 -42 16 19 23 172 21 88 -2
165 1 170 5 6 4 15 -3 22 -17 9 -19 9 -24 0 -21 -17 5 -33 -14 -33 -40 0 -12
2 -20 5 -18 2 3 12 -2 22 -11 21 -19 40 -11 33 14 -3 9 2 6 10 -8 l15 -25 1
23 c0 13 -9 35 -20 49 -21 28 -26 53 -10 53 6 0 10 -7 10 -15 0 -8 5 -15 10
-15 14 0 12 26 -2 38 -8 5 -100 10 -224 11 -171 1 -214 -2 -223 -13z m423 -81
c-4 -8 -11 -12 -16 -9 -6 4 -5 10 3 15 19 12 19 11 13 -6z m-579 -84 c3 -5 1
-12 -4 -15 -5 -4 -12 0 -14 6 -3 8 -6 6 -6 -4 -1 -21 -21 -25 -21 -5 0 25 32
38 45 18z m-35 -71 c0 -5 -4 -10 -10 -10 -5 0 -10 5 -10 10 0 6 5 10 10 10 6
0 10 -4 10 -10z m20 -19 c0 -12 -20 -25 -27 -18 -7 7 6 27 18 27 5 0 9 -4 9
-9z"/>
<path d="M792 1358 c2 -6 19 -17 36 -22 26 -9 30 -14 20 -24 -9 -9 -9 -12 4
-12 9 0 19 6 22 13 4 6 4 2 2 -10 -2 -14 1 -20 8 -17 15 6 34 -74 38 -155 1
-41 -2 -56 -15 -66 -23 -17 -21 -28 3 -20 18 6 20 2 20 -34 0 -32 -3 -39 -15
-35 -8 4 -15 1 -15 -5 0 -6 8 -11 18 -11 15 -1 15 -2 -2 -15 -18 -14 -18 -15
-2 -15 15 0 17 -6 11 -37 -3 -21 -7 -168 -9 -326 l-4 -289 -25 -26 c-13 -15
-33 -40 -43 -57 -26 -43 -66 -85 -81 -85 -7 0 -13 -3 -13 -7 0 -5 -20 -16 -45
-27 -50 -20 -147 -24 -233 -8 -29 5 -71 9 -93 8 -21 -1 -39 4 -39 9 0 6 -3 5
-8 -1 -4 -6 -17 -14 -30 -18 -17 -6 -29 0 -55 26 -17 18 -41 37 -51 43 -22 11
-39 62 -25 71 6 3 7 15 4 25 -4 11 -1 27 6 35 9 11 9 18 1 26 -8 8 -13 7 -18
-5 -3 -9 -10 -17 -15 -17 -4 0 -6 7 -3 15 4 8 1 15 -5 15 -6 0 -11 16 -11 35
0 19 5 35 11 35 6 0 8 -9 4 -20 -4 -11 -2 -20 4 -20 14 0 33 37 22 44 -4 3 -6
16 -4 30 4 18 0 25 -14 29 -16 4 -16 5 0 6 9 0 17 6 17 11 0 15 -27 12 -43 -5
-13 -13 -15 -7 -14 44 2 53 4 58 19 50 12 -7 18 -6 18 1 0 6 -7 13 -15 16 -8
4 -15 17 -15 31 0 20 4 23 23 19 12 -3 16 -3 10 0 -7 3 -13 10 -13 15 0 6 5 7
10 4 17 -11 11 57 -7 77 -16 18 -16 18 0 12 13 -5 17 -1 17 16 0 16 -4 20 -15
16 -12 -4 -15 3 -14 37 2 30 3 34 6 15 6 -42 22 -34 18 9 -2 21 -5 66 -7 100
-2 55 -5 62 -20 57 -16 -5 -18 1 -18 45 0 30 -4 51 -11 51 -11 0 -9 -85 2
-105 4 -5 5 -89 3 -185 -2 -96 -5 -218 -6 -270 -2 -108 25 -288 50 -340 9 -19
28 -40 42 -47 14 -7 35 -25 47 -40 18 -22 28 -26 60 -24 62 6 131 5 253 -3
110 -8 118 -7 170 17 65 29 94 55 139 122 19 28 42 59 52 70 17 19 19 50 25
310 3 160 9 308 13 331 9 48 -11 307 -29 377 -12 44 -17 50 -63 73 -57 27 -71
30 -65 12z m-652 -708 c0 -5 -5 -10 -11 -10 -5 0 -7 5 -4 10 3 6 8 10 11 10 2
0 4 -4 4 -10z m20 -236 c0 -3 -7 -12 -15 -21 -20 -19 -32 -10 -14 11 14 15 29
21 29 10z"/>
<path d="M520 1350 c0 -5 5 -10 11 -10 5 0 7 5 4 10 -3 6 -8 10 -11 10 -2 0
-4 -4 -4 -10z"/>
<path d="M636 1336 c21 -15 30 -14 19 3 -3 6 -14 11 -23 11 -13 0 -13 -2 4
-14z"/>
<path d="M610 1321 c6 -12 18 -21 26 -21 19 0 10 16 -17 31 -19 10 -20 9 -9
-10z"/>
<path d="M460 1304 c0 -8 5 -12 10 -9 6 3 10 10 10 16 0 5 -4 9 -10 9 -5 0
-10 -7 -10 -16z"/>
<path d="M490 1306 c0 -16 18 -31 27 -22 3 3 -2 12 -11 21 -14 14 -16 14 -16
1z"/>
<path d="M300 1290 c0 -5 5 -10 10 -10 6 0 -3 -14 -19 -30 -18 -20 -34 -28
-45 -24 -9 3 -16 1 -16 -6 0 -6 4 -9 9 -6 5 4 12 0 15 -6 3 -10 9 -8 19 5 8 9
22 17 31 17 9 0 22 12 28 26 10 21 9 27 -3 35 -19 12 -29 11 -29 -1z"/>
<path d="M530 1294 c0 -11 28 -33 34 -27 10 10 7 25 -4 18 -5 -3 -10 -1 -10 4
0 6 -4 11 -10 11 -5 0 -10 -3 -10 -6z"/>
<path d="M655 1289 c-11 -16 -1 -19 13 -3 7 8 8 14 3 14 -5 0 -13 -5 -16 -11z"/>
<path d="M256 1277 c3 -10 9 -15 12 -12 3 3 0 11 -7 18 -10 9 -11 8 -5 -6z"/>
<path d="M590 1277 c0 -7 9 -13 20 -14 24 -2 27 12 4 21 -22 8 -24 8 -24 -7z"/>
<path d="M815 1270 c3 -5 14 -10 23 -10 15 0 15 2 2 10 -20 13 -33 13 -25 0z"/>
<path d="M666 1262 c-3 -5 1 -9 9 -9 8 0 12 4 9 9 -3 4 -7 8 -9 8 -2 0 -6 -4
-9 -8z"/>
<path d="M385 1250 c-4 -6 3 -10 14 -10 25 0 27 6 6 13 -8 4 -17 2 -20 -3z"/>
<path d="M298 1203 c7 -3 16 -2 19 1 4 3 -2 6 -13 5 -11 0 -14 -3 -6 -6z"/>
<path d="M877 1187 c-3 -8 1 -14 9 -14 16 0 19 13 5 21 -5 3 -11 0 -14 -7z"/>
<path d="M260 1180 c-9 -6 -10 -10 -3 -10 6 0 15 5 18 10 8 12 4 12 -15 0z"/>
<path d="M187 1163 c-12 -11 -8 -23 8 -23 8 0 15 7 15 15 0 16 -12 20 -23 8z"/>
<path d="M870 1135 c-7 -9 -8 -15 -2 -15 5 0 12 7 16 15 3 8 4 15 2 15 -2 0
-9 -7 -16 -15z"/>
<path d="M883 1090 c1 -11 5 -20 9 -20 3 0 6 9 5 20 -1 11 -5 20 -9 20 -3 0
-6 -9 -5 -20z"/>
<path d="M508 1023 c-16 -4 -18 -18 -18 -108 0 -57 -4 -106 -8 -109 -5 -3 -53
37 -107 89 -55 51 -102 92 -106 89 -4 -2 -10 -18 -14 -34 -5 -25 -2 -34 17
-49 12 -10 39 -34 58 -52 20 -19 64 -60 98 -92 l62 -58 0 -200 0 -200 23 7
c46 14 47 18 47 198 1 195 -15 151 122 333 99 131 107 151 55 138 -15 -4 -51
-39 -92 -91 -36 -46 -70 -84 -74 -84 -4 0 -8 45 -8 101 -1 91 -11 132 -32 128
-3 -1 -14 -3 -23 -6z m26 -137 c0 -60 4 -87 13 -90 6 -3 10 -14 8 -25 -4 -24
10 -37 21 -20 5 8 3 9 -5 4 -10 -6 -11 -3 -2 13 7 13 17 19 26 16 12 -5 10
-11 -7 -35 -12 -15 -25 -26 -30 -23 -5 3 -8 2 -7 -3 4 -24 -2 -43 -13 -37 -8
5 -9 -2 -5 -24 4 -19 2 -32 -3 -32 -6 0 -10 21 -10 48 0 31 3 42 9 33 6 -9 8
-2 7 20 -2 25 -6 33 -18 31 -11 -2 -15 5 -14 22 0 13 4 22 7 20 4 -2 5 18 4
44 -1 26 3 50 9 55 7 5 8 9 1 15 -6 4 -10 13 -9 20 1 6 2 22 3 35 1 13 4 17 9
10 4 -6 7 -50 6 -97z m-194 9 c13 -14 18 -25 12 -25 -6 0 -17 8 -24 18 -7 11
-20 21 -28 25 -13 5 -13 6 1 6 8 1 26 -10 39 -24z m324 -43 c3 -5 -1 -9 -9 -9
-8 0 -12 4 -9 9 3 4 7 8 9 8 2 0 6 -4 9 -8z m-224 -48 c0 4 7 0 16 -9 9 -9 22
-14 29 -11 7 2 12 -3 11 -12 -1 -11 6 -16 17 -16 10 1 16 -3 14 -9 -3 -11 -46
-18 -45 -8 2 20 -3 31 -12 26 -5 -3 -10 0 -10 7 0 10 -3 9 -11 -2 -9 -13 -10
-12 -5 2 3 11 -2 19 -14 23 -10 3 -21 13 -25 22 -5 14 -3 14 15 -2 11 -10 20
-15 20 -11z m97 -226 c-3 -8 -6 -5 -6 6 -1 11 2 17 5 13 3 -3 4 -12 1 -19z
m-4 -40 c6 -28 0 -98 -9 -107 -4 -3 -4 18 -1 47 3 29 3 51 -1 48 -4 -2 -8 4
-8 15 0 26 13 24 19 -3z m-2 -164 c-5 -16 -10 -21 -10 -12 -1 18 10 51 15 45
2 -1 -1 -16 -5 -33z"/>
<path d="M897 1023 c-10 -9 -8 -33 2 -33 5 0 11 9 14 20 5 20 -3 26 -16 13z"/>
<path d="M130 1000 c0 -5 5 -10 10 -10 6 0 10 5 10 10 0 6 -4 10 -10 10 -5 0
-10 -4 -10 -10z"/>
<path d="M349 997 c6 -8 7 -18 3 -22 -4 -5 -1 -5 6 -1 10 6 10 11 1 22 -6 8
-14 14 -16 14 -3 0 0 -6 6 -13z"/>
<path d="M45 989 c-10 -15 3 -25 16 -12 7 7 7 13 1 17 -6 3 -14 1 -17 -5z"/>
<path d="M180 991 c0 -5 5 -13 10 -16 6 -3 10 -2 10 4 0 5 -4 13 -10 16 -5 3
-10 2 -10 -4z"/>
<path d="M400 926 c0 -2 8 -10 18 -17 15 -13 16 -12 3 4 -13 16 -21 21 -21 13z"/>
<path d="M905 910 c-3 -5 -1 -10 4 -10 6 0 11 5 11 10 0 6 -2 10 -4 10 -3 0
-8 -4 -11 -10z"/>
<path d="M445 900 c3 -5 8 -10 11 -10 2 0 4 5 4 10 0 6 -5 10 -11 10 -5 0 -7
-4 -4 -10z"/>
<path d="M229 877 c6 -8 7 -18 3 -22 -4 -5 -1 -5 6 -1 10 6 10 11 1 22 -6 8
-14 14 -16 14 -3 0 0 -6 6 -13z"/>
<path d="M200 781 c0 -6 4 -13 10 -16 6 -3 7 1 4 9 -7 18 -14 21 -14 7z"/>
<path d="M403 718 c1 -7 -4 -12 -11 -10 -8 1 -11 -2 -7 -8 5 -8 11 -8 21 1 7
6 11 15 8 20 -8 13 -14 11 -11 -3z"/>
<path d="M63 685 c0 -8 4 -12 9 -9 5 3 6 10 3 15 -9 13 -12 11 -12 -6z"/>
<path d="M866 658 c3 -5 10 -6 15 -3 13 9 11 12 -6 12 -8 0 -12 -4 -9 -9z"/>
<path d="M140 576 c0 -2 6 -9 13 -15 10 -8 14 -7 14 4 0 8 -6 15 -14 15 -7 0
-13 -2 -13 -4z"/>
<path d="M63 545 c0 -8 4 -12 9 -9 5 3 6 10 3 15 -9 13 -12 11 -12 -6z"/>
<path d="M205 531 c-3 -5 -2 -12 3 -15 5 -3 9 1 9 9 0 17 -3 19 -12 6z"/>
<path d="M150 504 c0 -9 -5 -12 -12 -8 -9 5 -9 3 1 -9 7 -9 17 -14 22 -11 12
7 11 44 -1 44 -5 0 -10 -7 -10 -16z"/>
<path d="M197 429 c7 -7 15 -10 18 -7 3 3 -2 9 -12 12 -14 6 -15 5 -6 -5z"/>
<path d="M160 320 c0 -5 5 -10 10 -10 6 0 10 5 10 10 0 6 -4 10 -10 10 -5 0
-10 -4 -10 -10z"/>
<path d="M840 310 c0 -5 7 -10 16 -10 8 0 12 5 9 10 -3 6 -10 10 -16 10 -5 0
-9 -4 -9 -10z"/>
<path d="M190 245 c0 -8 4 -15 10 -15 5 0 7 7 4 15 -4 8 -8 15 -10 15 -2 0 -4
-7 -4 -15z"/>
<path d="M200 201 c0 -5 7 -12 16 -15 9 -4 14 -13 10 -21 -3 -8 -1 -15 4 -15
18 0 20 20 3 40 -18 21 -33 26 -33 11z"/>
<path d="M696 108 c3 -4 11 -5 19 -1 21 7 19 12 -4 10 -11 0 -18 -5 -15 -9z"/>
<path d="M285 100 c3 -5 10 -10 16 -10 5 0 9 5 9 10 0 6 -7 10 -16 10 -8 0
-12 -4 -9 -10z"/>
<path d="M845 71 c-3 -5 -2 -12 3 -15 5 -3 9 1 9 9 0 17 -3 19 -12 6z"/>
</g>
</svg>
