<?xml version="1.0" standalone="no"?>
<!DOCTYPE svg PUBLIC "-//W3C//DTD SVG 20010904//EN"
 "http://www.w3.org/TR/2001/REC-SVG-20010904/DTD/svg10.dtd">
<svg version="1.0" xmlns="http://www.w3.org/2000/svg"
 width="112.000000pt" height="152.000000pt" viewBox="0 0 112.000000 152.000000"
 preserveAspectRatio="xMidYMid meet">
<metadata>
Created by potrace 1.10, written by Peter Selinger 2001-2011
</metadata>
<g transform="translate(0.000000,152.000000) scale(0.100000,-0.100000)"
fill="#000000" stroke="none">
<path d="M478 1456 c-20 -7 -58 -29 -85 -48 -26 -20 -64 -38 -84 -42 -20 -4
-56 -20 -80 -36 -24 -16 -49 -30 -55 -30 -26 0 -34 -46 -30 -165 2 -66 7 -136
10 -155 6 -32 15 -202 15 -292 0 -21 5 -47 11 -59 18 -32 12 -214 -9 -297
l-18 -73 48 -63 c27 -36 58 -66 72 -70 13 -3 59 -2 103 2 83 7 254 8 364 2 74
-5 92 2 173 70 105 87 118 131 76 257 -8 24 -8 63 0 141 6 59 13 134 16 167 3
32 9 73 14 90 5 16 14 62 21 101 10 56 10 75 0 94 -8 14 -13 62 -13 122 0 110
-9 133 -60 143 -52 12 -151 61 -196 100 -49 40 -55 42 -171 49 -58 4 -97 1
-122 -8z m39 -38 c-3 -18 -4 -28 -1 -22 3 6 18 10 34 8 31 -4 48 10 29 22 -8
4 -9 3 -5 -4 4 -7 2 -12 -3 -12 -6 0 -11 4 -11 10 0 5 -7 7 -15 4 -11 -5 -13
-2 -9 10 7 18 39 22 50 5 5 -8 9 -8 14 1 6 9 11 6 20 -10 10 -18 14 -20 21 -9
7 12 10 12 18 1 4 -8 11 -13 15 -13 25 4 36 -1 36 -16 0 -15 -2 -16 -10 -3 -8
12 -10 12 -10 1 0 -11 -3 -11 -15 -1 -8 7 -21 10 -30 6 -9 -3 -19 3 -26 17
-12 21 -12 21 -20 2 -12 -30 -11 -31 24 -30 38 0 79 -14 71 -26 -3 -5 -1 -9 5
-9 5 0 12 6 15 13 3 8 8 7 16 -6 7 -10 21 -17 33 -15 12 1 28 -1 35 -5 7 -5
12 -4 12 2 0 6 9 2 21 -10 16 -16 23 -18 35 -8 11 9 18 9 26 1 9 -9 7 -12 -7
-13 -13 0 -15 -2 -6 -6 7 -3 22 -14 32 -24 16 -16 16 -18 2 -21 -12 -2 -6 -11
20 -31 36 -27 37 -28 45 -8 5 15 11 18 22 10 11 -8 12 -12 3 -16 -20 -7 -15
-23 4 -16 15 6 16 5 3 -9 -11 -12 -20 -13 -33 -6 -10 5 -23 7 -30 4 -7 -2 -5
-5 4 -5 16 -1 35 -41 19 -41 -4 0 -7 -11 -6 -25 1 -27 6 -31 23 -14 7 7 12 6
16 -5 4 -9 1 -15 -6 -13 -7 1 -13 -10 -15 -25 -2 -20 1 -28 12 -28 8 0 18 -4
21 -10 3 -6 -1 -7 -9 -4 -9 3 -16 1 -16 -5 0 -6 6 -11 13 -11 6 0 13 -13 14
-29 2 -21 -3 -30 -18 -34 -13 -3 -17 -10 -13 -21 5 -14 9 -14 22 -4 13 11 14
11 7 -2 -5 -8 -10 -23 -10 -33 -1 -10 -6 -22 -11 -25 -5 -4 -10 -52 -10 -106
-1 -55 -7 -129 -14 -166 -11 -58 -10 -74 5 -126 26 -91 25 -144 -5 -181 -14
-18 -30 -32 -36 -32 -7 -1 -14 -7 -17 -15 -3 -7 -27 -29 -54 -47 l-48 -33
-160 3 c-88 1 -186 4 -217 6 -32 2 -60 -1 -63 -6 -12 -18 -26 -9 -16 10 9 16
7 18 -17 15 -23 -3 -31 4 -51 39 -13 23 -32 48 -42 55 -11 8 -16 19 -12 29 4
10 2 14 -4 10 -18 -11 -21 41 -5 65 10 16 11 19 2 11 -23 -21 -28 -15 -21 25
3 20 6 125 6 232 0 107 3 197 6 200 12 10 -3 90 -17 90 -8 0 -14 2 -14 4 0 2
-3 13 -7 23 -6 17 -5 17 13 1 19 -17 20 -16 22 29 1 28 -3 50 -11 55 -9 6 -9
10 3 18 8 5 10 10 3 10 -16 0 -5 73 18 119 17 35 17 37 -2 56 -15 15 -21 17
-31 7 -9 -9 -8 -12 4 -12 9 0 20 -5 24 -12 5 -8 2 -9 -9 -5 -9 3 -23 -1 -32
-10 -9 -8 -19 -12 -23 -8 -4 3 1 11 11 16 21 12 13 31 -10 22 -11 -4 -14 -3
-9 5 4 7 13 12 21 12 8 0 18 6 22 13 4 8 20 21 34 31 24 15 27 15 32 1 8 -19
23 -19 30 -1 4 11 1 13 -10 9 -10 -4 -14 -2 -10 5 7 10 109 62 150 75 9 4 17
11 17 17 0 5 4 10 10 10 5 0 7 -8 4 -17 -5 -14 -4 -15 4 -4 5 7 15 11 21 7 6
-4 13 4 17 19 9 37 28 31 21 -7z m-27 12 c0 -5 -2 -10 -4 -10 -3 0 -8 5 -11
10 -3 6 -1 10 4 10 6 0 11 -4 11 -10z m220 6 c0 -11 -19 -15 -25 -6 -3 5 1 10
9 10 9 0 16 -2 16 -4z m45 -46 c-3 -5 -1 -10 6 -10 7 0 10 -2 7 -5 -3 -3 -13
-2 -22 1 -14 5 -15 9 -4 15 17 11 20 11 13 -1z m186 -98 c-7 -2 -18 1 -23 6
-8 8 -4 9 13 5 13 -4 18 -8 10 -11z m29 -22 c0 -5 -4 -10 -10 -10 -5 0 -10 5
-10 10 0 6 5 10 10 10 6 0 10 -4 10 -10z m45 -20 c3 -5 1 -10 -4 -10 -6 0 -11
5 -11 10 0 6 2 10 4 10 3 0 8 -4 11 -10z m-828 -96 c-25 -29 -27 -29 -20 -4 3
11 10 20 15 20 5 0 6 4 3 10 -3 5 0 7 9 4 12 -5 11 -10 -7 -30z m3 -60 c0 -8
-19 -13 -24 -6 -3 5 1 9 9 9 8 0 15 -2 15 -3z m15 -404 c3 -5 1 -10 -4 -10 -6
0 -11 5 -11 10 0 6 2 10 4 10 3 0 8 -4 11 -10z m-6 -412 c-9 -16 -14 -19 -17
-9 -2 7 2 17 9 22 20 13 21 11 8 -13z m41 -28 c0 -5 -5 -10 -11 -10 -5 0 -7 5
-4 10 3 6 8 10 11 10 2 0 4 -4 4 -10z m16 -39 c-4 -5 -2 -11 3 -13 13 -5 24
-48 12 -48 -6 0 -11 6 -11 14 0 7 -7 19 -15 26 -13 11 -13 15 -3 21 17 11 20
11 14 0z"/>
<path d="M525 1369 c-4 -6 -5 -12 -2 -15 2 -3 7 2 10 11 7 17 1 20 -8 4z"/>
<path d="M466 1362 c-3 -5 1 -9 9 -9 8 0 12 4 9 9 -3 4 -7 8 -9 8 -2 0 -6 -4
-9 -8z"/>
<path d="M238 1289 c-16 -9 -16 -11 0 -29 22 -27 32 -25 32 4 0 30 -10 37 -32
25z"/>
<path d="M910 1210 c0 -5 5 -10 10 -10 6 0 10 5 10 10 0 6 -4 10 -10 10 -5 0
-10 -4 -10 -10z"/>
<path d="M945 1160 c-3 -5 -1 -10 4 -10 6 0 11 5 11 10 0 6 -2 10 -4 10 -3 0
-8 -4 -11 -10z"/>
<path d="M577 1093 c-4 -3 -7 -56 -7 -117 l0 -111 -77 78 c-73 75 -103 89
-103 50 0 -10 40 -61 89 -114 l89 -97 -5 -149 c-7 -181 0 -243 27 -243 24 0
53 29 46 46 -10 27 -19 304 -10 304 5 0 36 -27 69 -60 45 -46 62 -57 72 -48
23 19 14 35 -67 111 l-79 75 6 114 c7 131 1 168 -26 168 -10 0 -21 -3 -24 -7z
m35 -48 c0 -5 -5 -10 -11 -11 -8 -2 -7 -1 0 3 8 4 7 8 -2 15 -11 8 -11 9 -1 6
8 -2 14 -8 14 -13z m-2 -125 c0 -5 -2 -10 -4 -10 -3 0 -8 5 -11 10 -3 6 -1 10
4 10 6 0 11 -4 11 -10z m-14 -117 c2 -19 -1 -18 -26 10 -16 18 -26 34 -24 36
2 3 11 -4 20 -15 14 -18 15 -18 9 6 -6 23 -5 24 6 5 7 -11 14 -30 15 -42z m33
-27 c9 -11 9 -16 0 -22 -8 -4 -9 -3 -5 4 4 7 3 12 -3 12 -5 0 -13 -9 -16 -21
-4 -11 -9 -18 -11 -16 -4 4 16 57 21 57 2 0 8 -6 14 -14z"/>
<path d="M670 1046 c0 -2 7 -9 15 -16 13 -11 14 -10 9 4 -5 14 -24 23 -24 12z"/>
<path d="M515 1010 c3 -5 8 -10 11 -10 2 0 4 5 4 10 0 6 -5 10 -11 10 -5 0 -7
-4 -4 -10z"/>
<path d="M951 954 c0 -11 3 -14 6 -6 3 7 2 16 -1 19 -3 4 -6 -2 -5 -13z"/>
<path d="M980 880 c0 -5 5 -10 11 -10 5 0 7 5 4 10 -3 6 -8 10 -11 10 -2 0 -4
-4 -4 -10z"/>
<path d="M925 611 c-3 -5 -1 -12 5 -16 5 -3 10 1 10 9 0 18 -6 21 -15 7z"/>
<path d="M730 576 c0 -2 7 -7 16 -10 8 -3 12 -2 9 4 -6 10 -25 14 -25 6z"/>
<path d="M930 560 c-9 -6 -10 -10 -3 -10 6 0 15 5 18 10 8 12 4 12 -15 0z"/>
<path d="M370 211 c0 -6 4 -13 10 -16 6 -3 7 1 4 9 -7 18 -14 21 -14 7z"/>
<path d="M785 210 c-3 -5 -1 -10 4 -10 6 0 11 5 11 10 0 6 -2 10 -4 10 -3 0
-8 -4 -11 -10z"/>
<path d="M345 1421 c-3 -5 -2 -12 3 -15 5 -3 9 1 9 9 0 17 -3 19 -12 6z"/>
<path d="M1080 1281 c0 -6 4 -13 10 -16 6 -3 7 1 4 9 -7 18 -14 21 -14 7z"/>
<path d="M1080 1180 c-9 -6 -10 -10 -3 -10 6 0 15 5 18 10 8 12 4 12 -15 0z"/>
</g>
</svg>
