<?xml version="1.0" standalone="no"?>
<!DOCTYPE svg PUBLIC "-//W3C//DTD SVG 20010904//EN"
 "http://www.w3.org/TR/2001/REC-SVG-20010904/DTD/svg10.dtd">
<svg version="1.0" xmlns="http://www.w3.org/2000/svg"
 width="112.000000pt" height="152.000000pt" viewBox="0 0 112.000000 152.000000"
 preserveAspectRatio="xMidYMid meet">
<metadata>
Created by potrace 1.10, written by Peter Selinger 2001-2011
</metadata>
<g transform="translate(0.000000,152.000000) scale(0.100000,-0.100000)"
fill="#000000" stroke="none">
<path d="M316 1497 c3 -10 9 -15 12 -12 3 3 0 11 -7 18 -10 9 -11 8 -5 -6z"/>
<path d="M799 1508 c-5 -18 -6 -59 -2 -54 7 6 13 56 7 56 -2 0 -4 -1 -5 -2z"/>
<path d="M669 1476 c-3 -3 -83 -8 -178 -10 -153 -4 -176 -7 -206 -26 -19 -12
-35 -25 -35 -28 0 -4 -14 -15 -31 -24 -17 -10 -27 -22 -24 -28 3 -5 0 -10 -8
-10 -7 0 -23 -24 -34 -52 -30 -76 -32 -84 -38 -178 -3 -47 -8 -105 -10 -130
-3 -25 -7 -130 -9 -234 -3 -103 -8 -196 -11 -206 -3 -10 6 -49 20 -86 15 -38
33 -98 41 -134 27 -115 50 -156 102 -182 46 -23 53 -23 302 -20 280 3 268 1
381 74 65 41 93 81 85 121 -3 18 -9 49 -12 69 -5 27 -11 36 -25 35 -13 -1 -15
-4 -8 -14 6 -7 8 -16 5 -22 -3 -5 0 -12 6 -14 10 -4 10 -7 0 -15 -11 -7 -11
-10 2 -15 44 -17 -19 -127 -73 -127 -20 0 -23 -2 -11 -10 13 -8 12 -10 -2 -10
-10 0 -18 -3 -18 -8 0 -4 -17 -15 -38 -24 -30 -13 -88 -18 -272 -23 -207 -6
-241 -5 -285 10 -27 9 -57 24 -66 32 -21 18 -83 221 -81 266 0 9 -3 17 -8 17
-14 0 -22 51 -21 130 2 139 13 385 17 389 10 10 17 -11 17 -50 0 -25 3 -36 8
-27 13 20 7 77 -8 90 -11 9 -11 13 -2 19 10 6 10 11 0 23 -10 12 -11 16 -1 16
8 0 10 9 6 26 -4 15 -3 23 2 20 5 -3 10 5 10 18 0 13 9 35 21 47 24 26 10 40
-15 15 -19 -20 -25 -20 -18 -1 4 8 10 15 15 15 5 0 9 5 9 11 0 6 -6 9 -14 6
-12 -5 -12 0 -5 26 5 18 9 33 9 35 0 1 9 -2 20 -8 25 -13 26 -2 3 16 -12 9
-14 13 -5 14 7 0 10 5 6 11 -7 12 15 31 28 23 4 -3 3 -14 -3 -26 -7 -14 -8
-23 -1 -30 6 -6 8 -16 5 -23 -3 -10 2 -12 16 -8 12 3 21 13 21 25 0 14 -5 18
-15 14 -8 -3 -15 -1 -15 5 0 7 10 9 25 5 18 -5 27 -2 31 8 3 9 13 12 22 9 9
-3 4 4 -11 17 -23 18 -31 20 -37 10 -5 -8 -8 -4 -7 13 2 32 2 32 27 7 28 -28
44 -25 25 4 -17 26 -11 56 12 56 9 0 11 5 7 13 -5 8 -2 8 9 -2 14 -11 17 -11
17 1 0 10 12 14 40 14 36 0 45 -6 41 -28 -2 -12 17 -10 24 2 3 6 1 10 -4 10
-6 0 -11 4 -11 8 0 5 51 9 114 9 63 0 119 4 124 7 17 10 64 -13 69 -33 3 -13
11 -17 20 -14 13 5 13 3 2 -15 -7 -11 -17 -18 -21 -16 -4 3 -8 0 -8 -5 0 -20
38 -11 43 9 3 11 11 20 18 20 10 0 10 -3 1 -12 -17 -17 -15 -31 3 -24 9 3 15
0 15 -9 0 -19 4 -19 40 0 17 9 30 11 30 5 0 -5 -6 -10 -13 -10 -29 0 -36 -22
-15 -50 11 -15 21 -38 21 -51 2 -19 8 -24 29 -25 16 -1 28 2 28 5 0 3 9 12 19
18 16 10 20 9 23 -12 3 -15 1 -22 -7 -19 -6 3 -12 -1 -12 -8 0 -7 -4 -21 -8
-30 -4 -11 -3 -18 3 -18 6 0 14 10 18 22 6 19 9 15 19 -25 16 -63 11 -97 -16
-118 -20 -15 -21 -19 -10 -33 12 -14 11 -19 -4 -36 -10 -11 -13 -20 -7 -20 6
0 12 5 14 11 8 23 38 -4 38 -33 0 -25 -2 -28 -14 -18 -8 6 -12 19 -9 27 4 11
3 14 -6 9 -7 -5 -10 -15 -6 -24 3 -8 0 -19 -7 -23 -7 -4 -9 -11 -5 -16 5 -4
12 -1 17 7 5 8 12 11 17 7 7 -7 -8 -22 -31 -30 -5 -2 -3 -13 4 -26 10 -19 10
-25 -1 -32 -11 -7 -10 -9 4 -9 15 0 15 -3 5 -20 -10 -16 -10 -24 -1 -40 10
-15 10 -18 0 -15 -8 4 -12 -9 -13 -45 0 -65 21 -67 32 -2 14 86 16 97 20 157
2 33 7 81 10 106 7 58 -10 237 -32 322 -20 81 -46 112 -102 122 -23 4 -44 11
-48 16 -3 5 -13 9 -24 9 -10 0 -33 14 -51 31 -31 29 -78 47 -90 35z m261 -136
c0 -5 -7 -10 -15 -10 -8 0 -15 5 -15 10 0 6 7 10 15 10 8 0 15 -4 15 -10z
m-50 -15 c-7 -8 -17 -12 -22 -9 -6 4 -5 10 3 15 22 14 33 10 19 -6z m40 -14
c0 -6 -4 -13 -10 -16 -5 -3 -10 -12 -9 -18 0 -8 3 -7 6 2 4 11 7 11 14 0 4 -7
11 -10 16 -6 4 5 1 12 -6 16 -8 5 -9 11 -3 15 5 3 15 -1 22 -9 10 -13 9 -19
-5 -35 -19 -21 -41 -28 -29 -8 5 7 1 9 -12 6 -17 -4 -20 0 -20 28 0 26 4 34
18 34 10 0 18 -4 18 -9z m-770 -167 c0 -8 -4 -12 -10 -9 -5 3 -10 10 -10 16 0
5 5 9 10 9 6 0 10 -7 10 -16z m842 -121 c-10 -4 -9 -8 3 -17 16 -11 15 -13 -1
-27 -16 -12 -17 -12 -11 4 4 12 1 20 -10 24 -14 6 -14 8 2 20 10 7 21 10 24 7
3 -4 0 -9 -7 -11z m8 -213 c0 -5 -2 -10 -4 -10 -3 0 -8 5 -11 10 -3 6 -1 10 4
10 6 0 11 -4 11 -10z"/>
<path d="M610 1430 c0 -5 7 -7 15 -4 8 4 15 8 15 10 0 2 -7 4 -15 4 -8 0 -15
-4 -15 -10z"/>
<path d="M670 1430 c0 -5 5 -10 10 -10 6 0 10 5 10 10 0 6 -4 10 -10 10 -5 0
-10 -4 -10 -10z"/>
<path d="M173 1417 c0 -8 6 -14 14 -14 9 0 10 4 2 14 -6 7 -12 13 -14 13 -1 0
-2 -6 -2 -13z"/>
<path d="M392 1409 c-7 -11 -11 -24 -8 -27 10 -9 28 15 24 32 -2 14 -5 13 -16
-5z"/>
<path d="M431 1394 c-21 -20 -29 -34 -22 -38 6 -4 11 -1 11 8 0 9 5 16 10 16
6 0 10 -7 10 -15 0 -8 5 -15 10 -15 14 0 13 17 -2 26 -8 5 -6 11 7 20 9 7 15
16 14 21 -2 4 -19 -6 -38 -23z"/>
<path d="M490 1420 c0 -5 4 -10 9 -10 6 0 13 5 16 10 3 6 -1 10 -9 10 -9 0
-16 -4 -16 -10z"/>
<path d="M538 1423 c18 -7 4 -23 -20 -23 -12 0 -19 -3 -15 -6 10 -10 54 4 60
19 3 8 -3 13 -17 14 -11 0 -15 -1 -8 -4z"/>
<path d="M640 1410 c0 -5 5 -10 10 -10 6 0 10 5 10 10 0 6 -4 10 -10 10 -5 0
-10 -4 -10 -10z"/>
<path d="M699 1392 c-13 -15 -13 -20 -2 -30 7 -7 13 -11 14 -10 3 12 7 58 6
58 -2 0 -10 -8 -18 -18z"/>
<path d="M310 1390 c0 -5 5 -10 10 -10 6 0 10 5 10 10 0 6 -4 10 -10 10 -5 0
-10 -4 -10 -10z"/>
<path d="M342 1379 c-14 -22 -7 -25 14 -5 8 8 11 17 6 20 -4 2 -13 -4 -20 -15z"/>
<path d="M565 1390 c-3 -5 -1 -10 4 -10 6 0 11 5 11 10 0 6 -2 10 -4 10 -3 0
-8 -4 -11 -10z"/>
<path d="M616 1374 c-9 -8 -22 -12 -28 -8 -8 4 -10 3 -5 -2 16 -17 53 -11 54
8 2 22 -1 22 -21 2z"/>
<path d="M490 1372 c0 -5 7 -13 16 -16 23 -9 24 -8 23 12 0 11 -2 12 -6 4 -4
-10 -8 -10 -19 -1 -8 7 -14 7 -14 1z"/>
<path d="M661 1364 c0 -11 3 -14 6 -6 3 7 2 16 -1 19 -3 4 -6 -2 -5 -13z"/>
<path d="M365 1360 c3 -5 10 -10 16 -10 5 0 9 5 9 10 0 6 -7 10 -16 10 -8 0
-12 -4 -9 -10z"/>
<path d="M545 1360 c-3 -5 1 -10 10 -10 9 0 13 5 10 10 -3 6 -8 10 -10 10 -2
0 -7 -4 -10 -10z"/>
<path d="M160 1255 c0 -8 27 -35 34 -35 14 0 4 20 -14 30 -11 6 -20 8 -20 5z"/>
<path d="M884 1208 c-4 -6 -3 -8 4 -4 6 3 18 -4 26 -16 13 -18 16 -19 16 -6 0
22 -36 43 -46 26z"/>
<path d="M410 1181 c0 -6 4 -13 10 -16 6 -3 7 1 4 9 -7 18 -14 21 -14 7z"/>
<path d="M506 1178 c3 -5 10 -6 15 -3 13 9 11 12 -6 12 -8 0 -12 -4 -9 -9z"/>
<path d="M600 1186 c0 -2 7 -7 16 -10 8 -3 12 -2 9 4 -6 10 -25 14 -25 6z"/>
<path d="M702 1174 c10 -10 20 -16 22 -13 3 3 -5 11 -17 18 -21 13 -21 12 -5
-5z"/>
<path d="M456 1141 c-16 -17 -14 -22 29 -86 25 -37 45 -72 45 -77 0 -5 -32
-56 -71 -114 l-71 -105 44 -47 c24 -26 57 -64 72 -85 l29 -38 -21 -29 c-26
-35 -82 -143 -82 -159 0 -12 20 -14 44 -5 9 3 32 37 52 75 20 38 40 69 44 69
4 0 37 -32 74 -71 63 -67 86 -78 86 -41 0 9 -27 53 -60 97 -33 44 -60 84 -60
88 0 5 9 21 20 35 12 15 41 53 65 85 l44 59 -50 66 c-27 37 -56 81 -65 98 -16
30 -16 31 30 102 25 40 46 76 46 81 0 15 -27 20 -42 8 -19 -16 -63 -78 -71
-99 -10 -28 -19 -22 -62 43 -22 33 -43 63 -46 65 -4 2 -14 -5 -23 -15z m122
-131 c7 0 12 5 12 12 0 6 3 8 6 5 4 -4 3 -12 -3 -19 -5 -7 -10 -24 -11 -37 -1
-31 -9 -38 -25 -21 -10 10 -9 11 2 5 8 -5 6 3 -5 21 -12 18 -14 25 -5 20 9 -6
12 -5 9 5 -3 8 -11 14 -19 14 -8 0 -14 5 -14 10 0 6 -4 17 -9 25 -5 8 4 3 21
-12 16 -16 34 -28 41 -28z m-38 -94 c0 -2 -8 -10 -17 -17 -16 -13 -17 -12 -4
4 13 16 21 21 21 13z m81 -47 c24 -29 43 -58 43 -66 -3 -21 -85 -143 -98 -143
-17 0 -28 11 -65 59 -28 35 -32 46 -23 60 6 9 27 44 47 79 20 34 40 62 44 62
4 0 28 -23 52 -51z m-165 -77 l-29 -27 23 32 c13 18 26 30 29 28 3 -3 -8 -18
-23 -33z m4 -26 c0 -2 -8 -10 -17 -17 -16 -13 -17 -12 -4 4 13 16 21 21 21 13z
m228 -3 c-10 -2 -18 -11 -18 -18 0 -8 -5 -17 -12 -21 -6 -4 -9 -3 -6 2 3 5 8
17 11 27 4 9 14 16 24 16 17 -1 17 -2 1 -6z m-114 -128 c11 29 24 6 20 -36 -2
-24 0 -38 6 -34 6 3 10 -1 10 -9 0 -9 5 -16 10 -16 6 0 10 -5 10 -12 0 -6 -13
0 -28 15 -22 22 -31 24 -41 14 -10 -10 -11 -9 -6 6 5 11 2 17 -6 17 -10 0 -10
3 -1 12 16 16 15 31 0 22 -7 -4 -10 -4 -6 1 4 4 2 15 -4 24 -9 11 -7 11 8 -2
19 -16 22 -16 28 -2z m-64 -145 c-12 -16 -24 -30 -26 -30 -3 0 4 14 16 30 12
17 24 30 26 30 3 0 -4 -13 -16 -30z"/>
<path d="M583 795 c-3 -9 -3 -18 -1 -21 3 -3 8 4 11 16 6 23 -1 27 -10 5z"/>
<path d="M615 801 c-3 -5 -2 -12 3 -15 5 -3 9 1 9 9 0 17 -3 19 -12 6z"/>
<path d="M523 783 c-17 -6 -17 -20 0 -26 8 -3 13 3 13 14 0 11 0 19 -1 18 0 0
-6 -3 -12 -6z"/>
<path d="M595 759 c-4 -6 -5 -12 -2 -15 2 -3 7 2 10 11 7 17 1 20 -8 4z"/>
<path d="M572 615 c-17 -37 -14 -45 4 -12 9 16 14 31 11 33 -2 2 -9 -7 -15
-21z"/>
<path d="M920 1150 c0 -5 4 -10 10 -10 5 0 7 -8 3 -17 -6 -16 -4 -16 15 1 26
22 28 28 7 20 -8 -4 -15 -1 -15 5 0 6 -4 11 -10 11 -5 0 -10 -4 -10 -10z"/>
<path d="M895 1141 c-3 -5 -2 -12 3 -15 5 -3 9 1 9 9 0 17 -3 19 -12 6z"/>
<path d="M210 1120 c-9 -6 -10 -10 -3 -10 6 0 15 5 18 10 8 12 4 12 -15 0z"/>
<path d="M947 1099 c-10 -11 -16 -23 -14 -26 5 -5 47 33 47 42 0 12 -17 4 -33
-16z"/>
<path d="M694 1050 c2 -16 20 -14 24 2 3 10 2 10 -6 -1 -7 -9 -11 -10 -15 -2
-4 7 -5 8 -3 1z"/>
<path d="M890 1047 c0 -2 6 -10 14 -16 11 -9 16 -9 22 1 4 7 4 10 -1 6 -4 -4
-14 -3 -22 3 -7 6 -13 9 -13 6z"/>
<path d="M890 961 c0 -6 4 -13 10 -16 6 -3 7 1 4 9 -7 18 -14 21 -14 7z"/>
<path d="M704 929 c0 -10 3 -16 7 -13 4 2 9 -2 12 -8 2 -7 4 -1 3 13 -1 28
-22 36 -22 8z"/>
<path d="M140 876 c0 -9 5 -16 10 -16 6 0 10 4 10 9 0 6 -4 13 -10 16 -5 3
-10 -1 -10 -9z"/>
<path d="M135 840 c-3 -5 1 -10 10 -10 9 0 13 5 10 10 -3 6 -8 10 -10 10 -2 0
-7 -4 -10 -10z"/>
<path d="M136 811 c-4 -5 -2 -12 3 -15 5 -4 12 -2 15 3 4 5 2 12 -3 15 -5 4
-12 2 -15 -3z"/>
<path d="M140 761 c0 -6 5 -13 10 -16 6 -3 10 1 10 9 0 9 -4 16 -10 16 -5 0
-10 -4 -10 -9z"/>
<path d="M138 698 c-6 -17 1 -38 13 -38 5 0 8 9 6 20 -4 25 -13 34 -19 18z"/>
<path d="M699 693 c-13 -16 -12 -17 4 -4 9 7 17 15 17 17 0 8 -8 3 -21 -13z"/>
<path d="M694 659 c-3 -6 -2 -15 3 -20 5 -5 9 -1 9 11 0 23 -2 24 -12 9z"/>
<path d="M958 614 c-4 -3 -5 -11 -3 -17 3 -7 6 -38 9 -71 2 -32 10 -63 16 -70
9 -8 10 6 5 64 -7 76 -16 106 -27 94z"/>
<path d="M135 590 c3 -5 8 -10 11 -10 2 0 4 5 4 10 0 6 -5 10 -11 10 -5 0 -7
-4 -4 -10z"/>
<path d="M468 593 c7 -3 16 -2 19 1 4 3 -2 6 -13 5 -11 0 -14 -3 -6 -6z"/>
<path d="M1031 584 c0 -11 3 -14 6 -6 3 7 2 16 -1 19 -3 4 -6 -2 -5 -13z"/>
<path d="M130 560 c0 -5 5 -10 10 -10 6 0 10 5 10 10 0 6 -4 10 -10 10 -5 0
-10 -4 -10 -10z"/>
<path d="M570 470 c-8 -5 -12 -12 -9 -15 4 -3 12 1 19 10 14 17 11 19 -10 5z"/>
<path d="M950 450 c0 -5 5 -10 10 -10 6 0 10 5 10 10 0 6 -4 10 -10 10 -5 0
-10 -4 -10 -10z"/>
<path d="M781 434 c0 -11 3 -14 6 -6 3 7 2 16 -1 19 -3 4 -6 -2 -5 -13z"/>
<path d="M536 411 c-3 -5 1 -11 9 -14 9 -4 12 -1 8 9 -6 16 -10 17 -17 5z"/>
<path d="M945 400 c3 -5 8 -10 11 -10 2 0 4 5 4 10 0 6 -5 10 -11 10 -5 0 -7
-4 -4 -10z"/>
<path d="M947 373 c-4 -3 -7 -11 -7 -17 0 -6 5 -5 12 2 6 6 9 14 7 17 -3 3 -9
2 -12 -2z"/>
<path d="M93 325 c0 -8 4 -12 9 -9 5 3 6 10 3 15 -9 13 -12 11 -12 -6z"/>
<path d="M940 330 c0 -5 5 -10 10 -10 6 0 10 5 10 10 0 6 -4 10 -10 10 -5 0
-10 -4 -10 -10z"/>
<path d="M958 293 c7 -3 16 -2 19 1 4 3 -2 6 -13 5 -11 0 -14 -3 -6 -6z"/>
<path d="M1025 270 c-3 -5 -1 -10 4 -10 6 0 11 5 11 10 0 6 -2 10 -4 10 -3 0
-8 -4 -11 -10z"/>
<path d="M923 253 c-15 -5 -17 -23 -4 -23 5 0 11 7 15 15 3 8 4 15 3 14 -1 0
-8 -3 -14 -6z"/>
<path d="M817 219 c7 -7 15 -10 18 -7 3 3 -2 9 -12 12 -14 6 -15 5 -6 -5z"/>
<path d="M610 190 c0 -19 3 -21 12 -12 9 9 9 15 0 24 -9 9 -12 7 -12 -12z"/>
<path d="M650 200 c0 -5 4 -10 9 -10 6 0 13 5 16 10 3 6 -1 10 -9 10 -9 0 -16
-4 -16 -10z"/>
<path d="M256 82 c-2 -4 4 -8 14 -8 10 0 16 4 14 8 -7 10 -21 10 -28 0z"/>
</g>
</svg>
