<?xml version="1.0" standalone="no"?>
<!DOCTYPE svg PUBLIC "-//W3C//DTD SVG 20010904//EN"
 "http://www.w3.org/TR/2001/REC-SVG-20010904/DTD/svg10.dtd">
<svg version="1.0" xmlns="http://www.w3.org/2000/svg"
 width="112.000000pt" height="140.000000pt" viewBox="0 0 112.000000 140.000000"
 preserveAspectRatio="xMidYMid meet">
<metadata>
Created by potrace 1.10, written by Peter Selinger 2001-2011
</metadata>
<g transform="translate(0.000000,140.000000) scale(0.100000,-0.100000)"
fill="#000000" stroke="none">
<path d="M497 1364 c-1 -1 -51 -5 -112 -8 -60 -4 -116 -11 -125 -16 -38 -21
-89 -91 -116 -160 -33 -85 -32 -55 -14 -508 9 -257 10 -265 39 -332 42 -100
105 -170 178 -196 88 -32 223 -36 354 -10 101 21 156 47 202 95 60 64 67 80
59 141 -9 71 -9 206 0 520 8 274 4 323 -27 329 -11 2 -47 28 -81 57 -47 41
-69 54 -93 54 -18 0 -46 8 -64 17 -23 12 -57 17 -115 18 -46 0 -84 -1 -85 -1z
m198 -36 c33 -11 70 -20 82 -20 14 0 20 -5 16 -14 -3 -8 1 -14 11 -14 9 0 19
-7 23 -16 3 -8 12 -13 19 -10 8 3 14 1 14 -5 0 -15 26 -39 34 -32 3 4 6 -1 6
-10 0 -8 -6 -18 -12 -20 -8 -4 -9 -6 -2 -6 6 -1 17 6 24 14 10 12 16 13 26 4
8 -6 14 -16 14 -21 0 -6 -7 -5 -15 2 -9 7 -17 11 -18 9 -1 -2 -9 -13 -17 -24
-12 -17 -12 -18 0 -7 8 6 18 12 23 12 5 0 5 -6 -1 -12 -7 -9 -6 -17 3 -25 11
-10 14 -10 18 0 2 7 4 -1 4 -16 l1 -28 -24 22 c-28 26 -31 19 -8 -16 9 -14 20
-22 25 -19 12 7 11 -3 -1 -26 -13 -25 -56 -50 -48 -28 7 17 -28 22 -38 6 -5
-7 -2 -9 9 -5 9 3 18 0 21 -9 4 -10 14 -13 33 -9 16 3 22 2 13 -2 -20 -10 -26
-37 -7 -30 10 4 15 -2 15 -18 0 -14 -8 -25 -19 -28 -11 -3 -19 -1 -19 4 0 5 5
9 10 9 6 0 10 5 10 11 0 5 -4 8 -9 5 -5 -4 -11 -3 -14 1 -2 5 -2 2 -1 -4 2 -7
-2 -13 -8 -13 -7 0 -6 -5 2 -15 7 -9 21 -13 31 -10 29 10 22 -11 -8 -26 -20
-10 -29 -23 -30 -42 -1 -18 2 -27 10 -24 7 2 11 13 10 25 -1 11 5 23 14 26 18
7 32 -2 18 -12 -13 -9 -19 -46 -7 -38 5 3 9 -6 9 -19 1 -14 -3 -25 -8 -25 -5
0 -9 4 -9 9 0 12 -49 20 -56 10 -3 -5 3 -9 13 -9 26 -1 49 -22 50 -45 0 -11 3
-28 8 -37 5 -14 2 -18 -15 -18 -12 0 -18 -4 -15 -10 4 -6 11 -8 16 -5 13 9 23
-22 13 -42 -4 -10 -7 -21 -6 -25 1 -4 -5 -5 -13 -2 -8 4 -15 2 -15 -4 0 -5 7
-12 15 -16 8 -3 15 -12 15 -19 0 -16 -32 -19 -42 -3 -5 7 -8 7 -8 1 0 -6 11
-23 26 -38 22 -24 23 -29 10 -42 -8 -8 -20 -15 -26 -15 -6 0 -8 -5 -4 -11 4
-8 9 -8 17 0 19 19 30 12 25 -14 -3 -14 -1 -25 3 -25 5 0 9 -8 8 -17 0 -11 -3
-13 -6 -5 -2 6 -12 12 -21 12 -13 -1 -10 -6 11 -23 15 -13 27 -27 27 -32 0 -5
-5 -4 -12 3 -21 21 -31 13 -14 -13 21 -31 20 -48 -2 -68 -14 -13 -21 -14 -30
-5 -9 9 -15 9 -24 0 -9 -9 -8 -12 5 -12 10 0 17 -8 17 -20 0 -11 -4 -20 -10
-20 -5 0 -7 7 -4 15 5 11 2 13 -10 9 -9 -3 -16 -1 -16 5 0 8 -11 6 -30 -6 -16
-9 -30 -23 -30 -30 0 -6 -5 -15 -11 -18 -6 -4 -9 0 -7 10 2 10 -3 20 -10 22
-7 3 -10 -1 -6 -11 3 -9 1 -16 -5 -16 -6 0 -11 -8 -11 -17 0 -10 4 -14 8 -8 4
6 20 11 36 12 42 3 18 -18 -28 -24 -31 -4 -36 -2 -36 16 0 12 -4 21 -10 21 -5
0 -10 -9 -10 -19 0 -26 -16 -35 -62 -35 -21 0 -38 -4 -38 -8 0 -4 -5 -8 -10
-8 -6 0 -10 6 -8 12 3 20 -12 58 -23 58 -6 0 -8 -9 -4 -19 6 -21 -7 -34 -42
-39 -17 -2 -24 4 -29 22 -7 27 -34 57 -34 37 0 -6 5 -11 10 -11 6 0 10 -12 10
-26 0 -14 -4 -23 -10 -19 -6 4 -8 11 -5 16 4 5 1 9 -4 9 -6 0 -11 -6 -11 -12
0 -9 -3 -8 -10 2 -8 12 -10 12 -16 -3 -3 -9 -10 -17 -16 -17 -5 0 -6 5 -2 11
4 7 0 9 -12 5 -13 -4 -28 2 -44 17 -14 13 -33 26 -42 30 -10 3 -18 13 -18 22
0 8 -9 15 -19 15 -41 0 -100 129 -106 230 -2 36 -7 151 -10 255 -3 105 -8 224
-11 265 -5 78 8 152 33 181 8 9 13 20 12 25 -4 18 30 80 61 109 30 29 36 30
143 35 228 11 250 10 312 -12z m158 -1100 c3 -8 -5 -14 -19 -14 -13 -1 -24 2
-24 8 0 5 5 6 10 3 6 -3 10 -1 10 4 0 15 17 14 23 -1z m-283 -88 c0 -5 -5 -10
-11 -10 -5 0 -7 5 -4 10 3 6 8 10 11 10 2 0 4 -4 4 -10z"/>
<path d="M627 1309 c7 -7 15 -10 18 -7 3 3 -2 9 -12 12 -14 6 -15 5 -6 -5z"/>
<path d="M288 1293 c7 -3 16 -2 19 1 4 3 -2 6 -13 5 -11 0 -14 -3 -6 -6z"/>
<path d="M217 1239 c7 -7 15 -10 18 -7 3 3 -2 9 -12 12 -14 6 -15 5 -6 -5z"/>
<path d="M255 1240 c3 -5 8 -10 11 -10 2 0 4 5 4 10 0 6 -5 10 -11 10 -5 0 -7
-4 -4 -10z"/>
<path d="M285 1240 c-3 -5 1 -10 10 -10 9 0 13 5 10 10 -3 6 -8 10 -10 10 -2
0 -7 -4 -10 -10z"/>
<path d="M810 1230 c0 -5 5 -10 10 -10 6 0 10 5 10 10 0 6 -4 10 -10 10 -5 0
-10 -4 -10 -10z"/>
<path d="M220 1208 c0 -4 5 -10 10 -13 18 -11 12 -35 -7 -28 -15 6 -16 5 -3
-9 9 -10 17 -12 21 -6 4 7 8 6 10 -1 3 -7 5 6 5 28 1 33 -2 39 -17 38 -11 -1
-19 -5 -19 -9z"/>
<path d="M844 1204 c3 -9 6 -18 6 -20 0 -3 4 -3 10 1 11 7 2 35 -12 35 -6 0
-7 -7 -4 -16z"/>
<path d="M280 1180 c0 -5 5 -10 10 -10 6 0 10 5 10 10 0 6 -4 10 -10 10 -5 0
-10 -4 -10 -10z"/>
<path d="M837 1165 c5 -15 33 -28 41 -20 3 3 0 5 -7 5 -7 0 -10 4 -7 9 3 5 -3
11 -13 14 -13 3 -18 1 -14 -8z"/>
<path d="M190 1136 c0 -2 7 -6 15 -10 8 -3 15 -1 15 4 0 6 -7 10 -15 10 -8 0
-15 -2 -15 -4z"/>
<path d="M235 1120 c-3 -5 -1 -10 4 -10 6 0 11 5 11 10 0 6 -2 10 -4 10 -3 0
-8 -4 -11 -10z"/>
<path d="M181 1104 c0 -11 3 -14 6 -6 3 7 2 16 -1 19 -3 4 -6 -2 -5 -13z"/>
<path d="M842 1098 c2 -6 10 -14 16 -16 7 -2 10 2 6 12 -7 18 -28 22 -22 4z"/>
<path d="M883 1096 c4 -10 2 -25 -4 -32 -9 -11 -8 -14 5 -14 9 0 16 6 16 13 0
8 3 7 10 -3 5 -8 12 -11 16 -7 5 4 -5 20 -21 35 -21 20 -27 22 -22 8z"/>
<path d="M230 1079 c0 -5 5 -7 10 -4 6 3 10 8 10 11 0 2 -4 4 -10 4 -5 0 -10
-5 -10 -11z"/>
<path d="M837 1059 c7 -7 15 -10 18 -7 3 3 -2 9 -12 12 -14 6 -15 5 -6 -5z"/>
<path d="M230 1040 c0 -5 5 -10 10 -10 6 0 10 5 10 10 0 6 -4 10 -10 10 -5 0
-10 -4 -10 -10z"/>
<path d="M590 1036 c0 -2 8 -10 18 -17 15 -13 16 -12 3 4 -13 16 -21 21 -21
13z"/>
<path d="M635 970 c-44 -32 -84 -63 -90 -67 -23 -20 -38 -25 -44 -16 -12 18
-185 133 -199 133 -13 0 -14 -24 -7 -182 4 -101 8 -221 9 -268 1 -82 2 -85 25
-88 l24 -4 -6 100 -6 100 37 34 c41 37 136 108 146 108 3 0 47 -29 98 -64 l93
-64 6 -116 c4 -65 9 -119 12 -122 7 -7 35 6 39 19 3 7 -1 98 -8 202 -7 105
-14 217 -15 250 -1 61 -12 105 -26 105 -5 0 -44 -27 -88 -60z m-309 4 c-4 -12
-2 -15 9 -10 21 8 19 -1 -4 -14 -16 -8 -19 -7 -16 8 2 9 4 20 4 25 1 4 4 7 7
7 3 0 3 -7 0 -16z m389 -4 c3 -6 -1 -7 -9 -4 -18 7 -21 14 -7 14 6 0 13 -4 16
-10z m-9 -96 c3 -43 7 -84 9 -91 9 -28 -20 -22 -80 17 -36 23 -65 46 -65 50 0
8 123 109 128 105 1 -1 5 -38 8 -81z m-292 25 c36 -23 66 -42 66 -44 0 -5
-110 -86 -125 -91 -13 -5 -15 8 -15 85 0 50 2 91 4 91 3 0 34 -19 70 -41z
m-65 -180 c-11 -22 -29 -34 -29 -20 0 6 5 11 11 11 6 0 9 6 6 13 -3 8 1 14 8
14 10 0 11 -5 4 -18z m381 1 c6 -11 8 -20 6 -20 -3 0 -10 9 -16 20 -6 11 -8
20 -6 20 3 0 10 -9 16 -20z"/>
<path d="M868 988 c5 -5 16 -8 23 -6 8 3 3 7 -10 11 -17 4 -21 3 -13 -5z"/>
<path d="M836 963 c-6 -14 -5 -15 5 -6 7 7 10 15 7 18 -3 3 -9 -2 -12 -12z"/>
<path d="M855 940 c3 -5 8 -10 11 -10 2 0 4 5 4 10 0 6 -5 10 -11 10 -5 0 -7
-4 -4 -10z"/>
<path d="M500 936 c0 -2 8 -10 18 -17 15 -13 16 -12 3 4 -13 16 -21 21 -21 13z"/>
<path d="M860 911 c0 -5 7 -12 16 -15 24 -9 28 -7 14 9 -14 17 -30 20 -30 6z"/>
<path d="M856 872 c-3 -6 -1 -14 5 -17 14 -9 20 -2 10 14 -6 8 -11 9 -15 3z"/>
<path d="M855 830 c3 -5 8 -10 11 -10 2 0 4 5 4 10 0 6 -5 10 -11 10 -5 0 -7
-4 -4 -10z"/>
<path d="M880 770 c0 -5 5 -10 10 -10 6 0 10 5 10 10 0 6 -4 10 -10 10 -5 0
-10 -4 -10 -10z"/>
<path d="M850 746 c0 -2 7 -6 15 -10 8 -3 15 -1 15 4 0 6 -7 10 -15 10 -8 0
-15 -2 -15 -4z"/>
<path d="M413 705 c0 -8 4 -12 9 -9 5 3 6 10 3 15 -9 13 -12 11 -12 -6z"/>
<path d="M875 710 c3 -5 13 -10 21 -10 8 0 14 5 14 10 0 6 -9 10 -21 10 -11 0
-17 -4 -14 -10z"/>
<path d="M860 686 c0 -9 5 -16 10 -16 6 0 10 4 10 9 0 6 -4 13 -10 16 -5 3
-10 -1 -10 -9z"/>
<path d="M860 650 c0 -5 7 -10 16 -10 8 0 12 5 9 10 -3 6 -10 10 -16 10 -5 0
-9 -4 -9 -10z"/>
<path d="M906 644 c-8 -21 -8 -24 5 -24 5 0 7 5 4 10 -3 6 -1 10 4 10 6 0 11
5 11 10 0 16 -17 12 -24 -6z"/>
<path d="M870 615 c-11 -13 -10 -14 4 -9 9 3 16 10 16 15 0 13 -6 11 -20 -6z"/>
<path d="M880 500 c0 -5 7 -10 15 -10 8 0 15 5 15 10 0 6 -7 10 -15 10 -8 0
-15 -4 -15 -10z"/>
<path d="M900 326 c-13 -16 -7 -46 9 -46 12 0 20 35 11 49 -5 9 -10 8 -20 -3z"/>
<path d="M367 253 c-4 -3 -7 -11 -7 -17 0 -6 5 -5 12 2 6 6 9 14 7 17 -3 3 -9
2 -12 -2z"/>
<path d="M320 240 c0 -5 5 -10 10 -10 6 0 10 5 10 10 0 6 -4 10 -10 10 -5 0
-10 -4 -10 -10z"/>
<path d="M464 241 c4 -5 1 -12 -4 -14 -6 -3 -5 -4 2 -3 15 3 23 26 8 26 -6 0
-9 -4 -6 -9z"/>
<path d="M290 231 c0 -5 7 -11 14 -14 10 -4 13 -1 9 9 -6 15 -23 19 -23 5z"/>
<path d="M635 230 c-3 -5 -1 -10 4 -10 6 0 11 5 11 10 0 6 -2 10 -4 10 -3 0
-8 -4 -11 -10z"/>
<path d="M722 224 c-7 -8 -8 -14 -3 -14 10 0 25 19 20 25 -2 1 -10 -3 -17 -11z"/>
<path d="M590 210 c-6 -11 -7 -20 -3 -19 20 3 27 -2 13 -11 -8 -5 -11 -12 -7
-17 5 -4 12 -1 17 7 7 10 10 11 10 3 0 -18 17 -16 23 1 4 10 1 13 -8 10 -14
-6 -39 29 -28 40 3 3 3 6 0 6 -3 0 -11 -9 -17 -20z"/>
<path d="M680 220 c0 -5 5 -10 11 -10 5 0 7 5 4 10 -3 6 -8 10 -11 10 -2 0 -4
-4 -4 -10z"/>
<path d="M480 210 c0 -5 5 -10 10 -10 6 0 10 5 10 10 0 6 -4 10 -10 10 -5 0
-10 -4 -10 -10z"/>
<path d="M387 204 c-8 -8 1 -24 14 -24 5 0 9 7 9 15 0 15 -12 20 -23 9z"/>
<path d="M650 206 c0 -2 7 -7 16 -10 8 -3 12 -2 9 4 -6 10 -25 14 -25 6z"/>
<path d="M510 194 c0 -10 28 -33 33 -27 3 3 0 12 -8 19 -14 15 -25 18 -25 8z"/>
<path d="M360 170 c0 -5 5 -10 10 -10 6 0 10 5 10 10 0 6 -4 10 -10 10 -5 0
-10 -4 -10 -10z"/>
<path d="M660 170 c0 -5 5 -10 10 -10 6 0 10 5 10 10 0 6 -4 10 -10 10 -5 0
-10 -4 -10 -10z"/>
<path d="M500 160 c0 -5 5 -10 10 -10 6 0 10 5 10 10 0 6 -4 10 -10 10 -5 0
-10 -4 -10 -10z"/>
<path d="M149 1263 c-13 -16 -12 -17 4 -4 16 13 21 21 13 21 -2 0 -10 -8 -17
-17z"/>
<path d="M940 1265 c0 -2 6 -8 13 -14 10 -8 14 -7 14 2 0 8 -6 14 -14 14 -7 0
-13 -1 -13 -2z"/>
<path d="M345 100 c-3 -6 1 -7 9 -4 18 7 21 14 7 14 -6 0 -13 -4 -16 -10z"/>
</g>
</svg>
