<?xml version="1.0" standalone="no"?>
<!DOCTYPE svg PUBLIC "-//W3C//DTD SVG 20010904//EN"
 "http://www.w3.org/TR/2001/REC-SVG-20010904/DTD/svg10.dtd">
<svg version="1.0" xmlns="http://www.w3.org/2000/svg"
 width="60.000000pt" height="75.000000pt" viewBox="0 0 60.000000 75.000000"
 preserveAspectRatio="xMidYMid meet">
<metadata>
Created by potrace 1.10, written by Peter Selinger 2001-2011
</metadata>
<g transform="translate(0.000000,75.000000) scale(0.100000,-0.100000)"
fill="#000000" stroke="none">
<path d="M250 724 c-25 -7 -72 -14 -106 -14 -92 0 -93 -4 -89 -321 l4 -254 28
-17 c15 -10 39 -24 53 -32 35 -20 157 -56 189 -56 23 0 172 69 194 89 4 4 10
127 13 272 7 304 13 283 -91 313 -33 10 -70 22 -83 27 -30 12 -58 11 -112 -7z
m118 -8 c15 -7 50 -19 79 -25 73 -18 84 -33 79 -112 -8 -100 -9 -300 -2 -306
3 -4 1 -12 -5 -19 -6 -8 -9 -21 -5 -29 3 -8 1 -15 -5 -15 -6 0 -8 -4 -5 -9 3
-5 -4 -11 -15 -14 -20 -5 -18 -27 2 -27 6 0 7 5 4 10 -3 6 0 10 7 10 8 0 14
-11 13 -26 0 -30 -19 -41 -75 -45 -25 -1 -28 -3 -12 -6 24 -5 21 -23 -5 -23
-9 0 -24 -7 -34 -16 -10 -9 -36 -16 -61 -16 -48 -1 -178 38 -178 53 0 6 -4 8
-9 5 -5 -3 -14 1 -21 9 -7 8 -18 15 -24 15 -7 0 -17 5 -24 12 -9 9 -7 15 6 25
12 11 14 16 5 19 -20 8 -15 40 7 55 24 17 46 81 25 73 -8 -3 -12 -11 -9 -18 3
-7 -2 -19 -11 -26 -8 -7 -15 -9 -16 -4 0 5 -2 73 -4 150 -2 78 -6 154 -9 170
-7 38 13 102 33 107 9 2 28 0 43 -4 15 -4 28 -4 30 1 2 4 19 9 38 11 19 2 40
6 45 10 29 20 79 22 113 5z"/>
<path d="M133 670 c1 -5 -6 -15 -17 -23 -12 -9 -14 -14 -5 -13 8 0 22 8 31 17
14 14 14 18 2 23 -7 3 -13 1 -11 -4z"/>
<path d="M375 669 c-4 -6 -4 -13 -1 -16 3 -4 6 -1 6 6 0 8 6 11 16 7 8 -3 12
-2 9 4 -8 13 -22 13 -30 -1z"/>
<path d="M260 666 c0 -2 8 -10 18 -17 15 -13 16 -12 3 4 -13 16 -21 21 -21 13z"/>
<path d="M455 650 c3 -5 8 -10 11 -10 2 0 4 5 4 10 0 6 -5 10 -11 10 -5 0 -7
-4 -4 -10z"/>
<path d="M486 625 c-3 -8 -1 -15 4 -15 6 0 10 7 10 15 0 8 -2 15 -4 15 -2 0
-6 -7 -10 -15z"/>
<path d="M75 610 c-3 -5 -1 -11 4 -14 5 -3 8 -14 6 -24 -1 -9 0 -11 2 -4 3 7
10 9 16 5 8 -5 8 -2 0 9 -15 18 -7 29 15 21 10 -4 14 -3 11 1 -10 11 -48 15
-54 6z"/>
<path d="M222 423 c1 -109 3 -202 6 -206 2 -4 9 -3 16 3 9 6 11 27 8 58 -4 44
-2 50 23 66 34 22 105 86 105 95 0 3 -29 22 -65 40 l-65 35 0 53 c0 41 -3 53
-15 53 -14 0 -15 -26 -13 -197z m78 35 c22 -13 40 -26 40 -29 0 -3 -10 -11
-22 -17 -13 -7 -33 -19 -45 -28 l-23 -16 0 56 c0 31 2 56 6 56 3 0 23 -10 44
-22z"/>
<path d="M470 586 c0 -8 4 -17 9 -20 5 -4 7 3 4 14 -6 23 -13 26 -13 6z"/>
<path d="M450 571 c0 -6 4 -13 10 -16 6 -3 7 1 4 9 -7 18 -14 21 -14 7z"/>
<path d="M104 545 c-3 -8 -4 -20 -1 -27 3 -7 6 -3 6 9 1 12 7 24 14 26 9 4 9
6 -1 6 -7 1 -15 -6 -18 -14z"/>
<path d="M470 525 c14 -8 30 -14 35 -14 6 0 -1 6 -15 14 -14 8 -29 14 -35 14
-5 0 1 -6 15 -14z"/>
<path d="M471 494 c0 -11 3 -14 6 -6 3 7 2 16 -1 19 -3 4 -6 -2 -5 -13z"/>
<path d="M445 491 c-3 -5 -1 -12 5 -16 5 -3 10 1 10 9 0 18 -6 21 -15 7z"/>
<path d="M115 469 c-4 -6 -5 -12 -2 -15 2 -3 7 2 10 11 7 17 1 20 -8 4z"/>
<path d="M400 449 c0 -5 5 -7 10 -4 6 3 10 8 10 11 0 2 -4 4 -10 4 -5 0 -10
-5 -10 -11z"/>
<path d="M105 419 c-12 -13 -15 -19 -6 -17 7 2 16 -3 18 -10 3 -8 -2 -10 -14
-6 -15 5 -15 4 -3 -5 24 -17 28 -13 27 24 -1 19 -1 35 -1 34 -1 0 -10 -9 -21
-20z"/>
<path d="M415 430 c-3 -5 -1 -10 4 -10 6 0 11 5 11 10 0 6 -2 10 -4 10 -3 0
-8 -4 -11 -10z"/>
<path d="M113 353 c4 -3 -1 -12 -11 -20 -15 -13 -15 -13 6 -3 23 11 30 30 10
30 -6 0 -8 -3 -5 -7z"/>
<path d="M322 351 c-11 -7 -11 -9 0 -14 9 -3 15 1 15 9 0 8 -1 14 -1 14 -1 0
-7 -4 -14 -9z"/>
<path d="M453 235 c0 -7 6 -11 14 -8 7 3 13 6 13 8 0 2 -6 5 -13 8 -8 3 -14
-1 -14 -8z"/>
<path d="M96 222 c-2 -4 -1 -14 4 -22 7 -11 9 -9 7 8 -1 24 -3 26 -11 14z"/>
<path d="M128 178 c5 -5 16 -8 23 -6 8 3 3 7 -10 11 -17 4 -21 3 -13 -5z"/>
<path d="M112 164 c10 -10 20 -16 22 -13 3 3 -5 11 -17 18 -21 13 -21 12 -5
-5z"/>
<path d="M190 155 c-7 -9 -11 -17 -9 -20 3 -2 10 5 17 15 14 24 10 26 -8 5z"/>
<path d="M453 154 c0 -8 7 -14 16 -15 12 0 11 -3 -4 -9 -13 -6 -15 -9 -5 -9
31 -1 38 14 16 31 -18 13 -23 14 -23 2z"/>
<path d="M431 134 c0 -11 3 -14 6 -6 3 7 2 16 -1 19 -3 4 -6 -2 -5 -13z"/>
<path d="M120 128 c0 -10 17 -10 24 0 3 5 -1 9 -9 9 -8 0 -15 -4 -15 -9z"/>
<path d="M561 664 c0 -11 3 -14 6 -6 3 7 2 16 -1 19 -3 4 -6 -2 -5 -13z"/>
<path d="M425 20 c-3 -6 1 -7 9 -4 18 7 21 14 7 14 -6 0 -13 -4 -16 -10z"/>
</g>
</svg>
