<?xml version="1.0" standalone="no"?>
<!DOCTYPE svg PUBLIC "-//W3C//DTD SVG 20010904//EN"
 "http://www.w3.org/TR/2001/REC-SVG-20010904/DTD/svg10.dtd">
<svg version="1.0" xmlns="http://www.w3.org/2000/svg"
 width="106.000000pt" height="140.000000pt" viewBox="0 0 106.000000 140.000000"
 preserveAspectRatio="xMidYMid meet">
<metadata>
Created by potrace 1.10, written by Peter Selinger 2001-2011
</metadata>
<g transform="translate(0.000000,140.000000) scale(0.100000,-0.100000)"
fill="#000000" stroke="none">
<path d="M580 1348 c-14 -5 -64 -6 -115 -3 -83 6 -98 5 -185 -23 -52 -17 -106
-33 -120 -36 -14 -3 -38 -16 -53 -29 l-29 -23 0 -289 c0 -500 36 -645 186
-760 30 -22 45 -26 137 -29 160 -6 319 4 319 20 0 9 -6 11 -17 7 -16 -6 -16
-5 -4 10 8 10 12 20 9 22 -9 10 -38 -7 -38 -21 0 -8 -7 -14 -15 -14 -8 0 -15
5 -15 11 0 8 -4 9 -13 0 -8 -6 -16 -8 -19 -5 -4 3 -26 -1 -51 -10 -43 -14 -87
-12 -87 4 0 5 6 11 13 13 9 4 9 6 0 6 -6 1 -15 -3 -18 -9 -10 -17 -25 -11 -19
7 5 16 4 16 -10 -1 -14 -17 -16 -17 -22 -3 -3 10 -11 17 -16 17 -6 0 -4 -7 3
-17 13 -15 11 -16 -15 -11 -17 3 -40 2 -52 -2 -27 -11 -58 10 -60 39 -1 12 -2
26 -3 31 0 6 -13 10 -28 10 -45 1 -63 23 -94 114 -39 114 -62 354 -53 546 4
74 11 141 17 148 6 8 6 12 -3 12 -8 0 -10 8 -7 22 3 12 2 30 -4 40 -6 12 -6
18 1 18 5 0 10 -7 10 -15 0 -8 4 -15 9 -15 5 0 9 11 9 25 0 13 -3 24 -7 23
-20 -2 -31 4 -31 16 0 21 49 76 67 76 9 0 59 14 112 31 89 29 103 31 196 25
55 -3 109 -1 120 3 16 7 26 2 48 -22 15 -17 27 -34 27 -38 0 -4 9 -5 20 -2 11
3 20 1 20 -5 0 -6 -7 -12 -15 -14 -12 -2 -11 -7 5 -28 10 -14 22 -21 26 -17 4
4 -1 14 -12 22 -17 13 -17 14 -1 15 25 0 21 11 -20 47 -32 29 -34 33 -17 39
40 13 44 13 44 4 0 -6 4 -10 10 -10 5 0 7 7 3 16 -4 12 -2 15 8 12 8 -3 13
-13 13 -22 -1 -9 5 -16 13 -16 8 0 11 -5 8 -10 -4 -6 1 -24 9 -42 18 -36 20
-58 6 -58 -5 0 -10 -5 -10 -11 0 -6 7 -9 15 -5 18 7 20 -5 3 -23 -11 -10 -10
-11 3 -6 10 4 19 -3 27 -20 12 -26 7 -30 -25 -26 -20 3 -15 -9 7 -17 13 -5 16
-12 11 -20 -6 -10 -16 -6 -39 17 -32 32 -54 43 -31 15 11 -14 10 -18 -6 -30
-10 -8 -14 -14 -9 -14 6 0 15 5 20 10 14 14 52 -20 47 -40 -3 -8 4 -3 14 12
14 21 22 24 36 17 9 -6 17 -16 17 -24 0 -7 6 -15 13 -18 6 -2 8 -8 4 -13 -5
-5 -16 1 -27 13 -9 12 -20 19 -24 16 -10 -10 -7 -25 4 -18 6 3 10 1 10 -5 0
-6 11 -15 25 -20 29 -11 31 -22 9 -41 -13 -11 -15 -10 -12 3 3 18 1 18 -34 17
l-23 0 23 -10 c13 -5 20 -14 16 -20 -5 -8 -8 -8 -14 0 -5 9 -10 7 -20 -4 -11
-13 -10 -14 5 -9 13 5 16 4 11 -4 -5 -9 -1 -10 16 -3 24 9 69 -12 55 -25 -4
-4 -13 -2 -20 5 -11 9 -17 8 -27 -4 -9 -10 -9 -15 -1 -15 6 0 11 5 11 12 0 6
9 3 20 -7 16 -14 19 -26 15 -54 -8 -55 -12 -84 -13 -109 -1 -14 -6 -20 -13
-16 -6 3 -8 17 -5 30 4 14 2 24 -4 24 -6 0 -8 -4 -5 -10 3 -5 1 -10 -5 -10 -8
0 -10 -9 -7 -23 4 -12 2 -29 -3 -36 -5 -8 -4 -25 2 -40 6 -17 6 -27 -1 -29 -6
-2 -11 -8 -11 -14 0 -6 8 -4 18 4 18 16 42 14 42 -3 0 -6 -5 -7 -10 -4 -6 3
-18 -1 -27 -11 -16 -16 -16 -16 4 -10 40 13 58 -63 28 -120 -8 -16 -15 -37
-15 -46 0 -9 -7 -24 -16 -32 -8 -9 -16 -25 -17 -36 -1 -15 -6 -18 -22 -14 -17
6 -18 5 -7 -8 10 -13 10 -17 -4 -22 -9 -3 -14 -13 -11 -21 8 -19 -49 -79 -64
-69 -9 5 -10 2 -6 -10 4 -10 7 -22 7 -27 0 -6 4 -8 8 -5 5 3 21 7 36 10 15 3
42 13 59 23 31 18 32 22 38 99 5 77 22 149 40 169 12 12 12 102 0 109 -5 3 -7
59 -5 123 10 286 8 301 -36 367 -15 22 -44 95 -65 161 -21 66 -42 124 -46 129
-5 5 -34 4 -69 -3 -39 -8 -66 -9 -73 -3 -8 6 -21 6 -37 0z m300 -678 c0 -5 -5
-10 -11 -10 -5 0 -7 5 -4 10 3 6 8 10 11 10 2 0 4 -4 4 -10z m-50 -390 c0 -5
-4 -10 -10 -10 -5 0 -10 5 -10 10 0 6 5 10 10 10 6 0 10 -4 10 -10z m-573 -46
c-3 -3 -12 -4 -19 -1 -8 3 -5 6 6 6 11 1 17 -2 13 -5z m593 1 c0 -2 -9 -9 -20
-15 -15 -8 -25 -8 -38 0 -13 9 -13 10 -1 7 9 -3 22 -1 30 4 15 10 29 12 29 4z"/>
<path d="M599 1299 c12 -12 25 -18 28 -15 4 3 -2 13 -13 21 -29 22 -41 18 -15
-6z"/>
<path d="M705 1300 c3 -5 8 -10 11 -10 2 0 4 5 4 10 0 6 -5 10 -11 10 -5 0 -7
-4 -4 -10z"/>
<path d="M730 1290 c0 -5 5 -10 11 -10 5 0 7 5 4 10 -3 6 -8 10 -11 10 -2 0
-4 -4 -4 -10z"/>
<path d="M620 1260 c0 -5 5 -10 10 -10 6 0 10 5 10 10 0 6 -4 10 -10 10 -5 0
-10 -4 -10 -10z"/>
<path d="M735 1260 c3 -5 8 -10 11 -10 2 0 4 5 4 10 0 6 -5 10 -11 10 -5 0 -7
-4 -4 -10z"/>
<path d="M200 1240 c-9 -6 -10 -10 -3 -10 6 0 15 5 18 10 8 12 4 12 -15 0z"/>
<path d="M570 1243 c0 -6 8 -17 18 -24 16 -13 16 -13 2 6 -8 11 -16 22 -17 24
-2 2 -3 0 -3 -6z"/>
<path d="M730 1225 c0 -8 4 -15 10 -15 5 0 7 7 4 15 -4 8 -8 15 -10 15 -2 0
-4 -7 -4 -15z"/>
<path d="M640 1220 c0 -5 5 -10 10 -10 6 0 10 5 10 10 0 6 -4 10 -10 10 -5 0
-10 -4 -10 -10z"/>
<path d="M710 1179 c0 -5 11 -9 25 -9 33 0 33 15 0 16 -14 1 -25 -2 -25 -7z"/>
<path d="M740 1149 c0 -5 5 -7 10 -4 6 3 10 8 10 11 0 2 -4 4 -10 4 -5 0 -10
-5 -10 -11z"/>
<path d="M760 1130 c0 -5 5 -10 10 -10 6 0 10 5 10 10 0 6 -4 10 -10 10 -5 0
-10 -4 -10 -10z"/>
<path d="M283 1115 c0 -8 4 -12 9 -9 5 3 6 10 3 15 -9 13 -12 11 -12 -6z"/>
<path d="M575 1102 c-6 -4 -18 -25 -27 -47 -56 -140 -82 -201 -89 -209 -4 -4
-17 14 -29 40 -73 163 -90 192 -115 196 -14 3 -28 1 -31 -3 -5 -8 54 -131 122
-255 l28 -51 -57 -139 c-31 -77 -57 -145 -57 -152 0 -7 11 -12 25 -12 19 0 26
7 31 27 10 44 75 203 83 203 3 0 27 -42 54 -93 74 -144 83 -156 107 -150 30 8
33 20 12 51 -32 47 -142 260 -142 277 0 8 5 23 10 33 20 33 102 237 107 265 5
27 -9 36 -32 19z m-197 -167 c-3 -3 -9 2 -12 12 -6 14 -5 15 5 6 7 -7 10 -15
7 -18z m102 -110 c0 -1 -10 -10 -22 -21 -12 -10 -18 -13 -13 -5 4 8 2 16 -5
21 -7 5 -2 8 14 8 14 0 26 -1 26 -3z m-21 -66 c-11 -6 -9 -12 6 -30 11 -12 14
-19 7 -15 -7 4 -21 2 -30 -6 -15 -12 -16 -11 -4 4 8 9 11 22 7 27 -3 6 0 21 6
33 9 16 14 19 17 9 2 -7 -2 -17 -9 -22z m119 -214 c-3 -3 -9 2 -12 12 -6 14
-5 15 5 6 7 -7 10 -15 7 -18z"/>
<path d="M246 1087 c3 -10 9 -15 12 -12 3 3 0 11 -7 18 -10 9 -11 8 -5 -6z"/>
<path d="M490 1044 c0 -8 5 -12 10 -9 6 4 8 11 5 16 -9 14 -15 11 -15 -7z"/>
<path d="M794 1001 c3 -5 16 -11 28 -14 22 -6 22 -5 4 8 -22 17 -40 20 -32 6z"/>
<path d="M131 874 c0 -11 3 -14 6 -6 3 7 2 16 -1 19 -3 4 -6 -2 -5 -13z"/>
<path d="M805 860 c-3 -6 1 -7 11 -3 11 4 22 -1 30 -12 20 -26 17 -35 -8 -35
-20 -1 -21 -2 -6 -11 12 -7 24 -6 38 1 18 10 19 13 5 26 -20 21 -19 35 3 27 9
-3 13 -2 9 3 -11 12 -75 15 -82 4z"/>
<path d="M807 749 c7 -7 15 -10 18 -7 3 3 -2 9 -12 12 -14 6 -15 5 -6 -5z"/>
<path d="M803 685 c0 -8 4 -12 9 -9 5 3 6 10 3 15 -9 13 -12 11 -12 -6z"/>
<path d="M940 641 c0 -6 4 -13 10 -16 6 -3 7 1 4 9 -7 18 -14 21 -14 7z"/>
<path d="M807 623 c-4 -3 -7 -13 -7 -22 1 -13 3 -13 11 2 11 19 8 33 -4 20z"/>
<path d="M946 563 c-6 -14 -5 -15 5 -6 7 7 10 15 7 18 -3 3 -9 -2 -12 -12z"/>
<path d="M800 550 c0 -19 11 -26 23 -14 8 8 -3 34 -14 34 -5 0 -9 -9 -9 -20z"/>
<path d="M852 528 c0 -7 -3 -22 -6 -33 -4 -11 -2 -27 4 -35 9 -13 11 -13 20 0
13 20 13 30 -1 30 -5 0 -7 -6 -3 -12 5 -10 4 -10 -5 -2 -10 9 -10 17 -2 32 13
25 14 32 3 32 -5 0 -9 -6 -10 -12z"/>
<path d="M800 464 c0 -28 4 -35 17 -32 9 2 18 9 19 16 1 7 0 8 -3 2 -10 -21
-22 -9 -19 20 2 17 -1 30 -5 30 -5 0 -9 -16 -9 -36z"/>
<path d="M715 450 c-3 -5 -1 -10 4 -10 6 0 11 5 11 10 0 6 -2 10 -4 10 -3 0
-8 -4 -11 -10z"/>
<path d="M845 430 c-3 -5 -1 -10 4 -10 6 0 11 5 11 10 0 6 -2 10 -4 10 -3 0
-8 -4 -11 -10z"/>
<path d="M800 403 c0 -15 2 -16 10 -3 5 8 13 11 17 6 4 -4 0 -13 -10 -20 -9
-7 -17 -21 -17 -31 0 -14 3 -15 15 -5 8 7 12 16 9 21 -3 5 5 13 17 18 l23 8
-21 12 c-30 16 -43 14 -43 -6z"/>
<path d="M710 309 c0 -5 5 -7 10 -4 6 3 10 8 10 11 0 2 -4 4 -10 4 -5 0 -10
-5 -10 -11z"/>
<path d="M726 292 c-2 -4 -1 -14 5 -22 7 -12 9 -10 9 8 0 23 -5 28 -14 14z"/>
<path d="M660 270 c0 -5 7 -10 15 -10 8 0 15 5 15 10 0 6 -7 10 -15 10 -8 0
-15 -4 -15 -10z"/>
<path d="M606 241 c-4 -7 -5 -15 -2 -18 9 -9 19 4 14 18 -4 11 -6 11 -12 0z"/>
<path d="M290 230 c0 -5 5 -10 10 -10 6 0 10 -7 10 -15 0 -16 15 -20 24 -7 3
5 -4 16 -15 25 -22 20 -29 21 -29 7z"/>
<path d="M730 230 c-9 -6 -10 -10 -3 -10 6 0 15 5 18 10 8 12 4 12 -15 0z"/>
<path d="M360 209 c0 -5 5 -7 10 -4 6 3 10 8 10 11 0 2 -4 4 -10 4 -5 0 -10
-5 -10 -11z"/>
<path d="M508 183 c7 -3 16 -2 19 1 4 3 -2 6 -13 5 -11 0 -14 -3 -6 -6z"/>
<path d="M247 139 c7 -7 15 -10 18 -7 3 3 -2 9 -12 12 -14 6 -15 5 -6 -5z"/>
<path d="M598 123 c7 -3 16 -2 19 1 4 3 -2 6 -13 5 -11 0 -14 -3 -6 -6z"/>
</g>
</svg>
